<?xml version="1.0" standalone="no"?>
<!DOCTYPE svg PUBLIC "-//W3C//DTD SVG 1.1//EN" "http://www.w3.org/Graphics/SVG/1.1/DTD/svg11.dtd" >
<svg xmlns="http://www.w3.org/2000/svg" xmlns:xlink="http://www.w3.org/1999/xlink" version="1.1">
<metadata>
Created by FontForge 20170731 at Thu Apr 14 17:59:54 2022
 By Aleksey,,,
Copyright (c) 2011 by Hannes von Doehren. All rights reserved.
</metadata>
<defs>
<font id="PlutoThin" horiz-adv-x="1228" >
  <font-face 
    font-family="Pluto Thin"
    font-weight="100"
    font-stretch="normal"
    units-per-em="2048"
    panose-1="2 11 4 3 2 2 3 6 2 4"
    ascent="1638"
    descent="-410"
    x-height="1071"
    cap-height="1393"
    bbox="-287 -459 2374 1858"
    underline-thickness="102"
    underline-position="-307"
    unicode-range="U+0020-FB02"
  />
<missing-glyph horiz-adv-x="1253" 
d="M102 1475h1049v-1475h-1049v1475zM545 580h98q0 45 20.5 83.5t51.5 63.5t67.5 53t67.5 53.5t51.5 64.5t20.5 85q0 104 -75 174t-208 70q-65 0 -115 -20.5t-79 -51t-47.5 -70t-24.5 -73t-6 -64.5h96q0 82 43.5 136.5t132.5 54.5q83 0 130.5 -44.5t47.5 -111.5
q0 -39 -28 -74.5t-68 -65t-80 -63.5t-68 -85.5t-28 -114.5zM522 397v-145h140v145h-140z" />
    <glyph glyph-name=".notdef" horiz-adv-x="1253" 
d="M102 1475h1049v-1475h-1049v1475zM545 580h98q0 45 20.5 83.5t51.5 63.5t67.5 53t67.5 53.5t51.5 64.5t20.5 85q0 104 -75 174t-208 70q-65 0 -115 -20.5t-79 -51t-47.5 -70t-24.5 -73t-6 -64.5h96q0 82 43.5 136.5t132.5 54.5q83 0 130.5 -44.5t47.5 -111.5
q0 -39 -28 -74.5t-68 -65t-80 -63.5t-68 -85.5t-28 -114.5zM522 397v-145h140v145h-140z" />
    <glyph glyph-name=".null" horiz-adv-x="0" 
 />
    <glyph glyph-name="nonmarkingreturn" horiz-adv-x="682" 
 />
    <glyph glyph-name="space" unicode=" " horiz-adv-x="512" 
 />
    <glyph glyph-name="exclam" unicode="!" horiz-adv-x="522" 
d="M240 453v938h43v-938h-43zM195 55q0 76 65 76q70 0 70 -76q0 -75 -70 -75q-65 0 -65 75z" />
    <glyph glyph-name="quotedbl" unicode="&#x22;" horiz-adv-x="796" 
d="M219 1393v-473h-41v473h41zM618 1393v-473h-40v473h40z" />
    <glyph glyph-name="numbersign" unicode="#" horiz-adv-x="1419" 
d="M797 6l82 334h-527l-84 -340h-45v6l82 334h-211v43h221l162 645h-196v43h206l80 322h45v-7l-77 -315h526l80 322h45v-7l-78 -315h219v-43h-229l-162 -645h205v-43h-215l-84 -340h-45v6zM524 1028l-162 -645h527l162 645h-527z" />
    <glyph glyph-name="dollar" unicode="$" 
d="M594 -264v244h-8q-132 0 -256 37.5t-201 84.5l14 39q77 -44 198 -82.5t245 -38.5h8v674l-180 41q-143 32 -225.5 109t-82.5 198q0 68 30.5 131t88.5 114.5t153.5 84.5t215.5 37v166h41v-164q126 0 253 -33.5t208 -79.5l-19 -41q-70 44 -198 78.5t-244 34.5v-645l106 -25
q92 -21 157.5 -47t117.5 -64.5t78 -92.5t26 -125q0 -171 -132.5 -274.5t-352.5 -114.5v-246h-41zM731 664l-96 20v-664q197 11 320.5 105.5t123.5 245.5q0 114 -85.5 184t-262.5 109zM147 1042q0 -104 70.5 -171t202.5 -97l174 -41v635q-110 -4 -197.5 -33.5t-141 -75.5
t-81 -101.5t-27.5 -115.5z" />
    <glyph glyph-name="percent" unicode="%" horiz-adv-x="1679" 
d="M901 315q0 147 95.5 243.5t244.5 96.5q150 0 245 -96.5t95 -243.5q0 -146 -95 -240.5t-245 -94.5q-149 0 -244.5 95t-95.5 240zM942 315q0 -128 84 -212.5t215 -84.5q133 0 217 84t84 213q0 130 -84.5 215.5t-216.5 85.5q-131 0 -215 -85.5t-84 -215.5zM424 6l754 1387
h45v-7l-754 -1386h-45v6zM100 1071q0 147 95.5 243.5t244.5 96.5q150 0 245 -96.5t95 -243.5q0 -146 -95 -241t-245 -95q-149 0 -244.5 95.5t-95.5 240.5zM141 1071q0 -128 84 -212.5t215 -84.5q132 0 216.5 84t84.5 213q0 130 -84.5 215.5t-216.5 85.5q-131 0 -215 -85.5
t-84 -215.5z" />
    <glyph glyph-name="ampersand" unicode="&#x26;" horiz-adv-x="1419" 
d="M1303 8v-8h-52l-204 197q-189 -215 -455 -215q-210 0 -332.5 94t-122.5 258q0 62 24.5 117.5t60.5 94.5t89.5 75t97 57t97.5 43l-17 16q-106 102 -143 147q-88 110 -88 212q0 147 101.5 232t273.5 85q159 0 268 -89.5t109 -221.5q0 -226 -248 -326l-180 -74l458 -442
q160 202 209 502l45 -8q-63 -325 -223 -525zM592 23q243 0 422 204l-473 459q-58 -24 -99 -42.5t-95 -52t-87.5 -68t-57.5 -84.5t-24 -107q0 -141 111 -225t303 -84zM299 1098q0 -44 20 -90.5t57 -92t67 -77t72 -70.5q9 -8 13 -12l21 -21l194 76q226 88 226 291
q0 113 -99 191.5t-237 78.5q-160 0 -247 -74.5t-87 -199.5z" />
    <glyph glyph-name="quotesingle" unicode="'" horiz-adv-x="397" 
d="M219 1393v-473h-41v473h41z" />
    <glyph glyph-name="parenleft" unicode="(" horiz-adv-x="528" 
d="M451 1438q-31 -40 -62.5 -89t-72.5 -135.5t-71 -181.5t-51.5 -226.5t-21.5 -270.5q0 -137 21.5 -268.5t51.5 -227t71 -182.5t72.5 -137t62.5 -89l-35 -26q-31 37 -63.5 88t-74 139.5t-73.5 187t-54 235.5t-22 280q0 177 31.5 339.5t81 278.5t92 189t82.5 122z" />
    <glyph glyph-name="parenright" unicode=")" horiz-adv-x="528" 
d="M78 1438l35 26q31 -37 63.5 -88t74 -139t73 -187t53.5 -235.5t22 -279.5t-22 -280t-53.5 -235.5t-73 -187t-74 -139.5t-63.5 -88l-35 26q31 39 62.5 89.5t72 137t71 182t51.5 227t21 268.5q0 139 -21 270.5t-51.5 226.5t-71 181.5t-72 135.5t-62.5 89z" />
    <glyph glyph-name="asterisk" unicode="*" horiz-adv-x="1062" 
d="M520 1040q-18 203 -18 353q0 23 8 35t20 12q31 0 31 -47q0 -198 -26 -353q125 65 305 136q29 10 46 1t17 -28q0 -26 -33 -37q-150 -53 -329 -88q37 -37 123.5 -133.5t111.5 -122.5q22 -25 16 -45.5t-28 -20.5q-20 0 -39 25q-140 181 -199 285q-20 -37 -53 -90.5
t-71.5 -113t-51.5 -81.5q-16 -27 -45 -27q-19 0 -24 19.5t12 44.5q36 50 105 131.5t116 128.5q-96 20 -321 96q-37 12 -37 39q0 17 16 25.5t45 -0.5q177 -72 303 -144z" />
    <glyph glyph-name="plus" unicode="+" 
d="M635 1071v-432h432v-41h-432v-432h-41v432h-432v41h432v432h41z" />
    <glyph glyph-name="comma" unicode="," horiz-adv-x="483" 
d="M162 -330l102 303q-45 0 -69.5 20t-24.5 50q0 80 72 80q35 0 54 -23.5t19 -56.5q0 -66 -46 -201.5t-74 -185.5z" />
    <glyph glyph-name="hyphen" unicode="-" horiz-adv-x="1064" 
d="M172 641h721v-43h-721v43z" />
    <glyph glyph-name="period" unicode="." horiz-adv-x="479" 
d="M172 55q0 76 66 76q69 0 69 -76q0 -75 -69 -75q-66 0 -66 75z" />
    <glyph glyph-name="slash" unicode="/" horiz-adv-x="978" 
d="M90 6l754 1387h45v-7l-754 -1386h-45v6z" />
    <glyph glyph-name="zero" unicode="0" horiz-adv-x="1478" 
d="M166 694q0 126 20 233t64 197.5t109.5 154t161.5 99t216 35.5q121 0 218 -35.5t163 -99t110.5 -154t64.5 -197.5t20 -233q0 -125 -20 -231t-64.5 -196t-110.5 -153t-163 -98.5t-218 -35.5q-149 0 -260.5 53.5t-178.5 151t-99.5 225t-32.5 284.5zM207 694
q0 -117 18 -216.5t58.5 -185t101.5 -145t150.5 -93.5t201.5 -34q141 0 246 51t167 144t92 212.5t30 266.5q0 149 -30 269t-92 213.5t-167 144.5t-246 51q-112 0 -201.5 -34t-150.5 -93.5t-101.5 -145.5t-58.5 -186.5t-18 -218.5z" />
    <glyph glyph-name="one" unicode="1" horiz-adv-x="935" 
d="M53 1141l588 252h41v-1393h-41v1346l-573 -242z" />
    <glyph glyph-name="two" unicode="2" horiz-adv-x="1284" 
d="M1155 41v-41h-999v41l622 473q148 111 217.5 221.5t69.5 245.5q0 83 -26 153t-77 123.5t-133.5 84t-189.5 30.5q-214 0 -333 -115.5t-122 -300.5h-41q5 205 134.5 331t361.5 126q116 0 207 -33.5t147 -93t84.5 -136.5t28.5 -169q0 -144 -72.5 -263t-228.5 -237l-582 -440
h932z" />
    <glyph glyph-name="three" unicode="3" horiz-adv-x="1329" 
d="M315 702v41h396q171 0 269.5 94.5t98.5 221.5q0 147 -127 230t-325 83q-237 0 -437 -110l-20 36q215 115 457 115q144 0 255 -40.5t174.5 -121.5t63.5 -192q0 -124 -82.5 -220.5t-216.5 -111.5q162 -22 255 -113t93 -239q0 -122 -72 -212.5t-193.5 -136.5t-276.5 -46
q-230 0 -467 102l18 39q208 -101 449 -101q213 0 357 96t144 259q0 149 -109 238t-308 89h-396z" />
    <glyph glyph-name="four" unicode="4" horiz-adv-x="1435" 
d="M1358 336h-346v-336h-41v336h-908v41l898 1016h51v-1016h346v-41zM117 377h854v971z" />
    <glyph glyph-name="five" unicode="5" horiz-adv-x="1318" 
d="M1128 1393v-41h-825l-45 -539h356q121 0 220 -21t176.5 -65.5t120.5 -119t43 -175.5q0 -95 -32.5 -172.5t-87 -128.5t-128 -86t-152.5 -50t-164 -15q-93 0 -172.5 10.5t-143.5 31t-92 32t-73 32.5l21 39q204 -105 460 -105q79 0 152 13t141.5 44t119 77.5t80.5 117
t30 158.5q0 94 -40 162t-113 106.5t-163 56t-203 17.5h-395l-4 6l51 615h862z" />
    <glyph glyph-name="six" unicode="6" horiz-adv-x="1437" 
d="M1237 1266l-31 -35q-65 57 -177 99t-253 42q-176 0 -306.5 -86t-198.5 -238t-68 -350q0 -60 6 -116q22 39 50.5 77.5t81 90t111.5 89.5t145 64.5t179 26.5q235 0 374.5 -123.5t139.5 -343.5q0 -211 -147.5 -347t-370.5 -136q-190 0 -328.5 89.5t-210 251t-71.5 377.5
q0 212 71.5 372.5t211.5 251.5t331 91q150 0 270.5 -44.5t190.5 -102.5zM776 889q-98 0 -188 -32.5t-149 -76t-110.5 -101t-73.5 -92t-38 -65.5q42 -233 187.5 -367.5t367.5 -134.5q203 0 340 126.5t137 316.5q0 202 -131.5 314t-341.5 112z" />
    <glyph glyph-name="seven" unicode="7" horiz-adv-x="1052" 
d="M297 6l666 1346h-918v41h967v-41l-666 -1352h-49v6z" />
    <glyph glyph-name="eight" unicode="8" horiz-adv-x="1404" 
d="M702 -20q-155 0 -276.5 46t-193.5 136.5t-72 212.5q0 147 105.5 238.5t283.5 113.5q-150 15 -245 111.5t-95 220.5q0 111 63.5 192t174.5 121.5t255 40.5q221 0 357.5 -94t136.5 -260q0 -124 -95 -220.5t-245 -111.5q178 -22 283.5 -113.5t105.5 -238.5
q0 -122 -72 -212.5t-194 -136.5t-277 -46zM707 698q-254 0 -380 -86t-126 -237q0 -108 68 -190t181 -123.5t252 -41.5q214 0 358 96.5t144 258.5q0 151 -122 237t-375 86zM702 1372q-202 0 -327 -81t-125 -232q0 -60 25.5 -114t77.5 -99t143 -71.5t211 -26.5q117 0 206 26.5
t140.5 71.5t76.5 99t25 114q0 151 -125.5 232t-327.5 81z" />
    <glyph glyph-name="nine" unicode="9" horiz-adv-x="1437" 
d="M201 127l30 35q65 -57 177.5 -99.5t253.5 -42.5q176 0 306.5 86t198.5 238t68 350q0 60 -6 115q-23 -39 -51.5 -77.5t-81.5 -89.5t-112 -88.5t-144 -64t-178 -26.5q-235 0 -375 123.5t-140 343.5q0 139 68 250t186.5 172t264.5 61q285 0 447.5 -195.5t162.5 -523.5
q0 -211 -71.5 -372t-211.5 -251.5t-331 -90.5q-150 0 -270.5 44.5t-190.5 102.5zM662 504q98 0 188 32.5t148.5 75.5t109.5 100.5t73 92t38 65.5q-40 231 -185.5 366.5t-367.5 135.5q-203 0 -340.5 -126t-137.5 -316q0 -201 132 -313.5t342 -112.5z" />
    <glyph glyph-name="colon" unicode=":" horiz-adv-x="479" 
d="M172 1024q0 76 66 76q69 0 69 -76t-69 -76q-66 0 -66 76zM172 55q0 76 66 76q69 0 69 -76q0 -75 -69 -75q-66 0 -66 75z" />
    <glyph glyph-name="semicolon" unicode=";" horiz-adv-x="499" 
d="M172 -330l102 303q-45 0 -69.5 20t-24.5 50q0 80 72 80q35 0 54.5 -23.5t19.5 -56.5q0 -66 -46 -201.5t-75 -185.5zM182 1024q0 76 66 76q69 0 69 -76t-69 -76q-66 0 -66 76z" />
    <glyph glyph-name="less" unicode="&#x3c;" 
d="M162 600v41l897 446h6v-45l-860 -421l860 -422v-45h-6z" />
    <glyph glyph-name="equal" unicode="=" 
d="M162 348h905v-41h-905v41zM162 932h905v-41h-905v41z" />
    <glyph glyph-name="greater" unicode="&#x3e;" 
d="M1065 641v-41l-897 -446h-6v45l860 422l-860 421v45h6z" />
    <glyph glyph-name="question" unicode="?" horiz-adv-x="978" 
d="M440 453h-43q-6 27 -6 57q0 52 25.5 89t79.5 77l125 96q43 33 68.5 56.5t53.5 60t41 81.5t13 101q0 136 -93.5 218.5t-232.5 82.5q-235 0 -328 -190l-39 24q21 41 50.5 75.5t73 65.5t106 48.5t137.5 17.5q159 0 263 -95t104 -247q0 -38 -6.5 -73t-14 -59.5t-26.5 -53
t-29.5 -42.5t-38 -39.5t-37 -33t-41.5 -33.5l-129 -100q-51 -39 -67.5 -63t-16.5 -64q0 -26 8 -57zM356 55q0 76 66 76q70 0 70 -76q0 -75 -70 -75q-66 0 -66 75z" />
    <glyph glyph-name="at" unicode="@" horiz-adv-x="2078" 
d="M1427 1006v-807q0 -68 28.5 -102t98.5 -34q66 0 131.5 38.5t120.5 110t89 189t34 261.5q0 161 -64.5 303t-178 245t-277 162.5t-352.5 59.5q-151 0 -288 -43t-245.5 -123.5t-189 -189.5t-123.5 -247t-43 -290q0 -151 43 -288.5t123.5 -247t189 -191t245.5 -125t288 -43.5
q216 0 407 90l19 -37q-196 -94 -426 -94q-196 0 -368.5 72t-295.5 196.5t-194.5 298t-71.5 369.5q0 197 71.5 371t194.5 297.5t295.5 194.5t368.5 71q197 0 368 -63t290 -171.5t187 -258t68 -318.5q0 -153 -37 -278.5t-97.5 -202t-133 -117.5t-148.5 -41q-85 0 -122.5 37
t-42.5 110q-62 -63 -155.5 -105t-197.5 -42q-218 0 -349.5 138t-131.5 357q0 222 132 363t349 141q105 0 197 -40t153 -103v127h41zM1386 821q-57 67 -148.5 113.5t-199.5 46.5q-200 0 -321 -129.5t-121 -333.5q0 -201 121 -328t321 -127q107 0 198.5 45.5t149.5 110.5v602z
" />
    <glyph glyph-name="A" unicode="A" horiz-adv-x="1380" 
d="M53 0l627 1393h41l586 -1393h-41l-160 377h-842l-170 -377h-41zM698 1346l-415 -928h807z" />
    <glyph glyph-name="B" unicode="B" horiz-adv-x="1384" 
d="M248 0v1393h434q211 0 329.5 -88t118.5 -265q0 -123 -73 -203t-201 -114q183 -23 284 -114t101 -253q0 -166 -118 -261t-347 -95h-528zM289 41h489q203 0 312.5 83.5t109.5 231.5q0 170 -127 255t-352 85h-432v-655zM289 737h375q191 0 308.5 78.5t117.5 224.5
q0 158 -108 235t-300 77h-393v-615z" />
    <glyph glyph-name="C" unicode="C" horiz-adv-x="1562" 
d="M1391 238l30 -33q-101 -96 -254 -160.5t-317 -64.5q-206 0 -363.5 84t-246 246.5t-88.5 383.5q0 167 51 303t143 227t221 140t283 49q265 0 414 -140t155 -386l-39 -6q-6 232 -143.5 361.5t-386.5 129.5q-297 0 -477 -181.5t-180 -496.5q0 -313 180 -493.5t477 -180.5
q151 0 298.5 63.5t242.5 154.5z" />
    <glyph glyph-name="D" unicode="D" horiz-adv-x="1607" 
d="M248 0v1393h489q155 -1 286 -47t227.5 -132.5t151 -220t54.5 -299.5q0 -165 -54.5 -297.5t-151 -218.5t-227.5 -132t-286 -46h-489zM737 1352h-448v-1311h448q147 0 271 42.5t214.5 123.5t141.5 206t51 281q0 158 -51 283.5t-142 206.5t-214 124t-271 44z" />
    <glyph glyph-name="E" unicode="E" horiz-adv-x="1439" 
d="M1276 0h-1028v1393h1028v-41h-987v-598h837v-41h-837v-672h987v-41z" />
    <glyph glyph-name="F" unicode="F" horiz-adv-x="1310" 
d="M1124 637h-835v-637h-41v1393h987v-41h-946v-674h835v-41z" />
    <glyph glyph-name="G" unicode="G" horiz-adv-x="1628" 
d="M831 680h629v-528q-100 -74 -256.5 -123t-312.5 -49q-155 0 -290 49t-235 139t-158 226t-58 300q0 166 58 303t158 227t235 139.5t290 49.5q161 0 283 -50.5t233 -150.5l-29 -32q-104 95 -220 143.5t-267 48.5q-195 0 -353 -79.5t-253 -235.5t-95 -363q0 -154 55 -282.5
t150.5 -213.5t223 -131.5t272.5 -46.5q147 0 290.5 44t237.5 112v463h-588v41z" />
    <glyph glyph-name="H" unicode="H" horiz-adv-x="1712" 
d="M1423 0v678h-1134v-678h-41v1393h41v-674h1134v674h41v-1393h-41z" />
    <glyph glyph-name="I" unicode="I" horiz-adv-x="536" 
d="M248 0v1393h41v-1393h-41z" />
    <glyph glyph-name="J" unicode="J" horiz-adv-x="1341" 
d="M1073 1393h41v-879q0 -240 -140.5 -389.5t-381.5 -149.5q-237 0 -369 139.5t-147 381.5l39 6q15 -230 134.5 -358t342.5 -128q227 0 354 135.5t127 362.5v879z" />
    <glyph glyph-name="K" unicode="K" horiz-adv-x="1544" 
d="M248 0v1393h41v-674h426l514 674h47v-7l-524 -688q26 -25 57.5 -78t61.5 -113.5t65.5 -129.5t76 -131.5t85.5 -113.5t102 -81.5t119 -30.5q91 0 197 54l12 -41q-104 -53 -209 -53q-82 0 -155.5 44.5t-124.5 111.5t-100 151.5t-83.5 160t-72 140.5t-68.5 90h-426v-678h-41
z" />
    <glyph glyph-name="L" unicode="L" horiz-adv-x="1196" 
d="M1141 0h-893v1393h41v-1352h852v-41z" />
    <glyph glyph-name="M" unicode="M" horiz-adv-x="1929" 
d="M1640 0v1323l-665 -809h-21l-665 809v-1323h-41v1393h41l676 -826l675 826h41v-1393h-41z" />
    <glyph glyph-name="N" unicode="N" horiz-adv-x="1703" 
d="M1415 0l-1126 1325v-1325h-41v1393h41l1126 -1332v1332h41v-1393h-41z" />
    <glyph glyph-name="O" unicode="O" horiz-adv-x="1728" 
d="M147 694q0 152 54.5 285.5t149.5 228.5t227.5 150t283.5 55q152 0 285.5 -55t228.5 -150t150 -228.5t55 -285.5q0 -201 -93 -364.5t-258 -256.5t-368 -93q-201 0 -365 93t-257 256.5t-93 364.5zM188 694q0 -143 51 -268t140.5 -214.5t214.5 -140.5t268 -51
q193 0 348 87.5t242.5 241.5t87.5 345q0 193 -87.5 348t-242.5 242.5t-348 87.5q-191 0 -345 -87.5t-241.5 -242.5t-87.5 -348z" />
    <glyph glyph-name="P" unicode="P" horiz-adv-x="1382" 
d="M248 0v1393h553q97 0 181 -29t149.5 -85.5t103 -149t37.5 -211.5q0 -107 -38 -196t-102.5 -148t-149.5 -91t-181 -32h-512v-451h-41zM799 1352h-510v-860h510q184 0 308 115t124 311q0 109 -34 193.5t-94 136t-137 78t-167 26.5z" />
    <glyph glyph-name="Q" unicode="Q" horiz-adv-x="1728" 
d="M1751 -285l12 -45q-115 -39 -256 -39q-100 0 -194.5 35t-162 85t-122.5 100.5t-98 88t-68 40.5q-201 0 -365 93t-257 256.5t-93 364.5q0 152 54.5 285.5t149.5 228.5t227.5 150t283.5 55q152 0 285.5 -55t228.5 -150t150 -228.5t55 -285.5q0 -187 -81.5 -342.5t-226 -252
t-327.5 -115.5q25 -18 73.5 -63.5t93.5 -82.5t105 -76t134 -61.5t155 -22.5q135 0 244 37zM188 694q0 -143 51 -268t140.5 -214.5t214.5 -140.5t268 -51q193 0 348 87.5t242.5 241.5t87.5 345q0 193 -87.5 348t-242.5 242.5t-348 87.5q-191 0 -345 -87.5t-241.5 -242.5
t-87.5 -348z" />
    <glyph glyph-name="R" unicode="R" horiz-adv-x="1546" 
d="M248 0v1393h590q90 0 169.5 -27t142.5 -78.5t99.5 -135t36.5 -189.5q0 -128 -64.5 -226.5t-165.5 -148t-218 -49.5h-99q33 -31 89 -102t110 -137.5t118 -132.5t136 -106.5t141 -40.5q91 0 197 54l12 -41q-104 -53 -209 -53q-72 0 -145.5 36t-131.5 91t-117.5 123
t-104 128.5t-89 111.5t-75.5 69h-381v-539h-41zM838 1352h-549v-772h549q109 0 200 43.5t149 132.5t58 207q0 98 -33.5 174t-90.5 122t-129 69.5t-154 23.5z" />
    <glyph glyph-name="S" unicode="S" horiz-adv-x="1304" 
d="M770 664l-317 71q-143 32 -225.5 109t-82.5 198q0 72 33 136.5t96 117.5t166.5 84t233.5 31q126 0 253 -33.5t208 -79.5l-19 -41q-70 44 -198 78.5t-244 34.5q-121 0 -216.5 -28t-153.5 -75t-88 -104.5t-30 -120.5q0 -104 70.5 -171t202.5 -97l321 -74q92 -21 157.5 -47
t117.5 -64.5t78 -92.5t26 -125q0 -181 -147 -286t-387 -105q-132 0 -256 37.5t-201 84.5l14 39q77 -44 198 -82.5t245 -38.5q217 0 355 95.5t138 255.5q0 114 -85.5 184t-262.5 109z" />
    <glyph glyph-name="T" unicode="T" horiz-adv-x="1269" 
d="M1229 1352h-553v-1352h-41v1352h-594v41h1188v-41z" />
    <glyph glyph-name="U" unicode="U" horiz-adv-x="1597" 
d="M268 1393v-844q0 -119 31.5 -215t94.5 -168t165.5 -111t237.5 -39q109 0 197.5 28t150 76.5t103.5 116.5t61.5 146.5t19.5 167.5v842h41v-844q0 -117 -35.5 -219.5t-104.5 -182.5t-180.5 -126t-252.5 -46q-280 0 -425 156.5t-145 417.5v844h41z" />
    <glyph glyph-name="V" unicode="V" horiz-adv-x="1376" 
d="M1325 1393l-627 -1393h-41l-585 1393h41l565 -1346l606 1346h41z" />
    <glyph glyph-name="W" unicode="W" horiz-adv-x="2160" 
d="M1442 0l-361 854l-383 -854h-41l-585 1393h41l565 -1346l385 854l-207 492h41l565 -1346l606 1346h41l-626 -1393h-41z" />
    <glyph glyph-name="X" unicode="X" horiz-adv-x="1376" 
d="M1300 1393v-7l-583 -690l583 -690v-6h-47l-565 664l-565 -664h-47v6l581 690l-581 690v7h47l565 -664l565 664h47z" />
    <glyph glyph-name="Y" unicode="Y" horiz-adv-x="1339" 
d="M649 0v612l-606 774v7h45l582 -742l581 742h45v-7l-606 -772v-614h-41z" />
    <glyph glyph-name="Z" unicode="Z" horiz-adv-x="1208" 
d="M111 41l936 1311h-936v41h987v-41l-936 -1311h936v-41h-987v41z" />
    <glyph glyph-name="bracketleft" unicode="[" horiz-adv-x="614" 
d="M565 -385h-354v1839h354v-41h-313v-1755h313v-43z" />
    <glyph glyph-name="backslash" unicode="\" horiz-adv-x="978" 
d="M135 1393l754 -1387v-6h-45l-754 1386v7h45z" />
    <glyph glyph-name="bracketright" unicode="]" horiz-adv-x="614" 
d="M49 1454h354v-1839h-354v43h313v1755h-313v41z" />
    <glyph glyph-name="asciicircum" unicode="^" 
d="M586 1393h41l374 -527v-6h-45l-350 496l-340 -496h-45v6z" />
    <glyph glyph-name="underscore" unicode="_" horiz-adv-x="1617" 
d="M297 -100h1024v-43h-1024v43z" />
    <glyph glyph-name="grave" unicode="`" 
d="M688 1257l-170 261h51l170 -261h-51z" />
    <glyph glyph-name="a" unicode="a" horiz-adv-x="1378" 
d="M1096 1071v-899q0 -75 26.5 -113.5t87.5 -38.5q52 0 127 52l19 -35q-71 -57 -146 -57t-112 41.5t-43 121.5q-69 -70 -172 -116.5t-219 -46.5q-242 0 -389.5 153t-147.5 397q0 247 147.5 403.5t389.5 156.5q115 0 217 -48t174 -120v149h41zM1055 197v673
q-64 74 -167.5 126.5t-223.5 52.5q-223 0 -359.5 -145.5t-136.5 -373.5q0 -225 136 -367.5t360 -142.5q119 0 222.5 52t168.5 125z" />
    <glyph glyph-name="b" unicode="b" horiz-adv-x="1308" 
d="M1182 537q0 -246 -147.5 -401.5t-389.5 -155.5q-117 0 -219.5 45.5t-173.5 115.5v-141h-41v1454h41v-530q71 71 174 118.5t219 47.5q242 0 389.5 -154t147.5 -399zM1141 537q0 226 -136.5 369t-359.5 143q-119 0 -224.5 -54t-168.5 -127v-669q62 -74 167 -126.5
t226 -52.5q222 0 359 144.5t137 372.5z" />
    <glyph glyph-name="c" unicode="c" horiz-adv-x="1253" 
d="M1102 160l22 -39q-193 -150 -430 -150q-147 0 -258 42t-177.5 118.5t-99 176.5t-32.5 224q0 164 67 292.5t194.5 202t295.5 73.5q207 0 324 -107t125 -288l-41 -11q-8 169 -113 267t-295 98q-237 0 -376.5 -147.5t-139.5 -379.5q0 -115 29.5 -207.5t90.5 -163.5
t164.5 -110t241.5 -39q205 0 408 148z" />
    <glyph glyph-name="d" unicode="d" horiz-adv-x="1380" 
d="M1057 1454h41v-1286q0 -75 26 -111.5t88 -36.5q53 0 125 52l21 -35q-31 -25 -72 -41t-76 -16q-147 0 -153 165q-72 -72 -173.5 -118.5t-219.5 -46.5q-241 0 -389 156t-148 401t148 399t389 154q116 0 219 -47.5t174 -118.5v530zM168 537q0 -228 137 -372.5t361 -144.5
q121 0 224 52t167 127v669q-66 74 -169 127.5t-222 53.5q-224 0 -361 -143t-137 -369z" />
    <glyph glyph-name="e" unicode="e" horiz-adv-x="1273" 
d="M1098 154l26 -37q-184 -146 -430 -146q-146 0 -258 44.5t-178.5 123t-99.5 177.5t-33 216q0 155 65.5 283t193 206.5t294.5 78.5q118 0 209.5 -35.5t146.5 -98t83 -142t28 -171.5q0 -78 -17 -141h-964q2 -83 22 -156.5t61.5 -137.5t102 -110t148.5 -72t196 -26
q220 0 404 144zM1096 553q8 62 8 100q0 82 -25 153.5t-75 129t-134 90.5t-192 33q-153 0 -270.5 -70t-179 -184t-64.5 -252h932z" />
    <glyph glyph-name="f" unicode="f" horiz-adv-x="899" 
d="M90 956v41h244v127q0 161 76 256t235 95q95 0 162 -40.5t106 -95.5l-28 -26q-93 121 -240 121q-142 0 -206 -83.5t-64 -226.5v-127h456v-41h-456v-956h-41v956h-244z" />
    <glyph glyph-name="g" unicode="g" horiz-adv-x="1308" 
d="M129 573q0 106 38.5 200.5t107.5 164.5t170.5 111t220.5 41q115 0 217.5 -47.5t173.5 -118.5v147h41v-1001q0 -111 -36 -202t-97.5 -150t-142 -91.5t-171.5 -32.5q-37 0 -73 4t-63.5 9t-58.5 16t-49 17.5t-44.5 20.5t-35.5 19t-32 19.5t-25 15.5l17 43q34 -23 60.5 -38.5
t74.5 -38t106.5 -34.5t122.5 -12q81 0 154 29.5t129.5 83t89.5 136.5t33 184v157q-72 -70 -174 -117t-217 -47q-119 0 -221 40.5t-170.5 110t-107 163t-38.5 198.5zM170 573q0 -129 60.5 -236t174.5 -171t261 -64q118 0 222.5 52t168.5 125v589q-65 75 -168.5 128t-222.5 53
q-147 0 -261 -65t-174.5 -173t-60.5 -238z" />
    <glyph glyph-name="h" unicode="h" horiz-adv-x="1363" 
d="M211 1454h41v-625q56 125 165 193t259 68q200 0 308 -131.5t108 -342.5v-444q0 -75 26.5 -113.5t87.5 -38.5q52 0 127 52l19 -35q-71 -57 -146 -57q-155 0 -155 192v444q0 124 -39.5 220t-125.5 154.5t-210 58.5q-163 0 -277 -91.5t-147 -236.5v-721h-41v1454z" />
    <glyph glyph-name="i" unicode="i" horiz-adv-x="548" 
d="M256 1071v-899q0 -152 115 -152q53 0 125 52l20 -35q-71 -57 -147 -57q-154 0 -154 192v899h41zM193 1378q0 54 45 54q41 0 41 -54q0 -53 -41 -53q-45 0 -45 53z" />
    <glyph glyph-name="j" unicode="j" horiz-adv-x="462" 
d="M252 1071v-1065q0 -290 -272 -409l-17 34q79 41 130.5 87t84.5 119.5t33 170.5v1063h41zM190 1378q0 54 43 54q41 0 41 -54q0 -53 -41 -53q-43 0 -43 53z" />
    <glyph glyph-name="k" unicode="k" horiz-adv-x="1185" 
d="M1034 1071h41q-49 -206 -149.5 -329.5t-249.5 -184.5l428 -551v-6h-55l-412 543q-159 -54 -385 -54v-489h-41v1454h41v-924q119 1 214 14.5t189.5 49.5t164.5 95t126.5 155.5t87.5 226.5z" />
    <glyph glyph-name="l" unicode="l" horiz-adv-x="581" 
d="M209 1454h41v-1261q0 -90 41.5 -131.5t111.5 -41.5q71 0 146 52l20 -35q-71 -57 -166 -57q-89 0 -141.5 52t-52.5 158v1264z" />
    <glyph glyph-name="m" unicode="m" horiz-adv-x="2125" 
d="M211 1071h41v-256q55 128 157 201.5t248 73.5q301 0 381 -299q48 135 155.5 217t262.5 82q101 0 178 -36t124.5 -100.5t71 -149.5t23.5 -188v-444q0 -75 26 -113.5t87 -38.5q52 0 127 52l21 -35q-31 -25 -72 -41t-76 -16q-154 0 -154 192v444q0 93 -20.5 170t-62 137
t-112 93t-163.5 33q-159 0 -263.5 -100t-137.5 -251v-698h-41v616q0 128 -35 222.5t-116.5 152.5t-205.5 58q-159 0 -263.5 -99t-139.5 -250v-700h-41v1071z" />
    <glyph glyph-name="n" unicode="n" horiz-adv-x="1363" 
d="M211 1071h41v-242q56 125 165 193t259 68q200 0 308 -131.5t108 -342.5v-444q0 -75 26.5 -113.5t87.5 -38.5q52 0 127 52l19 -35q-71 -57 -146 -57q-155 0 -155 192v444q0 124 -39.5 220t-125.5 154.5t-210 58.5q-163 0 -277 -91.5t-147 -236.5v-721h-41v1071z" />
    <glyph glyph-name="o" unicode="o" horiz-adv-x="1380" 
d="M125 532q0 246 158 407t405 161q250 0 408.5 -161t158.5 -407q0 -243 -158.5 -402t-408.5 -159q-247 0 -405 159t-158 402zM166 532q0 -224 146.5 -372t375.5 -148q231 0 378.5 147.5t147.5 372.5q0 228 -147.5 377.5t-378.5 149.5q-229 0 -375.5 -150t-146.5 -377z" />
    <glyph glyph-name="p" unicode="p" horiz-adv-x="1380" 
d="M324 -385h-41v1286q0 77 -26.5 114.5t-88.5 37.5q-56 0 -127 -52l-18 35q72 58 145 58q77 0 114 -43t42 -127q71 71 173 118.5t218 47.5q242 0 390 -155.5t148 -402.5q0 -244 -148 -398t-390 -154q-117 0 -219.5 46t-171.5 115v-526zM715 1049q-121 0 -224.5 -54
t-166.5 -129v-669q62 -73 166.5 -125t224.5 -52q224 0 360.5 143t136.5 369q0 228 -136.5 372.5t-360.5 144.5z" />
    <glyph glyph-name="q" unicode="q" horiz-adv-x="1306" 
d="M127 532q0 247 147.5 402.5t389.5 155.5q115 0 217 -48t174 -120v149h41v-1456h-41v526q-71 -69 -173.5 -115t-217.5 -46q-242 0 -389.5 154t-147.5 398zM664 20q118 0 222.5 52t168.5 125v669q-64 76 -167.5 129.5t-223.5 53.5q-224 0 -360 -144.5t-136 -372.5
q0 -226 136 -369t360 -143z" />
    <glyph glyph-name="r" unicode="r" horiz-adv-x="882" 
d="M285 0v897q0 152 -115 152q-54 0 -127 -50l-18 33q68 58 145 58q156 0 156 -191v-94q49 134 124 209.5t191 75.5q73 0 120 -25.5t79 -77.5l-31 -24q-31 47 -68.5 66.5t-97.5 19.5q-53 0 -98 -21t-77 -54t-60 -83t-46 -98t-36 -109v-684h-41z" />
    <glyph glyph-name="s" unicode="s" horiz-adv-x="1056" 
d="M915 1010l-12 -41q-64 32 -163 56t-191 24q-172 0 -280.5 -77t-108.5 -196q0 -90 53.5 -128.5t185.5 -67.5l256 -56q136 -29 207.5 -82t71.5 -153q0 -134 -105.5 -221.5t-291.5 -87.5q-212 0 -387 92l14 43q171 -95 373 -95q167 0 261.5 77.5t94.5 189.5q0 85 -62.5 128
t-183.5 70l-256 56q-71 15 -115.5 31t-83 42t-56 66t-17.5 96q0 138 117 226t313 88q94 0 199.5 -24.5t166.5 -55.5z" />
    <glyph glyph-name="t" unicode="t" horiz-adv-x="917" 
d="M283 1343h41v-272h479v-41h-481v-756q0 -122 60 -188t175 -66q68 0 147.5 25.5t133.5 65.5l22 -37q-142 -94 -305 -94q-131 0 -202.5 75.5t-71.5 216.5v758h-228v41h230v272z" />
    <glyph glyph-name="u" unicode="u" horiz-adv-x="1355" 
d="M1032 1071h41v-899q0 -152 113 -152q52 0 127 52l20 -35q-71 -57 -147 -57q-154 0 -154 192v72q-56 -121 -166 -192.5t-258 -71.5q-200 0 -307.5 129.5t-107.5 339.5v622h40v-620q0 -193 95.5 -312t279.5 -119q162 0 275.5 92.5t148.5 237.5v721z" />
    <glyph glyph-name="v" unicode="v" horiz-adv-x="1406" 
d="M295 449v450q0 77 -26.5 114.5t-88.5 37.5q-54 0 -127 -50l-18 33q68 58 145 58q156 0 156 -193v-450q0 -202 114.5 -315.5t303.5 -113.5q193 0 321.5 132.5t128.5 351.5q0 269 -110 567h41q110 -287 110 -567q0 -116 -39 -215t-105.5 -166.5t-156 -105t-190.5 -37.5
q-204 0 -331.5 126.5t-127.5 342.5z" />
    <glyph glyph-name="w" unicode="w" horiz-adv-x="2160" 
d="M1126 1071h41v-622q0 -193 99 -311t280 -118q99 0 178.5 39t130 106t77 153.5t26.5 185.5q0 266 -111 567h41q111 -289 111 -567q0 -237 -125 -380.5t-328 -143.5q-167 0 -262.5 76.5t-138.5 240.5q-45 -158 -155.5 -237.5t-274.5 -79.5q-204 0 -312 121.5t-108 347.5
v452q0 78 -25 115t-90 37q-56 0 -127 -52l-18 35q74 54 147 54q88 0 121 -51t33 -140v-450q0 -208 97 -318.5t282 -110.5q186 0 298.5 120t112.5 309v622z" />
    <glyph glyph-name="x" unicode="x" horiz-adv-x="1110" 
d="M1036 1071v-6l-452 -533l452 -526v-6h-53l-428 500l-426 -500h-55v6l450 526l-450 533v6h51l430 -504l432 504h49z" />
    <glyph glyph-name="y" unicode="y" horiz-adv-x="1153" 
d="M47 1071h45l512 -1024l453 1024h45l-522 -1188q-31 -70 -59.5 -117.5t-68.5 -89t-92.5 -62t-119.5 -20.5q-127 0 -244 76l16 41q51 -36 102 -56t126 -20q59 0 104 17t80 53t60.5 79.5t54.5 109.5l43 104z" />
    <glyph glyph-name="z" unicode="z" horiz-adv-x="1040" 
d="M100 41l787 989h-787v41h840v-41l-786 -989h786v-41h-840v41z" />
    <glyph glyph-name="braceleft" unicode="{" horiz-adv-x="528" 
d="M434 1454v-41h-55q-82 0 -132 -46.5t-50 -119.5q0 -57 35.5 -153.5t71.5 -202t36 -182.5q0 -80 -31.5 -121t-109.5 -58q79 -17 110 -58.5t31 -127.5q0 -60 -22.5 -139t-49 -143t-49 -135t-22.5 -117q0 -73 50 -119.5t132 -46.5h55v-41h-57q-59 0 -104 18.5t-69.5 49.5
t-36 66t-11.5 73q0 50 22.5 121t49 133.5t49 141.5t22.5 142q0 162 -188 162v41q188 0 188 158q0 63 -22.5 142t-49 141.5t-49 133.5t-22.5 121q0 38 11.5 73t36 66t69.5 49.5t104 18.5h57z" />
    <glyph glyph-name="bar" unicode="|" horiz-adv-x="464" 
d="M211 -385v1839h41v-1839h-41z" />
    <glyph glyph-name="braceright" unicode="}" horiz-adv-x="528" 
d="M94 1454h58q59 0 104 -18.5t69.5 -49.5t36 -66t11.5 -73q0 -61 -36 -157t-72 -199t-36 -182q0 -158 189 -158v-41q-189 0 -189 -162q0 -79 36 -182t72 -199t36 -157q0 -38 -11.5 -73t-36 -66t-69.5 -49.5t-104 -18.5h-58v41h56q82 0 132 46.5t50 119.5q0 57 -36 153.5
t-72 201t-36 179.5q0 85 31.5 127t110.5 59q-78 17 -110 58.5t-32 120.5q0 77 36 182.5t72 202t36 153.5q0 73 -50 119.5t-132 46.5h-56v41z" />
    <glyph glyph-name="asciitilde" unicode="~" horiz-adv-x="1034" 
d="M825 694l37 -8q-11 -82 -55.5 -132t-116.5 -50q-38 0 -76 20t-69.5 49t-62.5 58t-67 49t-71 20q-49 0 -88 -38t-45 -111l-37 8q6 76 51.5 129t118.5 53q37 0 76 -20t72 -49t65.5 -58t67 -49t65.5 -20q115 0 135 149z" />
    <glyph glyph-name="uni00A0" unicode="&#xa0;" horiz-adv-x="512" 
 />
    <glyph glyph-name="exclamdown" unicode="&#xa1;" horiz-adv-x="489" 
d="M266 616v-938h-43v938h43zM315 1020q0 -80 -69 -80q-35 0 -54.5 21t-19.5 59q0 80 74 80q69 0 69 -80z" />
    <glyph glyph-name="cent" unicode="&#xa2;" 
d="M1085 160l23 -39q-193 -150 -430 -150q-58 0 -129 11l-70 -254l-39 10l70 250q-104 21 -181.5 70.5t-124.5 121.5t-70 160t-23 192q0 164 67 292.5t194.5 202t295.5 73.5q72 0 145 -17l59 211l39 -10l-59 -213q122 -41 190 -136t74 -230l-41 -11q-6 125 -65.5 212.5
t-169.5 125.5l-281 -1012q49 -8 119 -8q204 0 407 148zM152 532q0 -200 89.5 -333.5t278.5 -171.5l283 1015q-70 17 -135 17q-237 0 -376.5 -147.5t-139.5 -379.5z" />
    <glyph glyph-name="sterling" unicode="&#xa3;" 
d="M928 694h-529q4 -20 13.5 -63.5t13 -62t11.5 -60.5t10 -59t7 -57.5t3 -56t-2 -54.5q33 -19 90.5 -66t105.5 -88t107.5 -74t105.5 -33q228 0 228 394h38q0 -204 -66.5 -319t-199.5 -115q-54 0 -118 32t-110.5 71.5t-101.5 85t-83 62.5q-31 -251 -201 -251q-74 0 -114 45.5
t-40 121.5q0 79 54.5 131t142.5 52q32 0 68.5 -10t52.5 -21q0 34 1 49.5t-3.5 52.5t-7 55t-10 56.5t-12 58.5t-13 60.5t-13.5 62.5h-213v41h205q-31 174 -31 283q0 174 98 284.5t281 110.5q61 0 119 -17t98 -40.5t76 -55t54 -52t32 -40.5l-33 -30q-2 3 -8 10q-23 29 -38 46
t-48.5 47t-65.5 47t-81.5 30.5t-104.5 13.5q-164 0 -251 -98t-87 -256q0 -118 33 -283h537v-41zM291 289q-65 0 -109.5 -39t-44.5 -103q0 -56 26.5 -91.5t86.5 -35.5q53 0 87.5 33.5t49.5 81t23 117.5q-56 37 -119 37z" />
    <glyph glyph-name="currency" unicode="&#xa4;" horiz-adv-x="1148" 
d="M924 997l30 -30l-125 -123q82 -95 82 -228q0 -129 -80 -225l123 -121l-30 -30l-123 122q-91 -81 -230 -81q-134 0 -227 77l-117 -118l-30 30l118 117q-84 94 -84 229q0 138 84 232l-118 119l30 30l119 -120q92 79 225 79q140 0 230 -84zM272 616q0 -128 84 -211t215 -83
q133 0 216 83t83 211q0 130 -83.5 214.5t-215.5 84.5q-131 0 -215 -84.5t-84 -214.5z" />
    <glyph glyph-name="yen" unicode="&#xa5;" 
d="M1024 371h-389v-371h-41v371h-387v41h387v182h-387v41h373l-469 751v7h45l458 -738l457 738h47v-7l-471 -751h377v-41h-389v-182h389v-41z" />
    <glyph glyph-name="brokenbar" unicode="&#xa6;" horiz-adv-x="489" 
d="M266 768h-43v686h43v-686zM223 326h43v-711h-43v711z" />
    <glyph glyph-name="section" unicode="&#xa7;" horiz-adv-x="1349" 
d="M190 -109l13 39q226 -90 467 -90q133 0 238.5 26.5t169 81t63.5 130.5q0 35 -14.5 62t-37.5 45.5t-63.5 33.5t-80.5 24.5t-101 20.5l-369 66q-163 30 -235 93t-72 181q0 107 82 192t246 113l-105 17q-40 6 -75.5 19.5t-68 36.5t-52 60.5t-19.5 85.5q0 116 131 200.5
t361 84.5q265 0 485 -90l-14 -39q-78 35 -206.5 62.5t-264.5 27.5q-210 0 -330.5 -74t-120.5 -172q0 -136 184 -163l400 -60q178 -27 279.5 -107t101.5 -206q0 -110 -83.5 -186.5t-234.5 -102.5q73 -13 125 -28.5t99 -41t70.5 -64.5t23.5 -91q0 -87 -68.5 -151.5t-183.5 -96
t-260 -31.5q-254 0 -480 92zM793 866l-166 25q-109 -1 -192.5 -27.5t-131 -69t-71 -90.5t-23.5 -100q0 -100 61 -154.5t211 -80.5l238 -41q194 2 308 72t114 192q0 108 -88 178t-260 96z" />
    <glyph glyph-name="dieresis" unicode="&#xa8;" 
d="M334 1378q0 54 45 54q41 0 41 -54q0 -53 -41 -53q-45 0 -45 53zM838 1378q0 54 45 54q41 0 41 -54q0 -53 -41 -53q-45 0 -45 53z" />
    <glyph glyph-name="copyright" unicode="&#xa9;" horiz-adv-x="1740" 
d="M154 694q0 203 93 368t256.5 258t364.5 93q152 0 285.5 -55t228.5 -150t150 -228.5t55 -285.5q0 -201 -93 -364.5t-258 -256.5t-368 -93q-201 0 -364.5 93t-256.5 256.5t-93 364.5zM195 694q0 -189 88 -343.5t242 -242.5t343 -88q143 0 269 52t215.5 141t141.5 214.5
t52 266.5q0 143 -52 269t-141.5 215.5t-215.5 141.5t-269 52q-189 0 -343 -88t-242 -243.5t-88 -346.5zM1135 479l24 -30q-51 -48 -127.5 -80.5t-159.5 -32.5q-156 0 -253 96t-97 262t97 262.5t253 96.5q132 0 207 -70t78 -192l-37 -9q-3 110 -67.5 171t-180.5 61
q-139 0 -224 -85.5t-85 -234.5t85.5 -234t225.5 -85q72 0 143.5 30.5t117.5 73.5z" />
    <glyph glyph-name="ordfeminine" unicode="&#xaa;" horiz-adv-x="999" 
d="M258 1323l-10 41q39 20 103 32.5t114 12.5q114 0 168.5 -51.5t54.5 -157.5v-338q0 -86 66 -86q29 0 73 29l11 -35q-46 -33 -93 -33q-86 0 -98 92q-96 -92 -225 -92q-107 0 -172.5 55t-65.5 154q0 114 89.5 172t234.5 58q65 0 139 -19v41q0 90 -43 130t-139 40
q-119 0 -207 -45zM201 539h604v-41h-604v41zM225 946q0 -76 53.5 -122t143.5 -46q125 0 225 96v242q-55 19 -139 19q-129 0 -206 -46t-77 -143z" />
    <glyph glyph-name="guillemotleft" unicode="&#xab;" horiz-adv-x="997" 
d="M115 612v17l321 397h6l15 -33l-299 -372l301 -373l-17 -33h-6zM500 612v17l321 397h6l15 -33l-299 -372l301 -373l-17 -33h-6z" />
    <glyph glyph-name="logicalnot" unicode="&#xac;" 
d="M1026 289v432h-866v41h907v-473h-41z" />
    <glyph glyph-name="uni00AD" unicode="&#xad;" horiz-adv-x="1064" 
d="M172 641h721v-43h-721v43z" />
    <glyph glyph-name="registered" unicode="&#xae;" horiz-adv-x="1740" 
d="M154 694q0 203 93 368t256.5 258t364.5 93q152 0 285.5 -55t228.5 -150t150 -228.5t55 -285.5q0 -201 -93 -364.5t-258 -256.5t-368 -93q-201 0 -364.5 93t-256.5 256.5t-93 364.5zM195 694q0 -189 88 -343.5t242 -242.5t343 -88q143 0 269 52t215.5 141t141.5 214.5
t52 266.5q0 143 -52 269t-141.5 215.5t-215.5 141.5t-269 52q-189 0 -343 -88t-242 -243.5t-88 -346.5zM602 346v696h219q53 0 91 -3t83 -15.5t72.5 -35t46.5 -64t19 -99.5q0 -199 -265 -211q18 -18 57 -65t69.5 -82t74.5 -64.5t84 -29.5q42 0 96 26l8 -37q-54 -26 -106 -26
q-44 0 -88 24.5t-79.5 62t-66.5 75.5t-60 71.5t-48 44.5h-166v-268h-41zM903 1006h-260v-359h260q80 0 134.5 47.5t54.5 128.5q0 89 -55 136t-134 47z" />
    <glyph glyph-name="macron" unicode="&#xaf;" 
d="M862 1337h-469v41h469v-41z" />
    <glyph glyph-name="degree" unicode="&#xb0;" horiz-adv-x="937" 
d="M129 1071q0 147 95.5 243.5t244.5 96.5q150 0 245 -96.5t95 -243.5q0 -146 -95 -241t-245 -95q-149 0 -244.5 95.5t-95.5 240.5zM170 1071q0 -128 84 -211.5t215 -83.5q133 0 216 83t83 212q0 130 -83.5 214.5t-215.5 84.5q-131 0 -215 -84.5t-84 -214.5z" />
    <glyph glyph-name="plusminus" unicode="&#xb1;" 
d="M635 1294v-432h432v-41h-432v-370h-41v370h-432v41h432v432h41zM162 248h905v-41h-905v41z" />
    <glyph glyph-name="twosuperior" unicode="&#xb2;" horiz-adv-x="647" 
d="M559 981h-457v37l273 205q63 47 93 92.5t30 101.5q0 71 -45 116.5t-131 45.5q-89 0 -138 -49t-51 -127l-39 4q2 95 62 153t166 58q105 0 160 -55t55 -142q0 -124 -136 -225l-237 -178h395v-37z" />
    <glyph glyph-name="threesuperior" unicode="&#xb3;" horiz-adv-x="655" 
d="M166 1323h172q71 0 113.5 39t42.5 90q0 127 -189 127q-62 0 -102.5 -11t-91.5 -36l-13 37q106 49 207 49q103 0 165 -43.5t62 -120.5q0 -56 -31 -98t-89 -49q69 -11 106 -50.5t37 -105.5q0 -83 -69.5 -131.5t-180.5 -48.5q-21 0 -41.5 1.5t-39.5 5.5t-34 7t-32 8.5t-25 8
t-23 8t-16 6.5l12 37q95 -43 199 -43q90 0 150.5 39t60.5 106q0 60 -46.5 95.5t-131.5 35.5h-172v37z" />
    <glyph glyph-name="acute" unicode="&#xb4;" 
d="M739 1518l-170 -261h-51l170 261h51z" />
    <glyph glyph-name="mu" unicode="&#xb5;" horiz-adv-x="1288" 
d="M270 1071v-620q0 -193 95.5 -312t279.5 -119q162 0 275.5 92.5t148.5 237.5v721h41v-1071h-41v244q-56 -121 -166 -192.5t-258 -71.5q-139 0 -234 63.5t-141 175.5v-604h-41v1456h41z" />
    <glyph glyph-name="paragraph" unicode="&#xb6;" horiz-adv-x="983" 
d="M459 1071v-1456h-43v1053h-115q-92 0 -150.5 53t-58.5 147q0 95 58 148t151 55h158zM702 -385v1456h43v-1456h-43z" />
    <glyph glyph-name="periodcentered" unicode="&#xb7;" horiz-adv-x="479" 
d="M172 614q0 76 66 76q69 0 69 -76q0 -75 -69 -75q-66 0 -66 75z" />
    <glyph glyph-name="cedilla" unicode="&#xb8;" 
d="M485 -195l50 195h40l-36 -150q45 9 75 9q76 0 121 -33.5t45 -89.5q0 -67 -54 -104.5t-134 -37.5q-72 0 -143 27l12 39q70 -25 131 -25q66 0 106.5 25.5t40.5 75.5q0 39 -32.5 60.5t-94.5 21.5q-56 0 -123 -19z" />
    <glyph glyph-name="onesuperior" unicode="&#xb9;" horiz-adv-x="483" 
d="M43 1487l262 119h39v-627h-39v586l-246 -113z" />
    <glyph glyph-name="ordmasculine" unicode="&#xba;" horiz-adv-x="1044" 
d="M182 1071q0 147 95.5 243.5t244.5 96.5q150 0 245 -96.5t95 -243.5q0 -146 -95 -241t-245 -95q-149 0 -244.5 95.5t-95.5 240.5zM223 1071q0 -128 84 -211.5t215 -83.5q132 0 215.5 83t83.5 212q0 130 -83.5 214.5t-215.5 84.5q-131 0 -215 -84.5t-84 -214.5zM221 539
h604v-41h-604v41z" />
    <glyph glyph-name="guillemotright" unicode="&#xbb;" horiz-adv-x="997" 
d="M498 629v-17l-322 -397h-6l-14 33l299 373l-301 372l16 33h6zM883 629v-17l-322 -397h-6l-14 33l299 373l-301 372l16 33h6z" />
    <glyph glyph-name="onequarter" unicode="&#xbc;" horiz-adv-x="1480" 
d="M1397 145h-150v-145h-39v145h-395v37l395 445h39v-445h150v-37zM862 182h346v385zM248 6l753 1387h41v-7l-753 -1386h-41v6zM78 1282l262 119h39v-627h-39v586l-246 -113z" />
    <glyph glyph-name="onehalf" unicode="&#xbd;" horiz-adv-x="1411" 
d="M248 6l753 1387h41v-7l-753 -1386h-41v6zM842 0v37l272 205q63 47 93 92.5t30 101.5q0 71 -45 116.5t-131 45.5q-89 0 -138 -49t-51 -127l-38 4q2 95 61.5 153t165.5 58q105 0 160 -55t55 -142q0 -65 -32.5 -119t-102.5 -106l-238 -178h395v-37h-456zM78 1272l262 119h39
v-627h-39v586l-246 -113z" />
    <glyph glyph-name="threequarters" unicode="&#xbe;" horiz-adv-x="1638" 
d="M1556 145h-149v-145h-39v145h-395v37l395 445h39v-445h149v-37zM1022 182h346v385zM201 1118h172q71 0 113 39t42 90q0 127 -188 127q-62 0 -103 -11t-92 -36l-12 37q106 49 207 49q103 0 165 -43.5t62 -120.5q0 -56 -31.5 -98t-89.5 -49q69 -11 106.5 -50.5t37.5 -105.5
q0 -83 -69.5 -131.5t-180.5 -48.5q-21 0 -41.5 1.5t-39.5 5.5t-34 7t-32 8.5t-25 8t-23 8t-16 6.5l12 37q95 -43 199 -43q90 0 150.5 39t60.5 106q0 60 -46.5 95.5t-131.5 35.5h-172v37zM408 6l753 1387h41v-7l-753 -1386h-41v6z" />
    <glyph glyph-name="questiondown" unicode="&#xbf;" horiz-adv-x="964" 
d="M528 616h43q7 -31 7 -57q0 -52 -25.5 -89t-79.5 -77l-125 -96q-43 -33 -68.5 -56.5t-53.5 -60t-41 -81.5t-13 -101q0 -136 93.5 -218.5t232.5 -82.5q234 0 327 190l39 -24q-104 -207 -366 -207q-159 0 -263 95t-104 247q0 38 6.5 73t14 59.5t26.5 53t29.5 42.5t38 39.5
t37 33t41.5 33.5l129 100q51 39 67.5 63.5t16.5 63.5q0 23 -9 57zM616 1020q0 -80 -69 -80q-35 0 -54.5 21t-19.5 59q0 80 74 80q69 0 69 -80z" />
    <glyph glyph-name="Agrave" unicode="&#xc0;" horiz-adv-x="1380" 
d="M53 0l627 1393h41l586 -1393h-41l-160 377h-842l-170 -377h-41zM698 1346l-415 -928h807zM676 1579l-170 260h51l170 -260h-51z" />
    <glyph glyph-name="Aacute" unicode="&#xc1;" horiz-adv-x="1380" 
d="M53 0l627 1393h41l586 -1393h-41l-160 377h-842l-170 -377h-41zM698 1346l-415 -928h807zM870 1839l-170 -260h-51l170 260h51z" />
    <glyph glyph-name="Acircumflex" unicode="&#xc2;" horiz-adv-x="1380" 
d="M53 0l627 1393h41l586 -1393h-41l-160 377h-842l-170 -377h-41zM698 1346l-415 -928h807zM895 1579l-197 221l-194 -221h-62l232 260h51l231 -260h-61z" />
    <glyph glyph-name="Atilde" unicode="&#xc3;" horiz-adv-x="1380" 
d="M53 0l627 1393h41l586 -1393h-41l-160 377h-842l-170 -377h-41zM698 1346l-415 -928h807zM412 1640l-29 27q28 50 72.5 86.5t101.5 36.5q32 0 73.5 -24t74.5 -52t70.5 -52t62.5 -24q90 0 145 109l29 -27q-27 -50 -72 -86.5t-100 -36.5q-33 0 -74.5 23.5t-74 52.5
t-70.5 52.5t-64 23.5q-85 0 -145 -109z" />
    <glyph glyph-name="Adieresis" unicode="&#xc4;" horiz-adv-x="1380" 
d="M53 0l627 1393h41l586 -1393h-41l-160 377h-842l-170 -377h-41zM698 1346l-415 -928h807zM403 1700q0 53 46 53q40 0 40 -53t-40 -53q-46 0 -46 53zM907 1700q0 53 45 53q41 0 41 -53t-41 -53q-45 0 -45 53z" />
    <glyph glyph-name="Aring" unicode="&#xc5;" horiz-adv-x="1380" 
d="M496 1554q0 83 58.5 142t141.5 59t142 -59t59 -142q0 -73 -46 -127.5t-116 -68.5l572 -1358h-41l-160 377h-842l-170 -377h-41l611 1356q-72 12 -120 68t-48 130zM698 1346l-415 -928h807zM537 1554q0 -66 46.5 -112.5t112.5 -46.5t113 46.5t47 112.5t-47 113t-113 47
t-112.5 -47t-46.5 -113z" />
    <glyph glyph-name="AE" unicode="&#xc6;" horiz-adv-x="2158" 
d="M967 0v377h-633l-254 -377h-51l938 1393h1028v-41h-987v-598h837v-41h-837v-672h987v-41h-1028zM362 418h605v899z" />
    <glyph glyph-name="Ccedilla" unicode="&#xc7;" horiz-adv-x="1564" 
d="M717 -195l45 179q-277 28 -442.5 215.5t-165.5 494.5q0 167 51 303t143 227t221 140t283 49q265 0 414 -140t155 -386l-39 -6q-6 232 -143.5 361.5t-386.5 129.5q-297 0 -477 -181.5t-180 -496.5q0 -313 180 -493.5t477 -180.5q151 0 298.5 63.5t242.5 154.5l30 -33
q-101 -96 -254 -160.5t-317 -64.5q-35 0 -51 2l-31 -132q45 9 76 9q76 0 121 -33.5t45 -89.5q0 -67 -54.5 -104.5t-134.5 -37.5q-73 0 -143 27l12 39q70 -25 131 -25q67 0 107.5 25.5t40.5 75.5q0 39 -32.5 60.5t-94.5 21.5q-56 0 -123 -19z" />
    <glyph glyph-name="Egrave" unicode="&#xc8;" horiz-adv-x="1439" 
d="M1276 0h-1028v1393h1028v-41h-987v-598h837v-41h-837v-672h987v-41zM737 1579l-170 260h51l170 -260h-51z" />
    <glyph glyph-name="Eacute" unicode="&#xc9;" horiz-adv-x="1439" 
d="M1276 0h-1028v1393h1028v-41h-987v-598h837v-41h-837v-672h987v-41zM940 1839l-170 -260h-51l170 260h51z" />
    <glyph glyph-name="Ecircumflex" unicode="&#xca;" horiz-adv-x="1439" 
d="M1276 0h-1028v1393h1028v-41h-987v-598h837v-41h-837v-672h987v-41zM956 1579l-196 221l-195 -221h-61l231 260h51l232 -260h-62z" />
    <glyph glyph-name="Edieresis" unicode="&#xcb;" horiz-adv-x="1439" 
d="M1276 0h-1028v1393h1028v-41h-987v-598h837v-41h-837v-672h987v-41zM465 1700q0 53 45 53q41 0 41 -53t-41 -53q-45 0 -45 53zM969 1700q0 53 45 53q41 0 41 -53t-41 -53q-45 0 -45 53z" />
    <glyph glyph-name="Igrave" unicode="&#xcc;" horiz-adv-x="536" 
d="M248 0v1393h41v-1393h-41zM262 1579l-170 260h51l170 -260h-51z" />
    <glyph glyph-name="Iacute" unicode="&#xcd;" horiz-adv-x="536" 
d="M248 0v1393h41v-1393h-41zM459 1839l-170 -260h-51l170 260h51z" />
    <glyph glyph-name="Icircumflex" unicode="&#xce;" horiz-adv-x="536" 
d="M248 0v1393h41v-1393h-41zM463 1579l-197 221l-194 -221h-62l232 260h51l231 -260h-61z" />
    <glyph glyph-name="Idieresis" unicode="&#xcf;" horiz-adv-x="536" 
d="M248 0v1393h41v-1393h-41zM-29 1700q0 53 45 53q41 0 41 -53t-41 -53q-45 0 -45 53zM475 1700q0 53 45 53q41 0 41 -53t-41 -53q-45 0 -45 53z" />
    <glyph glyph-name="Eth" unicode="&#xd0;" horiz-adv-x="1607" 
d="M248 0v682h-135v41h135v670h489q155 -1 286 -47t227.5 -132.5t151 -220t54.5 -299.5q0 -165 -54.5 -297.5t-151 -218.5t-227.5 -132t-286 -46h-489zM705 682h-416v-641h448q147 0 271 42.5t214.5 123.5t141.5 206t51 281q0 158 -51 283.5t-142 206.5t-214 124t-271 44
h-448v-629h416v-41z" />
    <glyph glyph-name="Ntilde" unicode="&#xd1;" horiz-adv-x="1703" 
d="M1415 0l-1126 1325v-1325h-41v1393h41l1126 -1332v1332h41v-1393h-41zM586 1640l-29 27q28 50 72.5 86.5t101.5 36.5q32 0 73.5 -24t74.5 -52t70.5 -52t62.5 -24q90 0 145 109l29 -27q-27 -50 -72 -86.5t-100 -36.5q-33 0 -74.5 23.5t-74 52.5t-70.5 52.5t-64 23.5
q-85 0 -145 -109z" />
    <glyph glyph-name="Ograve" unicode="&#xd2;" horiz-adv-x="1728" 
d="M147 694q0 152 54.5 285.5t149.5 228.5t227.5 150t283.5 55q152 0 285.5 -55t228.5 -150t150 -228.5t55 -285.5q0 -201 -93 -364.5t-258 -256.5t-368 -93q-201 0 -365 93t-257 256.5t-93 364.5zM188 694q0 -143 51 -268t140.5 -214.5t214.5 -140.5t268 -51
q193 0 348 87.5t242.5 241.5t87.5 345q0 193 -87.5 348t-242.5 242.5t-348 87.5q-191 0 -345 -87.5t-241.5 -242.5t-87.5 -348zM840 1579l-170 260h51l170 -260h-51z" />
    <glyph glyph-name="Oacute" unicode="&#xd3;" horiz-adv-x="1728" 
d="M147 694q0 152 54.5 285.5t149.5 228.5t227.5 150t283.5 55q152 0 285.5 -55t228.5 -150t150 -228.5t55 -285.5q0 -201 -93 -364.5t-258 -256.5t-368 -93q-201 0 -365 93t-257 256.5t-93 364.5zM188 694q0 -143 51 -268t140.5 -214.5t214.5 -140.5t268 -51
q193 0 348 87.5t242.5 241.5t87.5 345q0 193 -87.5 348t-242.5 242.5t-348 87.5q-191 0 -345 -87.5t-241.5 -242.5t-87.5 -348zM1055 1839l-170 -260h-51l170 260h51z" />
    <glyph glyph-name="Ocircumflex" unicode="&#xd4;" horiz-adv-x="1728" 
d="M147 694q0 152 54.5 285.5t149.5 228.5t227.5 150t283.5 55q152 0 285.5 -55t228.5 -150t150 -228.5t55 -285.5q0 -201 -93 -364.5t-258 -256.5t-368 -93q-201 0 -365 93t-257 256.5t-93 364.5zM188 694q0 -143 51 -268t140.5 -214.5t214.5 -140.5t268 -51
q193 0 348 87.5t242.5 241.5t87.5 345q0 193 -87.5 348t-242.5 242.5t-348 87.5q-191 0 -345 -87.5t-241.5 -242.5t-87.5 -348zM1057 1579l-197 221l-194 -221h-62l232 260h51l231 -260h-61z" />
    <glyph glyph-name="Otilde" unicode="&#xd5;" horiz-adv-x="1728" 
d="M147 694q0 152 54.5 285.5t149.5 228.5t227.5 150t283.5 55q152 0 285.5 -55t228.5 -150t150 -228.5t55 -285.5q0 -201 -93 -364.5t-258 -256.5t-368 -93q-201 0 -365 93t-257 256.5t-93 364.5zM188 694q0 -143 51 -268t140.5 -214.5t214.5 -140.5t268 -51
q193 0 348 87.5t242.5 241.5t87.5 345q0 193 -87.5 348t-242.5 242.5t-348 87.5q-191 0 -345 -87.5t-241.5 -242.5t-87.5 -348zM575 1640l-28 27q28 50 72.5 86.5t101.5 36.5q32 0 73.5 -24t74 -52t70 -52t62.5 -24q91 0 146 109l29 -27q-27 -50 -72 -86.5t-100 -36.5
q-33 0 -74.5 23.5t-74 52.5t-70.5 52.5t-64 23.5q-86 0 -146 -109z" />
    <glyph glyph-name="Odieresis" unicode="&#xd6;" horiz-adv-x="1728" 
d="M147 694q0 152 54.5 285.5t149.5 228.5t227.5 150t283.5 55q152 0 285.5 -55t228.5 -150t150 -228.5t55 -285.5q0 -201 -93 -364.5t-258 -256.5t-368 -93q-201 0 -365 93t-257 256.5t-93 364.5zM188 694q0 -143 51 -268t140.5 -214.5t214.5 -140.5t268 -51
q193 0 348 87.5t242.5 241.5t87.5 345q0 193 -87.5 348t-242.5 242.5t-348 87.5q-191 0 -345 -87.5t-241.5 -242.5t-87.5 -348zM567 1700q0 53 45 53q41 0 41 -53t-41 -53q-45 0 -45 53zM1071 1700q0 53 45 53q41 0 41 -53t-41 -53q-45 0 -45 53z" />
    <glyph glyph-name="multiply" unicode="&#xd7;" 
d="M948 924l-305 -306l305 -305l-28 -28l-306 305l-305 -305l-28 28l305 305l-305 306l28 28l305 -305l306 305z" />
    <glyph glyph-name="Oslash" unicode="&#xd8;" horiz-adv-x="1728" 
d="M147 694q0 152 54.5 285.5t149.5 228.5t227.5 150t283.5 55q251 0 443 -143l98 123h45v-7l-115 -141q117 -98 182.5 -240.5t65.5 -310.5q0 -201 -93 -364.5t-258 -256.5t-368 -93q-252 0 -438 141l-98 -121h-45v6l112 139q-116 98 -181 240.5t-65 308.5zM188 694
q0 -158 60.5 -292t169.5 -226l860 1063q-179 133 -416 133q-191 0 -345 -87.5t-241.5 -242.5t-87.5 -348zM1540 694q0 159 -61 293.5t-170 226.5l-860 -1062q178 -132 413 -132q193 0 348 87.5t242.5 241.5t87.5 345z" />
    <glyph glyph-name="Ugrave" unicode="&#xd9;" horiz-adv-x="1597" 
d="M268 1393v-844q0 -119 31.5 -215t94.5 -168t165.5 -111t237.5 -39q109 0 197.5 28t150 76.5t103.5 116.5t61.5 146.5t19.5 167.5v842h41v-844q0 -117 -35.5 -219.5t-104.5 -182.5t-180.5 -126t-252.5 -46q-280 0 -425 156.5t-145 417.5v844h41zM774 1579l-170 260h51
l170 -260h-51z" />
    <glyph glyph-name="Uacute" unicode="&#xda;" horiz-adv-x="1597" 
d="M268 1393v-844q0 -119 31.5 -215t94.5 -168t165.5 -111t237.5 -39q109 0 197.5 28t150 76.5t103.5 116.5t61.5 146.5t19.5 167.5v842h41v-844q0 -117 -35.5 -219.5t-104.5 -182.5t-180.5 -126t-252.5 -46q-280 0 -425 156.5t-145 417.5v844h41zM989 1839l-170 -260h-51
l170 260h51z" />
    <glyph glyph-name="Ucircumflex" unicode="&#xdb;" horiz-adv-x="1597" 
d="M268 1393v-844q0 -119 31.5 -215t94.5 -168t165.5 -111t237.5 -39q109 0 197.5 28t150 76.5t103.5 116.5t61.5 146.5t19.5 167.5v842h41v-844q0 -117 -35.5 -219.5t-104.5 -182.5t-180.5 -126t-252.5 -46q-280 0 -425 156.5t-145 417.5v844h41zM991 1579l-196 221
l-195 -221h-61l231 260h51l232 -260h-62z" />
    <glyph glyph-name="Udieresis" unicode="&#xdc;" horiz-adv-x="1597" 
d="M268 1393v-844q0 -119 31.5 -215t94.5 -168t165.5 -111t237.5 -39q109 0 197.5 28t150 76.5t103.5 116.5t61.5 146.5t19.5 167.5v842h41v-844q0 -117 -35.5 -219.5t-104.5 -182.5t-180.5 -126t-252.5 -46q-280 0 -425 156.5t-145 417.5v844h41zM502 1700q0 53 45 53
q41 0 41 -53t-41 -53q-45 0 -45 53zM1006 1700q0 53 45 53q41 0 41 -53t-41 -53q-45 0 -45 53z" />
    <glyph glyph-name="Yacute" unicode="&#xdd;" horiz-adv-x="1339" 
d="M649 0v612l-606 774v7h45l582 -742l581 742h45v-7l-606 -772v-614h-41zM860 1839l-170 -260h-51l170 260h51z" />
    <glyph glyph-name="Thorn" unicode="&#xde;" horiz-adv-x="1382" 
d="M248 0v1393h41v-246h512q100 0 181.5 -22.5t148.5 -71.5t104 -135.5t37 -204.5q0 -107 -37.5 -190t-103 -133.5t-149.5 -76.5t-181 -26h-512v-287h-41zM799 1106h-510v-778h510q91 0 167.5 22.5t136.5 68t94 121t34 173.5q0 108 -33.5 186.5t-94.5 122.5t-136 64t-168 20
z" />
    <glyph glyph-name="germandbls" unicode="&#xdf;" horiz-adv-x="1304" 
d="M662 1475q175 0 294 -106t119 -265q0 -58 -23.5 -113t-57.5 -94t-67.5 -71t-57 -57t-23.5 -40q0 -10 25.5 -29.5t64 -42.5t83.5 -59t83.5 -75.5t64 -95.5t25.5 -116q0 -155 -110.5 -243t-282.5 -88q-99 0 -181 21.5t-131 51.5l15 41q122 -74 297 -74q150 0 251 78.5
t101 212.5q0 58 -25.5 110t-64 88t-83.5 70t-83.5 57.5t-64 48t-25.5 44.5q0 23 23.5 52t57.5 60.5t67.5 68t57 87.5t23.5 107q0 146 -108.5 238t-263.5 92q-189 0 -299.5 -127.5t-110.5 -345.5v-961h-41v961q0 230 122.5 372t328.5 142z" />
    <glyph glyph-name="agrave" unicode="&#xe0;" horiz-adv-x="1378" 
d="M1096 1071v-899q0 -75 26.5 -113.5t87.5 -38.5q52 0 127 52l19 -35q-71 -57 -146 -57t-112 41.5t-43 121.5q-69 -70 -172 -116.5t-219 -46.5q-242 0 -389.5 153t-147.5 397q0 247 147.5 403.5t389.5 156.5q115 0 217 -48t174 -120v149h41zM1055 197v673
q-64 74 -167.5 126.5t-223.5 52.5q-223 0 -359.5 -145.5t-136.5 -373.5q0 -225 136 -367.5t360 -142.5q119 0 222.5 52t168.5 125zM690 1257l-170 261h51l170 -261h-51z" />
    <glyph glyph-name="aacute" unicode="&#xe1;" horiz-adv-x="1378" 
d="M1096 1071v-899q0 -75 26.5 -113.5t87.5 -38.5q52 0 127 52l19 -35q-71 -57 -146 -57t-112 41.5t-43 121.5q-69 -70 -172 -116.5t-219 -46.5q-242 0 -389.5 153t-147.5 397q0 247 147.5 403.5t389.5 156.5q115 0 217 -48t174 -120v149h41zM1055 197v673
q-64 74 -167.5 126.5t-223.5 52.5q-223 0 -359.5 -145.5t-136.5 -373.5q0 -225 136 -367.5t360 -142.5q119 0 222.5 52t168.5 125zM885 1518l-170 -261h-51l170 261h51z" />
    <glyph glyph-name="acircumflex" unicode="&#xe2;" horiz-adv-x="1378" 
d="M1096 1071v-899q0 -75 26.5 -113.5t87.5 -38.5q52 0 127 52l19 -35q-71 -57 -146 -57t-112 41.5t-43 121.5q-69 -70 -172 -116.5t-219 -46.5q-242 0 -389.5 153t-147.5 397q0 247 147.5 403.5t389.5 156.5q115 0 217 -48t174 -120v149h41zM1055 197v673
q-64 74 -167.5 126.5t-223.5 52.5q-223 0 -359.5 -145.5t-136.5 -373.5q0 -225 136 -367.5t360 -142.5q119 0 222.5 52t168.5 125zM866 1257l-196 222l-195 -222h-61l231 261h51l232 -261h-62z" />
    <glyph glyph-name="atilde" unicode="&#xe3;" horiz-adv-x="1378" 
d="M1096 1071v-899q0 -75 26.5 -113.5t87.5 -38.5q52 0 127 52l19 -35q-71 -57 -146 -57t-112 41.5t-43 121.5q-69 -70 -172 -116.5t-219 -46.5q-242 0 -389.5 153t-147.5 397q0 247 147.5 403.5t389.5 156.5q115 0 217 -48t174 -120v149h41zM1055 197v673
q-64 74 -167.5 126.5t-223.5 52.5q-223 0 -359.5 -145.5t-136.5 -373.5q0 -225 136 -367.5t360 -142.5q119 0 222.5 52t168.5 125zM385 1319l-29 27q28 50 72.5 86t101.5 36q32 0 73.5 -23.5t74.5 -52t70.5 -52t62.5 -23.5q90 0 145 108l29 -26q-27 -50 -72 -86.5
t-100 -36.5q-33 0 -74.5 23.5t-74 52t-70.5 52t-64 23.5q-86 0 -145 -108z" />
    <glyph glyph-name="adieresis" unicode="&#xe4;" horiz-adv-x="1378" 
d="M1096 1071v-899q0 -75 26.5 -113.5t87.5 -38.5q52 0 127 52l19 -35q-71 -57 -146 -57t-112 41.5t-43 121.5q-69 -70 -172 -116.5t-219 -46.5q-242 0 -389.5 153t-147.5 397q0 247 147.5 403.5t389.5 156.5q115 0 217 -48t174 -120v149h41zM1055 197v673
q-64 74 -167.5 126.5t-223.5 52.5q-223 0 -359.5 -145.5t-136.5 -373.5q0 -225 136 -367.5t360 -142.5q119 0 222.5 52t168.5 125zM418 1378q0 54 45 54q41 0 41 -54q0 -53 -41 -53q-45 0 -45 53zM922 1378q0 54 45 54q41 0 41 -54q0 -53 -41 -53q-45 0 -45 53z" />
    <glyph glyph-name="aring" unicode="&#xe5;" horiz-adv-x="1378" 
d="M1096 1071v-899q0 -75 26.5 -113.5t87.5 -38.5q52 0 127 52l19 -35q-71 -57 -146 -57t-112 41.5t-43 121.5q-69 -70 -172 -116.5t-219 -46.5q-242 0 -389.5 153t-147.5 397q0 247 147.5 403.5t389.5 156.5q115 0 217 -48t174 -120v149h41zM1055 197v673
q-64 74 -167.5 126.5t-223.5 52.5q-223 0 -359.5 -145.5t-136.5 -373.5q0 -225 136 -367.5t360 -142.5q119 0 222.5 52t168.5 125zM492 1372q0 83 58.5 142t141.5 59t142 -59t59 -142t-59 -142t-142 -59t-141.5 59t-58.5 142zM532 1372q0 -66 47 -113t113 -47t113 47t47 113
t-47 113t-113 47t-113 -47t-47 -113z" />
    <glyph glyph-name="ae" unicode="&#xe6;" horiz-adv-x="1931" 
d="M1786 512h-842q2 -87 14.5 -158t42.5 -136.5t77 -110t121.5 -71t172.5 -26.5q120 0 207 37t176 107l27 -37q-90 -72 -187 -109t-223 -37q-160 0 -267.5 66t-150.5 176q-33 -36 -54.5 -57.5t-70.5 -61.5t-93 -63.5t-108 -42.5t-130 -19q-179 0 -287.5 93.5t-108.5 246.5
q0 80 27.5 144t76.5 107.5t118 72.5t149 42t174 13q157 0 256 -24q0 71 -5 123t-18.5 98.5t-37 77.5t-59 54t-86 33.5t-117.5 10.5q-206 0 -355 -76l-12 41q143 74 373 74q85 0 147.5 -18t99.5 -46t60.5 -73t33.5 -87.5t15 -101.5q18 56 50.5 109t83 104t126 82t164.5 31
q107 0 192 -36t137.5 -98t79.5 -141.5t27 -171.5q0 -82 -16 -141zM1370 1059q-87 0 -159 -31t-120 -81.5t-81 -117.5t-47.5 -136t-14.5 -140h805q8 62 8 100q0 110 -41.5 200t-132 148t-217.5 58zM143 309q0 -134 96.5 -216.5t258.5 -82.5q67 0 127.5 18t112 53t81.5 61
t71 66l7 7l6 6v400q-110 26 -256 26q-110 0 -199 -18.5t-158.5 -57.5t-108 -105.5t-38.5 -156.5z" />
    <glyph glyph-name="ccedilla" unicode="&#xe7;" horiz-adv-x="1255" 
d="M551 -195l43 172q-237 27 -351 175t-114 380q0 164 67 292.5t194.5 202t295.5 73.5q207 0 324 -107t125 -288l-41 -11q-8 169 -113 267t-295 98q-237 0 -376.5 -147.5t-139.5 -379.5q0 -115 29.5 -207.5t90.5 -163.5t164.5 -110t241.5 -39q205 0 408 148l22 -39
q-193 -150 -430 -150q-12 0 -32.5 1t-28.5 1l-31 -123q45 9 76 9q76 0 121 -33.5t45 -89.5q0 -67 -54.5 -104.5t-134.5 -37.5q-73 0 -143 27l12 39q70 -25 131 -25q67 0 107.5 25.5t40.5 75.5q0 39 -32.5 60.5t-94.5 21.5q-56 0 -123 -19z" />
    <glyph glyph-name="egrave" unicode="&#xe8;" horiz-adv-x="1273" 
d="M1098 154l26 -37q-184 -146 -430 -146q-146 0 -258 44.5t-178.5 123t-99.5 177.5t-33 216q0 155 65.5 283t193 206.5t294.5 78.5q118 0 209.5 -35.5t146.5 -98t83 -142t28 -171.5q0 -78 -17 -141h-964q2 -83 22 -156.5t61.5 -137.5t102 -110t148.5 -72t196 -26
q220 0 404 144zM1096 553q8 62 8 100q0 82 -25 153.5t-75 129t-134 90.5t-192 33q-153 0 -270.5 -70t-179 -184t-64.5 -252h932zM686 1257l-170 261h51l170 -261h-51z" />
    <glyph glyph-name="eacute" unicode="&#xe9;" horiz-adv-x="1273" 
d="M1098 154l26 -37q-184 -146 -430 -146q-146 0 -258 44.5t-178.5 123t-99.5 177.5t-33 216q0 155 65.5 283t193 206.5t294.5 78.5q118 0 209.5 -35.5t146.5 -98t83 -142t28 -171.5q0 -78 -17 -141h-964q2 -83 22 -156.5t61.5 -137.5t102 -110t148.5 -72t196 -26
q220 0 404 144zM1096 553q8 62 8 100q0 82 -25 153.5t-75 129t-134 90.5t-192 33q-153 0 -270.5 -70t-179 -184t-64.5 -252h932zM860 1518l-170 -261h-51l170 261h51z" />
    <glyph glyph-name="ecircumflex" unicode="&#xea;" horiz-adv-x="1273" 
d="M1098 154l26 -37q-184 -146 -430 -146q-146 0 -258 44.5t-178.5 123t-99.5 177.5t-33 216q0 155 65.5 283t193 206.5t294.5 78.5q118 0 209.5 -35.5t146.5 -98t83 -142t28 -171.5q0 -78 -17 -141h-964q2 -83 22 -156.5t61.5 -137.5t102 -110t148.5 -72t196 -26
q220 0 404 144zM1096 553q8 62 8 100q0 82 -25 153.5t-75 129t-134 90.5t-192 33q-153 0 -270.5 -70t-179 -184t-64.5 -252h932zM885 1257l-197 222l-194 -222h-62l232 261h51l231 -261h-61z" />
    <glyph glyph-name="edieresis" unicode="&#xeb;" horiz-adv-x="1273" 
d="M1098 154l26 -37q-184 -146 -430 -146q-146 0 -258 44.5t-178.5 123t-99.5 177.5t-33 216q0 155 65.5 283t193 206.5t294.5 78.5q118 0 209.5 -35.5t146.5 -98t83 -142t28 -171.5q0 -78 -17 -141h-964q2 -83 22 -156.5t61.5 -137.5t102 -110t148.5 -72t196 -26
q220 0 404 144zM1096 553q8 62 8 100q0 82 -25 153.5t-75 129t-134 90.5t-192 33q-153 0 -270.5 -70t-179 -184t-64.5 -252h932zM393 1378q0 54 45 54q41 0 41 -54q0 -53 -41 -53q-45 0 -45 53zM897 1378q0 54 45 54q41 0 41 -54q0 -53 -41 -53q-45 0 -45 53z" />
    <glyph glyph-name="igrave" unicode="&#xec;" horiz-adv-x="548" 
d="M215 1071h41v-899q0 -152 115 -152q53 0 125 52l20 -35q-71 -57 -147 -57q-154 0 -154 192v899zM240 1257l-170 261h51l170 -261h-51z" />
    <glyph glyph-name="iacute" unicode="&#xed;" horiz-adv-x="548" 
d="M215 1071h41v-899q0 -152 115 -152q53 0 125 52l20 -35q-71 -57 -147 -57q-154 0 -154 192v899zM434 1518l-170 -261h-51l170 261h51z" />
    <glyph glyph-name="icircumflex" unicode="&#xee;" horiz-adv-x="548" 
d="M215 1071h41v-899q0 -152 115 -152q53 0 125 52l20 -35q-71 -57 -147 -57q-154 0 -154 192v899zM430 1257l-197 222l-194 -222h-62l232 261h51l232 -261h-62z" />
    <glyph glyph-name="idieresis" unicode="&#xef;" horiz-adv-x="548" 
d="M215 1071h41v-899q0 -152 115 -152q53 0 125 52l20 -35q-71 -57 -147 -57q-154 0 -154 192v899zM-59 1378q0 54 45 54q41 0 41 -54q0 -53 -41 -53q-45 0 -45 53zM444 1378q0 54 45 54q41 0 41 -54q0 -53 -41 -53q-45 0 -45 53z" />
    <glyph glyph-name="eth" unicode="&#xf0;" horiz-adv-x="1286" 
d="M1026 1450l-149 -152q115 -110 184 -263.5t69 -336.5q0 -328 -143 -523t-395 -195q-195 0 -325 136t-130 347q0 220 122 343.5t329 123.5q81 0 155.5 -26t126 -63t97.5 -87.5t71 -89.5t45 -78q7 65 7 112q0 176 -65.5 321.5t-176.5 250.5l-158 -160l-26 29l155 157
q-112 97 -250 144l19 35q144 -47 258 -150l151 154zM592 20q195 0 322 135t163 367q-11 24 -26.5 52t-45.5 73.5t-70.5 85t-90.5 76.5t-116.5 58.5t-139.5 21.5q-182 0 -296 -112t-114 -314q0 -190 118.5 -316.5t295.5 -126.5z" />
    <glyph glyph-name="ntilde" unicode="&#xf1;" horiz-adv-x="1363" 
d="M211 1071h41v-242q56 125 165 193t259 68q200 0 308 -131.5t108 -342.5v-444q0 -75 26.5 -113.5t87.5 -38.5q52 0 127 52l19 -35q-71 -57 -146 -57q-155 0 -155 192v444q0 124 -39.5 220t-125.5 154.5t-210 58.5q-163 0 -277 -91.5t-147 -236.5v-721h-41v1071zM385 1319
l-29 27q28 50 72.5 86t101.5 36q32 0 73.5 -23.5t74.5 -52t70.5 -52t62.5 -23.5q90 0 145 108l29 -26q-27 -50 -72 -86.5t-100 -36.5q-33 0 -74.5 23.5t-74 52t-70.5 52t-64 23.5q-86 0 -145 -108z" />
    <glyph glyph-name="ograve" unicode="&#xf2;" horiz-adv-x="1380" 
d="M125 532q0 246 158 407t405 161q250 0 408.5 -161t158.5 -407q0 -243 -158.5 -402t-408.5 -159q-247 0 -405 159t-158 402zM166 532q0 -224 146.5 -372t375.5 -148q231 0 378.5 147.5t147.5 372.5q0 228 -147.5 377.5t-378.5 149.5q-229 0 -375.5 -150t-146.5 -377z
M666 1257l-170 261h51l170 -261h-51z" />
    <glyph glyph-name="oacute" unicode="&#xf3;" horiz-adv-x="1380" 
d="M125 532q0 246 158 407t405 161q250 0 408.5 -161t158.5 -407q0 -243 -158.5 -402t-408.5 -159q-247 0 -405 159t-158 402zM166 532q0 -224 146.5 -372t375.5 -148q231 0 378.5 147.5t147.5 372.5q0 228 -147.5 377.5t-378.5 149.5q-229 0 -375.5 -150t-146.5 -377z
M881 1518l-170 -261h-52l170 261h52z" />
    <glyph glyph-name="ocircumflex" unicode="&#xf4;" horiz-adv-x="1380" 
d="M125 532q0 246 158 407t405 161q250 0 408.5 -161t158.5 -407q0 -243 -158.5 -402t-408.5 -159q-247 0 -405 159t-158 402zM166 532q0 -224 146.5 -372t375.5 -148q231 0 378.5 147.5t147.5 372.5q0 228 -147.5 377.5t-378.5 149.5q-229 0 -375.5 -150t-146.5 -377z
M883 1257l-197 222l-194 -222h-62l232 261h51l231 -261h-61z" />
    <glyph glyph-name="otilde" unicode="&#xf5;" horiz-adv-x="1380" 
d="M125 532q0 246 158 407t405 161q250 0 408.5 -161t158.5 -407q0 -243 -158.5 -402t-408.5 -159q-247 0 -405 159t-158 402zM166 532q0 -224 146.5 -372t375.5 -148q231 0 378.5 147.5t147.5 372.5q0 228 -147.5 377.5t-378.5 149.5q-229 0 -375.5 -150t-146.5 -377z
M401 1319l-28 27q28 50 72.5 86t101.5 36q41 0 95 -38t104 -75.5t81 -37.5q91 0 146 108l28 -26q-27 -50 -72 -86.5t-100 -36.5q-33 0 -74 23.5t-73.5 52t-70.5 52t-64 23.5q-87 0 -146 -108z" />
    <glyph glyph-name="odieresis" unicode="&#xf6;" horiz-adv-x="1380" 
d="M125 532q0 246 158 407t405 161q250 0 408.5 -161t158.5 -407q0 -243 -158.5 -402t-408.5 -159q-247 0 -405 159t-158 402zM166 532q0 -224 146.5 -372t375.5 -148q231 0 378.5 147.5t147.5 372.5q0 228 -147.5 377.5t-378.5 149.5q-229 0 -375.5 -150t-146.5 -377z
M393 1378q0 54 45 54q41 0 41 -54q0 -53 -41 -53q-45 0 -45 53zM897 1378q0 54 45 54q41 0 41 -54q0 -53 -41 -53q-45 0 -45 53z" />
    <glyph glyph-name="divide" unicode="&#xf7;" 
d="M162 639h905v-41h-905v41zM520 954q0 38 18 59t52 21q35 0 54.5 -21t19.5 -59q0 -80 -74 -80q-70 0 -70 80zM520 285q0 38 18 59t52 21q35 0 54.5 -21t19.5 -59q0 -80 -74 -80q-70 0 -70 80z" />
    <glyph glyph-name="oslash" unicode="&#xf8;" horiz-adv-x="1380" 
d="M125 532q0 246 158 407t405 161q219 0 369 -125l76 94h45v-6l-93 -115q81 -76 125.5 -184t44.5 -232q0 -243 -158.5 -402t-408.5 -159q-179 0 -321 90l-50 -61h-45v6l64 78q-101 76 -156 192t-55 256zM166 532q0 -129 51.5 -237t144.5 -178l668 825q-142 117 -342 117
q-229 0 -375.5 -150t-146.5 -377zM1214 532q0 234 -155 383l-666 -821q127 -82 295 -82q231 0 378.5 147.5t147.5 372.5z" />
    <glyph glyph-name="ugrave" unicode="&#xf9;" horiz-adv-x="1355" 
d="M1032 1071h41v-899q0 -152 113 -152q52 0 127 52l20 -35q-71 -57 -147 -57q-154 0 -154 192v72q-56 -121 -166 -192.5t-258 -71.5q-200 0 -307.5 129.5t-107.5 339.5v622h40v-620q0 -193 95.5 -312t279.5 -119q162 0 275.5 92.5t148.5 237.5v721zM627 1257l-170 261h51
l170 -261h-51z" />
    <glyph glyph-name="uacute" unicode="&#xfa;" horiz-adv-x="1355" 
d="M1032 1071h41v-899q0 -152 113 -152q52 0 127 52l20 -35q-71 -57 -147 -57q-154 0 -154 192v72q-56 -121 -166 -192.5t-258 -71.5q-200 0 -307.5 129.5t-107.5 339.5v622h40v-620q0 -193 95.5 -312t279.5 -119q162 0 275.5 92.5t148.5 237.5v721zM831 1518l-169 -261h-52
l170 261h51z" />
    <glyph glyph-name="ucircumflex" unicode="&#xfb;" horiz-adv-x="1355" 
d="M1032 1071h41v-899q0 -152 113 -152q52 0 127 52l20 -35q-71 -57 -147 -57q-154 0 -154 192v72q-56 -121 -166 -192.5t-258 -71.5q-200 0 -307.5 129.5t-107.5 339.5v622h40v-620q0 -193 95.5 -312t279.5 -119q162 0 275.5 92.5t148.5 237.5v721zM844 1257l-197 222
l-194 -222h-62l232 261h51l231 -261h-61z" />
    <glyph glyph-name="udieresis" unicode="&#xfc;" horiz-adv-x="1355" 
d="M1032 1071h41v-899q0 -152 113 -152q52 0 127 52l20 -35q-71 -57 -147 -57q-154 0 -154 192v72q-56 -121 -166 -192.5t-258 -71.5q-200 0 -307.5 129.5t-107.5 339.5v622h40v-620q0 -193 95.5 -312t279.5 -119q162 0 275.5 92.5t148.5 237.5v721zM348 1378q0 54 45 54
q41 0 41 -54q0 -53 -41 -53q-45 0 -45 53zM852 1378q0 54 45 54q41 0 41 -54q0 -53 -41 -53q-45 0 -45 53z" />
    <glyph glyph-name="yacute" unicode="&#xfd;" horiz-adv-x="1153" 
d="M47 1071h45l512 -1024l453 1024h45l-522 -1188q-31 -70 -59.5 -117.5t-68.5 -89t-92.5 -62t-119.5 -20.5q-127 0 -244 76l16 41q51 -36 102 -56t126 -20q59 0 104 17t80 53t60.5 79.5t54.5 109.5l43 104zM776 1518l-170 -261h-51l170 261h51z" />
    <glyph glyph-name="thorn" unicode="&#xfe;" horiz-adv-x="1308" 
d="M1182 537q0 -246 -147.5 -401.5t-389.5 -155.5q-116 0 -218.5 47t-174.5 118v-530h-41v1839h41v-532q72 72 174.5 120t218.5 48q242 0 389.5 -154t147.5 -399zM1141 537q0 226 -136.5 369t-359.5 143q-121 0 -225.5 -54t-167.5 -129v-667q62 -74 167 -126.5t226 -52.5
q222 0 359 144.5t137 372.5z" />
    <glyph glyph-name="ydieresis" unicode="&#xff;" horiz-adv-x="1153" 
d="M47 1071h45l512 -1024l453 1024h45l-522 -1188q-31 -70 -59.5 -117.5t-68.5 -89t-92.5 -62t-119.5 -20.5q-127 0 -244 76l16 41q51 -36 102 -56t126 -20q59 0 104 17t80 53t60.5 79.5t54.5 109.5l43 104zM297 1378q0 54 45 54q41 0 41 -54q0 -53 -41 -53q-45 0 -45 53z
M801 1378q0 54 45 54q41 0 41 -54q0 -53 -41 -53q-45 0 -45 53z" />
    <glyph glyph-name="Amacron" unicode="&#x100;" horiz-adv-x="1380" 
d="M53 0l627 1393h41l586 -1393h-41l-160 377h-842l-170 -377h-41zM698 1346l-415 -928h807zM934 1659h-469v41h469v-41z" />
    <glyph glyph-name="amacron" unicode="&#x101;" horiz-adv-x="1378" 
d="M1096 1071v-899q0 -75 26.5 -113.5t87.5 -38.5q52 0 127 52l19 -35q-71 -57 -146 -57t-112 41.5t-43 121.5q-69 -70 -172 -116.5t-219 -46.5q-242 0 -389.5 153t-147.5 397q0 247 147.5 403.5t389.5 156.5q115 0 217 -48t174 -120v149h41zM1055 197v673
q-64 74 -167.5 126.5t-223.5 52.5q-223 0 -359.5 -145.5t-136.5 -373.5q0 -225 136 -367.5t360 -142.5q119 0 222.5 52t168.5 125zM926 1337h-469v41h469v-41z" />
    <glyph glyph-name="Abreve" unicode="&#x102;" horiz-adv-x="1380" 
d="M53 0l627 1393h41l586 -1393h-41l-160 377h-842l-170 -377h-41zM698 1346l-415 -928h807zM451 1751l32 27q18 -26 33.5 -43.5t42.5 -40t62.5 -34t78.5 -11.5q136 0 213 129l35 -27q-35 -59 -96 -101t-152 -42q-90 0 -152 42.5t-97 100.5z" />
    <glyph glyph-name="abreve" unicode="&#x103;" horiz-adv-x="1378" 
d="M1096 1071v-899q0 -75 26.5 -113.5t87.5 -38.5q52 0 127 52l19 -35q-71 -57 -146 -57t-112 41.5t-43 121.5q-69 -70 -172 -116.5t-219 -46.5q-242 0 -389.5 153t-147.5 397q0 247 147.5 403.5t389.5 156.5q115 0 217 -48t174 -120v149h41zM1055 197v673
q-64 74 -167.5 126.5t-223.5 52.5q-223 0 -359.5 -145.5t-136.5 -373.5q0 -225 136 -367.5t360 -142.5q119 0 222.5 52t168.5 125zM442 1430l33 26q18 -26 33.5 -43.5t42.5 -40t62.5 -34t78.5 -11.5q136 0 213 129l35 -26q-85 -144 -248 -144q-90 0 -152.5 43t-97.5 101z
" />
    <glyph glyph-name="Aogonek" unicode="&#x104;" horiz-adv-x="1380" 
d="M53 0l627 1393h41l586 -1393h-17q-94 -5 -157.5 -48t-63.5 -120q0 -62 38 -95.5t99 -33.5q70 0 123 31l8 -43q-73 -29 -131 -29q-78 0 -128 44t-50 126q0 47 22 85t57 61t73 35.5t73 13.5l-147 350h-842l-170 -377h-41zM698 1346l-415 -928h807z" />
    <glyph glyph-name="aogonek" unicode="&#x105;" horiz-adv-x="1376" 
d="M1096 1071v-899q0 -75 26.5 -113.5t87.5 -38.5q52 0 127 52l19 -35q-67 -54 -144 -57q-125 -48 -125 -148q0 -62 38.5 -95.5t99.5 -33.5q70 0 123 31l8 -43q-73 -29 -131 -29q-78 0 -128 44t-50 126q0 98 106 156q-89 25 -98 155q-69 -70 -172 -116.5t-219 -46.5
q-242 0 -389.5 153t-147.5 397q0 247 147.5 403.5t389.5 156.5q115 0 217 -48t174 -120v149h41zM1055 197v673q-64 74 -167.5 126.5t-223.5 52.5q-223 0 -359.5 -145.5t-136.5 -373.5q0 -225 136 -367.5t360 -142.5q119 0 222.5 52t168.5 125z" />
    <glyph glyph-name="Cacute" unicode="&#x106;" horiz-adv-x="1562" 
d="M1391 238l30 -33q-101 -96 -254 -160.5t-317 -64.5q-206 0 -363.5 84t-246 246.5t-88.5 383.5q0 167 51 303t143 227t221 140t283 49q265 0 414 -140t155 -386l-39 -6q-6 232 -143.5 361.5t-386.5 129.5q-297 0 -477 -181.5t-180 -496.5q0 -313 180 -493.5t477 -180.5
q151 0 298.5 63.5t242.5 154.5zM1049 1839l-170 -260h-52l170 260h52z" />
    <glyph glyph-name="cacute" unicode="&#x107;" horiz-adv-x="1253" 
d="M1102 160l22 -39q-193 -150 -430 -150q-147 0 -258 42t-177.5 118.5t-99 176.5t-32.5 224q0 164 67 292.5t194.5 202t295.5 73.5q207 0 324 -107t125 -288l-41 -11q-8 169 -113 267t-295 98q-237 0 -376.5 -147.5t-139.5 -379.5q0 -115 29.5 -207.5t90.5 -163.5
t164.5 -110t241.5 -39q205 0 408 148zM864 1518l-170 -261h-51l170 261h51z" />
    <glyph glyph-name="Ccircumflex" unicode="&#x108;" horiz-adv-x="1562" 
d="M1391 238l30 -33q-101 -96 -254 -160.5t-317 -64.5q-206 0 -363.5 84t-246 246.5t-88.5 383.5q0 167 51 303t143 227t221 140t283 49q265 0 414 -140t155 -386l-39 -6q-6 232 -143.5 361.5t-386.5 129.5q-297 0 -477 -181.5t-180 -496.5q0 -313 180 -493.5t477 -180.5
q151 0 298.5 63.5t242.5 154.5zM1057 1579l-197 221l-194 -221h-62l232 260h51l231 -260h-61z" />
    <glyph glyph-name="ccircumflex" unicode="&#x109;" horiz-adv-x="1253" 
d="M1102 160l22 -39q-193 -150 -430 -150q-147 0 -258 42t-177.5 118.5t-99 176.5t-32.5 224q0 164 67 292.5t194.5 202t295.5 73.5q207 0 324 -107t125 -288l-41 -11q-8 169 -113 267t-295 98q-237 0 -376.5 -147.5t-139.5 -379.5q0 -115 29.5 -207.5t90.5 -163.5
t164.5 -110t241.5 -39q205 0 408 148zM881 1257l-197 222l-195 -222h-61l231 261h52l231 -261h-61z" />
    <glyph glyph-name="Cdotaccent" unicode="&#x10a;" horiz-adv-x="1562" 
d="M1391 238l30 -33q-101 -96 -254 -160.5t-317 -64.5q-206 0 -363.5 84t-246 246.5t-88.5 383.5q0 167 51 303t143 227t221 140t283 49q265 0 414 -140t155 -386l-39 -6q-6 232 -143.5 361.5t-386.5 129.5q-297 0 -477 -181.5t-180 -496.5q0 -313 180 -493.5t477 -180.5
q151 0 298.5 63.5t242.5 154.5zM825 1700q0 53 45 53q41 0 41 -53t-41 -53q-45 0 -45 53z" />
    <glyph glyph-name="cdotaccent" unicode="&#x10b;" horiz-adv-x="1253" 
d="M1102 160l22 -39q-193 -150 -430 -150q-147 0 -258 42t-177.5 118.5t-99 176.5t-32.5 224q0 164 67 292.5t194.5 202t295.5 73.5q207 0 324 -107t125 -288l-41 -11q-8 169 -113 267t-295 98q-237 0 -376.5 -147.5t-139.5 -379.5q0 -115 29.5 -207.5t90.5 -163.5
t164.5 -110t241.5 -39q205 0 408 148zM647 1378q0 54 45 54q41 0 41 -54q0 -53 -41 -53q-45 0 -45 53z" />
    <glyph glyph-name="Ccaron" unicode="&#x10c;" horiz-adv-x="1562" 
d="M1391 238l30 -33q-101 -96 -254 -160.5t-317 -64.5q-206 0 -363.5 84t-246 246.5t-88.5 383.5q0 167 51 303t143 227t221 140t283 49q265 0 414 -140t155 -386l-39 -6q-6 232 -143.5 361.5t-386.5 129.5q-297 0 -477 -181.5t-180 -496.5q0 -313 180 -493.5t477 -180.5
q151 0 298.5 63.5t242.5 154.5zM670 1839l196 -221l195 221h61l-231 -260h-51l-232 260h62z" />
    <glyph glyph-name="ccaron" unicode="&#x10d;" horiz-adv-x="1253" 
d="M1102 160l22 -39q-193 -150 -430 -150q-147 0 -258 42t-177.5 118.5t-99 176.5t-32.5 224q0 164 67 292.5t194.5 202t295.5 73.5q207 0 324 -107t125 -288l-41 -11q-8 169 -113 267t-295 98q-237 0 -376.5 -147.5t-139.5 -379.5q0 -115 29.5 -207.5t90.5 -163.5
t164.5 -110t241.5 -39q205 0 408 148zM500 1518l196 -222l195 222h61l-231 -261h-51l-232 261h62z" />
    <glyph glyph-name="Dcaron" unicode="&#x10e;" horiz-adv-x="1607" 
d="M248 0v1393h489q155 -1 286 -47t227.5 -132.5t151 -220t54.5 -299.5q0 -165 -54.5 -297.5t-151 -218.5t-227.5 -132t-286 -46h-489zM737 1352h-448v-1311h448q147 0 271 42.5t214.5 123.5t141.5 206t51 281q0 158 -51 283.5t-142 206.5t-214 124t-271 44zM489 1839
l197 -221l195 221h61l-231 -260h-52l-231 260h61z" />
    <glyph glyph-name="dcaron" unicode="&#x10f;" horiz-adv-x="1370" 
d="M1057 1454h41v-1286q0 -75 26 -111.5t88 -36.5q53 0 125 52l21 -35q-31 -25 -72 -41t-76 -16q-147 0 -153 165q-72 -72 -173.5 -118.5t-219.5 -46.5q-241 0 -389 156t-148 401t148 399t389 154q116 0 219 -47.5t174 -118.5v530zM168 537q0 -228 137 -372.5t361 -144.5
q121 0 224 52t167 127v669q-66 74 -169 127.5t-222 53.5q-224 0 -361 -143t-137 -369zM1296 1120l47 148q-44 0 -68 18.5t-24 46.5q0 76 70 76q34 0 53 -22.5t19 -53.5q0 -56 -18.5 -120t-43.5 -107z" />
    <glyph glyph-name="Dcroat" unicode="&#x110;" horiz-adv-x="1607" 
d="M248 0v682h-135v41h135v670h489q155 -1 286 -47t227.5 -132.5t151 -220t54.5 -299.5q0 -165 -54.5 -297.5t-151 -218.5t-227.5 -132t-286 -46h-489zM705 682h-416v-641h448q147 0 271 42.5t214.5 123.5t141.5 206t51 281q0 158 -51 283.5t-142 206.5t-214 124t-271 44
h-448v-629h416v-41z" />
    <glyph glyph-name="dcroat" unicode="&#x111;" horiz-adv-x="1380" 
d="M1057 1454h41v-176h237v-41h-237v-1069q0 -75 26 -111.5t88 -36.5q53 0 125 52l21 -35q-31 -25 -72 -41t-76 -16q-147 0 -153 167q-72 -72 -174 -119.5t-219 -47.5q-241 0 -389 156t-148 401t148 399t389 154q116 0 218.5 -48t174.5 -120v315h-314v41h314v176zM168 537
q0 -228 137 -372.5t361 -144.5q121 0 224 52t167 127v669q-66 74 -169 127.5t-222 53.5q-224 0 -361 -143t-137 -369z" />
    <glyph glyph-name="Emacron" unicode="&#x112;" horiz-adv-x="1439" 
d="M1276 0h-1028v1393h1028v-41h-987v-598h837v-41h-837v-672h987v-41zM993 1659h-469v41h469v-41z" />
    <glyph glyph-name="emacron" unicode="&#x113;" horiz-adv-x="1273" 
d="M1098 154l26 -37q-184 -146 -430 -146q-146 0 -258 44.5t-178.5 123t-99.5 177.5t-33 216q0 155 65.5 283t193 206.5t294.5 78.5q118 0 209.5 -35.5t146.5 -98t83 -142t28 -171.5q0 -78 -17 -141h-964q2 -83 22 -156.5t61.5 -137.5t102 -110t148.5 -72t196 -26
q220 0 404 144zM1096 553q8 62 8 100q0 82 -25 153.5t-75 129t-134 90.5t-192 33q-153 0 -270.5 -70t-179 -184t-64.5 -252h932zM909 1337h-469v41h469v-41z" />
    <glyph glyph-name="Ebreve" unicode="&#x114;" horiz-adv-x="1439" 
d="M1276 0h-1028v1393h1028v-41h-987v-598h837v-41h-837v-672h987v-41zM510 1751l33 27q18 -26 33.5 -43.5t42.5 -40t62.5 -34t78.5 -11.5q136 0 213 129l35 -27q-35 -59 -96 -101t-152 -42q-90 0 -152.5 43t-97.5 100z" />
    <glyph glyph-name="ebreve" unicode="&#x115;" horiz-adv-x="1273" 
d="M1098 154l26 -37q-184 -146 -430 -146q-146 0 -258 44.5t-178.5 123t-99.5 177.5t-33 216q0 155 65.5 283t193 206.5t294.5 78.5q118 0 209.5 -35.5t146.5 -98t83 -142t28 -171.5q0 -78 -17 -141h-964q2 -83 22 -156.5t61.5 -137.5t102 -110t148.5 -72t196 -26
q220 0 404 144zM1096 553q8 62 8 100q0 82 -25 153.5t-75 129t-134 90.5t-192 33q-153 0 -270.5 -70t-179 -184t-64.5 -252h932zM434 1430l33 26q18 -26 33.5 -43.5t42.5 -40t62.5 -34t78.5 -11.5q136 0 213 129l35 -26q-85 -144 -248 -144q-90 0 -152.5 43t-97.5 101z" />
    <glyph glyph-name="Edotaccent" unicode="&#x116;" horiz-adv-x="1439" 
d="M1276 0h-1028v1393h1028v-41h-987v-598h837v-41h-837v-672h987v-41zM713 1700q0 53 45 53q41 0 41 -53t-41 -53q-45 0 -45 53z" />
    <glyph glyph-name="edotaccent" unicode="&#x117;" horiz-adv-x="1273" 
d="M1098 154l26 -37q-184 -146 -430 -146q-146 0 -258 44.5t-178.5 123t-99.5 177.5t-33 216q0 155 65.5 283t193 206.5t294.5 78.5q118 0 209.5 -35.5t146.5 -98t83 -142t28 -171.5q0 -78 -17 -141h-964q2 -83 22 -156.5t61.5 -137.5t102 -110t148.5 -72t196 -26
q220 0 404 144zM1096 553q8 62 8 100q0 82 -25 153.5t-75 129t-134 90.5t-192 33q-153 0 -270.5 -70t-179 -184t-64.5 -252h932zM641 1378q0 54 45 54q41 0 41 -54q0 -53 -41 -53q-45 0 -45 53z" />
    <glyph glyph-name="Eogonek" unicode="&#x118;" horiz-adv-x="1439" 
d="M1276 0h-16q-94 -5 -158 -48t-64 -120q0 -62 38.5 -95.5t99.5 -33.5q69 0 122 31l9 -43q-73 -29 -131 -29q-79 0 -129 44t-50 126q0 58 33 101t84 67h-866v1393h1028v-41h-987v-598h837v-41h-837v-672h987v-41z" />
    <glyph glyph-name="eogonek" unicode="&#x119;" horiz-adv-x="1273" 
d="M1098 154l26 -37q-135 -109 -307 -135q-133 -49 -133 -150q0 -62 38 -95.5t99 -33.5q70 0 123 31l8 -43q-73 -29 -131 -29q-78 0 -128 44t-50 126q0 85 78 139h-27q-146 0 -258 44.5t-178.5 123t-99.5 177.5t-33 216q0 155 65.5 283t193 206.5t294.5 78.5
q118 0 209.5 -35.5t146.5 -98t83 -142t28 -171.5q0 -78 -17 -141h-964q2 -83 22 -156.5t61.5 -137.5t102 -110t148.5 -72t196 -26q220 0 404 144zM1096 553q8 62 8 100q0 82 -25 153.5t-75 129t-134 90.5t-192 33q-153 0 -270.5 -70t-179 -184t-64.5 -252h932z" />
    <glyph glyph-name="Ecaron" unicode="&#x11a;" horiz-adv-x="1439" 
d="M1276 0h-1028v1393h1028v-41h-987v-598h837v-41h-837v-672h987v-41zM563 1839l197 -221l194 221h62l-232 -260h-51l-231 260h61z" />
    <glyph glyph-name="ecaron" unicode="&#x11b;" horiz-adv-x="1273" 
d="M1098 154l26 -37q-184 -146 -430 -146q-146 0 -258 44.5t-178.5 123t-99.5 177.5t-33 216q0 155 65.5 283t193 206.5t294.5 78.5q118 0 209.5 -35.5t146.5 -98t83 -142t28 -171.5q0 -78 -17 -141h-964q2 -83 22 -156.5t61.5 -137.5t102 -110t148.5 -72t196 -26
q220 0 404 144zM1096 553q8 62 8 100q0 82 -25 153.5t-75 129t-134 90.5t-192 33q-153 0 -270.5 -70t-179 -184t-64.5 -252h932zM483 1518l197 -222l194 222h62l-231 -261h-52l-231 261h61z" />
    <glyph glyph-name="Gcircumflex" unicode="&#x11c;" horiz-adv-x="1628" 
d="M831 680h629v-528q-100 -74 -256.5 -123t-312.5 -49q-155 0 -290 49t-235 139t-158 226t-58 300q0 166 58 303t158 227t235 139.5t290 49.5q161 0 283 -50.5t233 -150.5l-29 -32q-104 95 -220 143.5t-267 48.5q-195 0 -353 -79.5t-253 -235.5t-95 -363q0 -154 55 -282.5
t150.5 -213.5t223 -131.5t272.5 -46.5q147 0 290.5 44t237.5 112v463h-588v41zM1083 1579l-196 221l-195 -221h-61l231 260h51l232 -260h-62z" />
    <glyph glyph-name="gcircumflex" unicode="&#x11d;" horiz-adv-x="1308" 
d="M856 1257l-197 222l-194 -222h-62l232 261h51l232 -261h-62zM129 573q0 106 38.5 200.5t107.5 164.5t170.5 111t220.5 41q115 0 217.5 -47.5t173.5 -118.5v147h41v-1001q0 -111 -36 -202t-97.5 -150t-142 -91.5t-171.5 -32.5q-37 0 -73 4t-63.5 9t-58.5 16t-49 17.5
t-44.5 20.5t-35.5 19t-32 19.5t-25 15.5l17 43q34 -23 60.5 -38.5t74.5 -38t106.5 -34.5t122.5 -12q81 0 154 29.5t129.5 83t89.5 136.5t33 184v157q-72 -70 -174 -117t-217 -47q-119 0 -221 40.5t-170.5 110t-107 163t-38.5 198.5zM170 573q0 -129 60.5 -236t174.5 -171
t261 -64q118 0 222.5 52t168.5 125v589q-65 75 -168.5 128t-222.5 53q-147 0 -261 -65t-174.5 -173t-60.5 -238z" />
    <glyph glyph-name="Gbreve" unicode="&#x11e;" horiz-adv-x="1628" 
d="M831 680h629v-528q-100 -74 -256.5 -123t-312.5 -49q-155 0 -290 49t-235 139t-158 226t-58 300q0 166 58 303t158 227t235 139.5t290 49.5q161 0 283 -50.5t233 -150.5l-29 -32q-104 95 -220 143.5t-267 48.5q-195 0 -353 -79.5t-253 -235.5t-95 -363q0 -154 55 -282.5
t150.5 -213.5t223 -131.5t272.5 -46.5q147 0 290.5 44t237.5 112v463h-588v41zM645 1751l33 27q18 -26 33.5 -43.5t42.5 -40t62.5 -34t78.5 -11.5q136 0 213 129l35 -27q-35 -59 -96 -101t-152 -42q-90 0 -152.5 43t-97.5 100z" />
    <glyph glyph-name="gbreve" unicode="&#x11f;" horiz-adv-x="1308" 
d="M424 1430l33 26q18 -26 33.5 -43.5t42.5 -40t62.5 -34t78.5 -11.5q136 0 213 129l35 -26q-85 -144 -248 -144q-90 0 -152.5 43t-97.5 101zM129 573q0 106 38.5 200.5t107.5 164.5t170.5 111t220.5 41q115 0 217.5 -47.5t173.5 -118.5v147h41v-1001q0 -111 -36 -202
t-97.5 -150t-142 -91.5t-171.5 -32.5q-37 0 -73 4t-63.5 9t-58.5 16t-49 17.5t-44.5 20.5t-35.5 19t-32 19.5t-25 15.5l17 43q34 -23 60.5 -38.5t74.5 -38t106.5 -34.5t122.5 -12q81 0 154 29.5t129.5 83t89.5 136.5t33 184v157q-72 -70 -174 -117t-217 -47
q-119 0 -221 40.5t-170.5 110t-107 163t-38.5 198.5zM170 573q0 -129 60.5 -236t174.5 -171t261 -64q118 0 222.5 52t168.5 125v589q-65 75 -168.5 128t-222.5 53q-147 0 -261 -65t-174.5 -173t-60.5 -238z" />
    <glyph glyph-name="Gdotaccent" unicode="&#x120;" horiz-adv-x="1628" 
d="M831 680h629v-528q-100 -74 -256.5 -123t-312.5 -49q-155 0 -290 49t-235 139t-158 226t-58 300q0 166 58 303t158 227t235 139.5t290 49.5q161 0 283 -50.5t233 -150.5l-29 -32q-104 95 -220 143.5t-267 48.5q-195 0 -353 -79.5t-253 -235.5t-95 -363q0 -154 55 -282.5
t150.5 -213.5t223 -131.5t272.5 -46.5q147 0 290.5 44t237.5 112v463h-588v41zM838 1700q0 53 45 53q41 0 41 -53t-41 -53q-45 0 -45 53z" />
    <glyph glyph-name="gdotaccent" unicode="&#x121;" horiz-adv-x="1308" 
d="M637 1378q0 54 45 54q41 0 41 -54q0 -53 -41 -53q-45 0 -45 53zM129 573q0 106 38.5 200.5t107.5 164.5t170.5 111t220.5 41q115 0 217.5 -47.5t173.5 -118.5v147h41v-1001q0 -111 -36 -202t-97.5 -150t-142 -91.5t-171.5 -32.5q-37 0 -73 4t-63.5 9t-58.5 16t-49 17.5
t-44.5 20.5t-35.5 19t-32 19.5t-25 15.5l17 43q34 -23 60.5 -38.5t74.5 -38t106.5 -34.5t122.5 -12q81 0 154 29.5t129.5 83t89.5 136.5t33 184v157q-72 -70 -174 -117t-217 -47q-119 0 -221 40.5t-170.5 110t-107 163t-38.5 198.5zM170 573q0 -129 60.5 -236t174.5 -171
t261 -64q118 0 222.5 52t168.5 125v589q-65 75 -168.5 128t-222.5 53q-147 0 -261 -65t-174.5 -173t-60.5 -238z" />
    <glyph glyph-name="Gcommaaccent" unicode="&#x122;" horiz-adv-x="1628" 
d="M831 680h629v-528q-100 -74 -256.5 -123t-312.5 -49q-155 0 -290 49t-235 139t-158 226t-58 300q0 166 58 303t158 227t235 139.5t290 49.5q161 0 283 -50.5t233 -150.5l-29 -32q-104 95 -220 143.5t-267 48.5q-195 0 -353 -79.5t-253 -235.5t-95 -363q0 -154 55 -282.5
t150.5 -213.5t223 -131.5t272.5 -46.5q147 0 290.5 44t237.5 112v463h-588v41zM842 -444l47 147q-44 0 -68 19t-24 47q0 75 69 75q34 0 53 -22t19 -53q0 -56 -18 -121t-43 -107z" />
    <glyph glyph-name="gcommaaccent" unicode="&#x123;" horiz-adv-x="1308" 
d="M129 573q0 106 38.5 200.5t107.5 164.5t170.5 111t220.5 41q115 0 217.5 -47.5t173.5 -118.5v147h41v-1001q0 -111 -36 -202t-97.5 -150t-142 -91.5t-171.5 -32.5q-37 0 -73 4t-63.5 9t-58.5 16t-49 17.5t-44.5 20.5t-35.5 19t-32 19.5t-25 15.5l17 43q34 -23 60.5 -38.5
t74.5 -38t106.5 -34.5t122.5 -12q81 0 154 29.5t129.5 83t89.5 136.5t33 184v157q-72 -70 -174 -117t-217 -47q-119 0 -221 40.5t-170.5 110t-107 163t-38.5 198.5zM170 573q0 -129 60.5 -236t174.5 -171t261 -64q118 0 222.5 52t168.5 125v589q-65 75 -168.5 128t-222.5 53
q-147 0 -261 -65t-174.5 -173t-60.5 -238zM700 1552l-45 -149q44 0 68.5 -19t24.5 -47q0 -75 -70 -75q-34 0 -53 22t-19 53q0 56 18 122t42 108z" />
    <glyph glyph-name="Hcircumflex" unicode="&#x124;" horiz-adv-x="1712" 
d="M1423 0v678h-1134v-678h-41v1393h41v-674h1134v674h41v-1393h-41zM1049 1579l-197 221l-195 -221h-61l231 260h52l231 -260h-61z" />
    <glyph glyph-name="hcircumflex" unicode="&#x125;" horiz-adv-x="1363" 
d="M211 1454h41v-625q56 125 165 193t259 68q200 0 308 -131.5t108 -342.5v-444q0 -75 26.5 -113.5t87.5 -38.5q52 0 127 52l19 -35q-71 -57 -146 -57q-155 0 -155 192v444q0 124 -39.5 220t-125.5 154.5t-210 58.5q-163 0 -277 -91.5t-147 -236.5v-721h-41v1454zM862 1544
l-196 221l-195 -221h-61l231 260h51l232 -260h-62z" />
    <glyph glyph-name="Hbar" unicode="&#x126;" horiz-adv-x="1712" 
d="M248 0v1032h-94v41h94v320h41v-320h1134v320h41v-320h111v-41h-111v-1032h-41v678h-1134v-678h-41zM289 1032v-313h1134v313h-1134z" />
    <glyph glyph-name="hbar" unicode="&#x127;" horiz-adv-x="1363" 
d="M211 1454h41v-176h369v-41h-369v-408q56 125 165 193t259 68q200 0 308 -131.5t108 -342.5v-444q0 -75 26.5 -113.5t87.5 -38.5q52 0 127 52l19 -35q-71 -57 -146 -57q-155 0 -155 192v444q0 124 -39.5 220t-125.5 154.5t-210 58.5q-163 0 -277 -91.5t-147 -236.5v-721
h-41v1237h-182v41h182v176z" />
    <glyph glyph-name="Itilde" unicode="&#x128;" horiz-adv-x="536" 
d="M248 0v1393h41v-1393h-41zM-18 1640l-29 27q28 50 72.5 86.5t101.5 36.5q32 0 73.5 -24t74.5 -52t70.5 -52t62.5 -24q90 0 145 109l29 -27q-27 -50 -72 -86.5t-100 -36.5q-33 0 -74.5 23.5t-74 52.5t-70.5 52.5t-64 23.5q-85 0 -145 -109z" />
    <glyph glyph-name="itilde" unicode="&#x129;" horiz-adv-x="548" 
d="M215 1071h41v-899q0 -152 115 -152q53 0 125 52l20 -35q-71 -57 -147 -57q-154 0 -154 192v899zM-51 1319l-29 27q28 50 72.5 86t101.5 36q32 0 73.5 -23.5t74.5 -52t70.5 -52t62.5 -23.5q90 0 145 108l29 -26q-27 -50 -72 -86.5t-100 -36.5q-33 0 -74.5 23.5t-74 52
t-70.5 52t-64 23.5q-86 0 -145 -108z" />
    <glyph glyph-name="imacron" unicode="&#x12b;" horiz-adv-x="548" 
d="M215 1071h41v-899q0 -152 115 -152q53 0 125 52l20 -35q-71 -57 -147 -57q-154 0 -154 192v899zM471 1337h-469v41h469v-41z" />
    <glyph glyph-name="Ibreve" unicode="&#x12c;" horiz-adv-x="536" 
d="M248 0v1393h41v-1393h-41zM18 1751l33 27q18 -26 33.5 -43.5t42.5 -40t62.5 -34t78.5 -11.5q136 0 213 129l35 -27q-35 -59 -96 -101t-152 -42q-90 0 -152.5 43t-97.5 100z" />
    <glyph glyph-name="Iogonek" unicode="&#x12e;" horiz-adv-x="540" 
d="M244 27l8 -9v1375h41v-1393h-17q-94 -5 -157.5 -48t-63.5 -120q0 -62 38.5 -95.5t99.5 -33.5q69 0 122 31l9 -43q-72 -29 -131 -29q-79 0 -129 44t-50 126q0 61 39.5 107.5t90.5 67t100 20.5z" />
    <glyph glyph-name="iogonek" unicode="&#x12f;" horiz-adv-x="548" 
d="M217 172v899h41v-899q0 -152 115 -152q53 0 125 52l20 -35q-71 -57 -147 -57h-2q-127 -44 -127 -148q0 -62 38 -95.5t99 -33.5q70 0 123 31l8 -43q-72 -29 -131 -29q-78 0 -128 44t-50 126q0 101 108 158q-92 32 -92 182zM195 1358q0 53 45 53q41 0 41 -53t-41 -53
q-45 0 -45 53z" />
    <glyph glyph-name="Idotaccent" unicode="&#x130;" horiz-adv-x="536" 
d="M248 0v1393h41v-1393h-41zM223 1700q0 53 45 53q41 0 41 -53t-41 -53q-45 0 -45 53z" />
    <glyph glyph-name="dotlessi" unicode="&#x131;" horiz-adv-x="548" 
d="M215 1071h41v-899q0 -152 115 -152q53 0 125 52l20 -35q-71 -57 -147 -57q-154 0 -154 192v899z" />
    <glyph glyph-name="IJ" unicode="&#x132;" horiz-adv-x="1878" 
d="M248 0v1393h41v-1393h-41zM1610 1393h41v-879q0 -240 -141 -389.5t-382 -149.5q-237 0 -369 139.5t-147 381.5l39 6q15 -230 134.5 -358t342.5 -128q227 0 354.5 136t127.5 362v879z" />
    <glyph glyph-name="ij" unicode="&#x133;" horiz-adv-x="1011" 
d="M256 1071v-899q0 -152 115 -152q53 0 125 52l20 -35q-71 -57 -147 -57q-154 0 -154 192v899h41zM193 1378q0 54 45 54q41 0 41 -54q0 -53 -41 -53q-45 0 -45 53zM801 1071v-1065q0 -289 -273 -409l-16 34q79 41 130.5 87t84.5 119.5t33 170.5v1063h41zM739 1378
q0 54 43 54q41 0 41 -54q0 -53 -41 -53q-43 0 -43 53z" />
    <glyph glyph-name="Jcircumflex" unicode="&#x134;" horiz-adv-x="1341" 
d="M1073 1393h41v-879q0 -240 -140.5 -389.5t-381.5 -149.5q-237 0 -369 139.5t-147 381.5l39 6q15 -230 134.5 -358t342.5 -128q227 0 354 135.5t127 362.5v879zM1288 1579l-196 221l-195 -221h-61l231 260h51l232 -260h-62z" />
    <glyph glyph-name="jcircumflex" unicode="&#x135;" horiz-adv-x="462" 
d="M211 1071h41v-1065q0 -290 -272 -409l-17 34q79 41 130.5 87t84.5 119.5t33 170.5v1063zM422 1257l-197 222l-194 -222h-62l232 261h51l231 -261h-61z" />
    <glyph glyph-name="Kcommaaccent" unicode="&#x136;" horiz-adv-x="1544" 
d="M248 0v1393h41v-674h426l514 674h47v-7l-524 -688q26 -25 57.5 -78t61.5 -113.5t65.5 -129.5t76 -131.5t85.5 -113.5t102 -81.5t119 -30.5q91 0 197 54l12 -41q-104 -53 -209 -53q-82 0 -155.5 44.5t-124.5 111.5t-100 151.5t-83.5 160t-72 140.5t-68.5 90h-426v-678h-41
zM641 -444l47 147q-44 0 -68 19t-24 47q0 75 70 75q34 0 52.5 -22t18.5 -53q0 -56 -18 -121t-43 -107z" />
    <glyph glyph-name="kcommaaccent" unicode="&#x137;" horiz-adv-x="1183" 
d="M1034 1071h41q-49 -206 -149.5 -329.5t-249.5 -184.5l428 -551v-6h-55l-412 543q-159 -54 -385 -54v-489h-41v1454h41v-924q119 1 214 14.5t189.5 49.5t164.5 95t126.5 155.5t87.5 226.5zM555 -444l47 147q-44 0 -68 19t-24 47q0 75 70 75q34 0 52.5 -22t18.5 -53
q0 -56 -18 -121t-43 -107z" />
    <glyph glyph-name="kgreenlandic" unicode="&#x138;" horiz-adv-x="1185" 
d="M252 0h-41v1071h41v-559q117 1 213.5 16t190 54t164.5 101t127 160t87 228h41q-94 -398 -403 -526l432 -539v-6h-55l-416 528q-160 -57 -381 -57v-471z" />
    <glyph glyph-name="Lacute" unicode="&#x139;" horiz-adv-x="1196" 
d="M1141 0h-893v1393h41v-1352h852v-41zM459 1839l-170 -260h-51l170 260h51z" />
    <glyph glyph-name="lacute" unicode="&#x13a;" horiz-adv-x="581" 
d="M209 1454h41v-1261q0 -90 41.5 -131.5t111.5 -41.5q71 0 146 52l20 -35q-71 -57 -166 -57q-89 0 -141.5 52t-52.5 158v1264zM408 1804l-170 -260h-52l170 260h52z" />
    <glyph glyph-name="Lcommaaccent" unicode="&#x13b;" horiz-adv-x="1200" 
d="M1141 0h-893v1393h41v-1352h852v-41zM653 -444l47 147q-44 0 -68 19t-24 47q0 75 70 75q34 0 53 -22t19 -53q0 -56 -18.5 -121t-43.5 -107z" />
    <glyph glyph-name="lcommaaccent" unicode="&#x13c;" horiz-adv-x="583" 
d="M209 1454h41v-1261q0 -90 41.5 -131.5t111.5 -41.5q71 0 146 52l20 -35q-71 -57 -166 -57q-89 0 -141.5 52t-52.5 158v1264zM324 -444l47 147q-44 0 -68 19t-24 47q0 75 69 75q34 0 53 -22t19 -53q0 -56 -18.5 -121t-43.5 -107z" />
    <glyph glyph-name="Lcaron" unicode="&#x13d;" horiz-adv-x="1202" 
d="M1141 0h-893v1393h41v-1352h852v-41zM881 1122l47 148q-44 0 -68 18.5t-24 46.5q0 76 69 76q34 0 53 -22.5t19 -53.5q0 -56 -18.5 -120t-43.5 -107z" />
    <glyph glyph-name="lcaron" unicode="&#x13e;" horiz-adv-x="598" 
d="M209 1454h41v-1261q0 -90 41.5 -131.5t111.5 -41.5q71 0 146 52l20 -35q-71 -57 -166 -57q-89 0 -141.5 52t-52.5 158v1264zM449 1120l47 148q-44 0 -68.5 18.5t-24.5 46.5q0 76 70 76q34 0 53 -22.5t19 -53.5q0 -56 -18.5 -120t-43.5 -107z" />
    <glyph glyph-name="Ldot" unicode="&#x13f;" horiz-adv-x="1210" 
d="M1141 0h-893v1393h41v-1352h852v-41zM692 721q0 76 66 76q69 0 69 -76t-69 -76q-66 0 -66 76z" />
    <glyph glyph-name="ldot" unicode="&#x140;" horiz-adv-x="663" 
d="M209 1454h41v-1261q0 -90 41.5 -131.5t111.5 -41.5q71 0 146 52l20 -35q-71 -57 -166 -57q-89 0 -141.5 52t-52.5 158v1264zM483 721q0 76 66 76q69 0 69 -76t-69 -76q-66 0 -66 76z" />
    <glyph glyph-name="Lslash" unicode="&#x141;" horiz-adv-x="1196" 
d="M1141 0h-893v614l-127 -65v47l127 66v731h41v-711l327 170v-47l-327 -170v-594h852v-41z" />
    <glyph glyph-name="lslash" unicode="&#x142;" horiz-adv-x="585" 
d="M252 1454v-653l211 108v-47l-211 -108v-561q0 -90 42 -131.5t112 -41.5t145 52l20 -35q-71 -57 -165 -57q-89 0 -142 52t-53 158v541l-113 -57v47l113 57v676h41z" />
    <glyph glyph-name="Nacute" unicode="&#x143;" horiz-adv-x="1703" 
d="M1415 0l-1126 1325v-1325h-41v1393h41l1126 -1332v1332h41v-1393h-41zM1036 1839l-170 -260h-51l170 260h51z" />
    <glyph glyph-name="nacute" unicode="&#x144;" horiz-adv-x="1363" 
d="M211 1071h41v-242q56 125 165 193t259 68q200 0 308 -131.5t108 -342.5v-444q0 -75 26.5 -113.5t87.5 -38.5q52 0 127 52l19 -35q-71 -57 -146 -57q-155 0 -155 192v444q0 124 -39.5 220t-125.5 154.5t-210 58.5q-163 0 -277 -91.5t-147 -236.5v-721h-41v1071zM860 1518
l-170 -261h-51l170 261h51z" />
    <glyph glyph-name="Ncommaaccent" unicode="&#x145;" horiz-adv-x="1703" 
d="M1415 0l-1126 1325v-1325h-41v1393h41l1126 -1332v1332h41v-1393h-41zM788 -444l48 147q-44 0 -68.5 19t-24.5 47q0 75 70 75q34 0 53 -22t19 -53q0 -56 -18.5 -121t-43.5 -107z" />
    <glyph glyph-name="ncommaaccent" unicode="&#x146;" horiz-adv-x="1366" 
d="M211 1071h41v-242q56 125 165 193t259 68q200 0 308 -131.5t108 -342.5v-444q0 -75 26.5 -113.5t87.5 -38.5q52 0 127 52l19 -35q-71 -57 -146 -57q-155 0 -155 192v444q0 124 -39.5 220t-125.5 154.5t-210 58.5q-163 0 -277 -91.5t-147 -236.5v-721h-41v1071zM639 -444
l47 147q-44 0 -68 19t-24 47q0 75 70 75q34 0 52.5 -22t18.5 -53q0 -56 -18 -121t-43 -107z" />
    <glyph glyph-name="Ncaron" unicode="&#x147;" horiz-adv-x="1703" 
d="M1415 0l-1126 1325v-1325h-41v1393h41l1126 -1332v1332h41v-1393h-41zM686 1839l197 -221l194 221h62l-232 -260h-51l-231 260h61z" />
    <glyph glyph-name="ncaron" unicode="&#x148;" horiz-adv-x="1363" 
d="M211 1071h41v-242q56 125 165 193t259 68q200 0 308 -131.5t108 -342.5v-444q0 -75 26.5 -113.5t87.5 -38.5q52 0 127 52l19 -35q-71 -57 -146 -57q-155 0 -155 192v444q0 124 -39.5 220t-125.5 154.5t-210 58.5q-163 0 -277 -91.5t-147 -236.5v-721h-41v1071zM469 1518
l197 -222l194 222h62l-232 -261h-51l-231 261h61z" />
    <glyph glyph-name="napostrophe" unicode="&#x149;" horiz-adv-x="1363" 
d="M211 1071h41v-242q56 125 165 193t259 68q200 0 308 -131.5t108 -342.5v-444q0 -75 26.5 -113.5t87.5 -38.5q52 0 127 52l19 -35q-71 -57 -146 -57q-155 0 -155 192v444q0 124 -39.5 220t-125.5 154.5t-210 58.5q-163 0 -277 -91.5t-147 -236.5v-721h-41v1071z" />
    <glyph glyph-name="Eng" unicode="&#x14a;" horiz-adv-x="1703" 
d="M1415 0l-1126 1325v-1325h-41v1393h41l1126 -1332v1332h41v-1387q0 -290 -272 -409l-17 34q79 41 130.5 86.5t84.5 117.5t33 165z" />
    <glyph glyph-name="eng" unicode="&#x14b;" horiz-adv-x="1284" 
d="M1051 8v608q0 124 -39.5 220t-125.5 154.5t-210 58.5q-163 0 -277 -91.5t-147 -236.5v-721h-41v1071h41v-242q56 125 165 193t259 68q200 0 308 -131.5t108 -342.5v-610q0 -289 -273 -409l-16 34q79 41 130.5 87t84.5 119.5t33 170.5z" />
    <glyph glyph-name="Omacron" unicode="&#x14c;" horiz-adv-x="1728" 
d="M147 694q0 152 54.5 285.5t149.5 228.5t227.5 150t283.5 55q152 0 285.5 -55t228.5 -150t150 -228.5t55 -285.5q0 -201 -93 -364.5t-258 -256.5t-368 -93q-201 0 -365 93t-257 256.5t-93 364.5zM188 694q0 -143 51 -268t140.5 -214.5t214.5 -140.5t268 -51
q193 0 348 87.5t242.5 241.5t87.5 345q0 193 -87.5 348t-242.5 242.5t-348 87.5q-191 0 -345 -87.5t-241.5 -242.5t-87.5 -348zM1096 1659h-469v41h469v-41z" />
    <glyph glyph-name="omacron" unicode="&#x14d;" horiz-adv-x="1380" 
d="M125 532q0 246 158 407t405 161q250 0 408.5 -161t158.5 -407q0 -243 -158.5 -402t-408.5 -159q-247 0 -405 159t-158 402zM166 532q0 -224 146.5 -372t375.5 -148q231 0 378.5 147.5t147.5 372.5q0 228 -147.5 377.5t-378.5 149.5q-229 0 -375.5 -150t-146.5 -377z
M922 1337h-469v41h469v-41z" />
    <glyph glyph-name="Obreve" unicode="&#x14e;" horiz-adv-x="1728" 
d="M147 694q0 152 54.5 285.5t149.5 228.5t227.5 150t283.5 55q152 0 285.5 -55t228.5 -150t150 -228.5t55 -285.5q0 -201 -93 -364.5t-258 -256.5t-368 -93q-201 0 -365 93t-257 256.5t-93 364.5zM188 694q0 -143 51 -268t140.5 -214.5t214.5 -140.5t268 -51
q193 0 348 87.5t242.5 241.5t87.5 345q0 193 -87.5 348t-242.5 242.5t-348 87.5q-191 0 -345 -87.5t-241.5 -242.5t-87.5 -348zM612 1751l33 27q18 -26 33.5 -43.5t42.5 -40t62.5 -34t78.5 -11.5q136 0 213 129l35 -27q-35 -59 -96 -101t-152 -42q-90 0 -152.5 43t-97.5 100
z" />
    <glyph glyph-name="obreve" unicode="&#x14f;" horiz-adv-x="1380" 
d="M125 532q0 246 158 407t405 161q250 0 408.5 -161t158.5 -407q0 -243 -158.5 -402t-408.5 -159q-247 0 -405 159t-158 402zM166 532q0 -224 146.5 -372t375.5 -148q231 0 378.5 147.5t147.5 372.5q0 228 -147.5 377.5t-378.5 149.5q-229 0 -375.5 -150t-146.5 -377z
M438 1430l33 26q18 -26 33.5 -43.5t42.5 -40t62.5 -34t78.5 -11.5q136 0 213 129l35 -26q-85 -144 -248 -144q-90 0 -152.5 43t-97.5 101z" />
    <glyph glyph-name="Ohungarumlaut" unicode="&#x150;" horiz-adv-x="1728" 
d="M147 694q0 152 54.5 285.5t149.5 228.5t227.5 150t283.5 55q152 0 285.5 -55t228.5 -150t150 -228.5t55 -285.5q0 -201 -93 -364.5t-258 -256.5t-368 -93q-201 0 -365 93t-257 256.5t-93 364.5zM188 694q0 -143 51 -268t140.5 -214.5t214.5 -140.5t268 -51
q193 0 348 87.5t242.5 241.5t87.5 345q0 193 -87.5 348t-242.5 242.5t-348 87.5q-191 0 -345 -87.5t-241.5 -242.5t-87.5 -348zM940 1839l-170 -260h-51l170 260h51zM1235 1839l-170 -260h-51l170 260h51z" />
    <glyph glyph-name="ohungarumlaut" unicode="&#x151;" horiz-adv-x="1380" 
d="M125 532q0 246 158 407t405 161q250 0 408.5 -161t158.5 -407q0 -243 -158.5 -402t-408.5 -159q-247 0 -405 159t-158 402zM166 532q0 -224 146.5 -372t375.5 -148q231 0 378.5 147.5t147.5 372.5q0 228 -147.5 377.5t-378.5 149.5q-229 0 -375.5 -150t-146.5 -377z
M743 1518l-170 -261h-51l170 261h51zM1038 1518l-170 -261h-51l170 261h51z" />
    <glyph glyph-name="OE" unicode="&#x152;" horiz-adv-x="2537" 
d="M1346 0v162q-208 -182 -484 -182q-201 0 -365 93t-257 256.5t-93 364.5q0 152 54.5 285.5t149.5 228.5t227.5 150t283.5 55q138 0 262 -48.5t222 -135.5v164h1028v-41h-988v-598h838v-41h-838v-672h988v-41h-1028zM188 694q0 -143 51 -268t140.5 -214.5t214.5 -140.5
t268 -51q141 0 266 51.5t218 143.5v961q-94 92 -218 144t-266 52q-191 0 -345 -87.5t-241.5 -242.5t-87.5 -348z" />
    <glyph glyph-name="oe" unicode="&#x153;" horiz-adv-x="2367" 
d="M2222 512h-965q2 -105 34 -193.5t94.5 -159t165.5 -110t237 -39.5q219 0 403 144l27 -37q-184 -146 -430 -146q-236 0 -374 109.5t-179 292.5q-48 -182 -195 -292t-352 -110q-247 0 -405 159t-158 402q0 246 158 407t405 161q208 0 355.5 -113.5t193.5 -300.5
q44 184 186 299t349 115q118 0 209.5 -35.5t146.5 -98t82.5 -142t27.5 -171.5q0 -82 -16 -141zM166 532q0 -224 146.5 -372t375.5 -148q231 0 378.5 147.5t147.5 372.5q0 228 -147.5 377.5t-378.5 149.5q-229 0 -375.5 -150t-146.5 -377zM1772 1059q-115 0 -212 -40.5
t-162 -110t-102 -161t-39 -194.5h932q9 70 9 100q0 82 -25 153.5t-75 129t-134 90.5t-192 33z" />
    <glyph glyph-name="Racute" unicode="&#x154;" horiz-adv-x="1546" 
d="M248 0v1393h590q90 0 169.5 -27t142.5 -78.5t99.5 -135t36.5 -189.5q0 -128 -64.5 -226.5t-165.5 -148t-218 -49.5h-99q33 -31 89 -102t110 -137.5t118 -132.5t136 -106.5t141 -40.5q91 0 197 54l12 -41q-104 -53 -209 -53q-72 0 -145.5 36t-131.5 91t-117.5 123
t-104 128.5t-89 111.5t-75.5 69h-381v-539h-41zM838 1352h-549v-772h549q109 0 200 43.5t149 132.5t58 207q0 98 -33.5 174t-90.5 122t-129 69.5t-154 23.5zM877 1839l-170 -260h-52l170 260h52z" />
    <glyph glyph-name="racute" unicode="&#x155;" horiz-adv-x="882" 
d="M285 0v897q0 152 -115 152q-54 0 -127 -50l-18 33q68 58 145 58q156 0 156 -191v-94q49 134 124 209.5t191 75.5q73 0 120 -25.5t79 -77.5l-31 -24q-31 47 -68.5 66.5t-97.5 19.5q-53 0 -98 -21t-77 -54t-60 -83t-46 -98t-36 -109v-684h-41zM567 1518l-170 -261h-51
l170 261h51z" />
    <glyph glyph-name="Rcommaaccent" unicode="&#x156;" horiz-adv-x="1546" 
d="M248 0v1393h590q90 0 169.5 -27t142.5 -78.5t99.5 -135t36.5 -189.5q0 -128 -64.5 -226.5t-165.5 -148t-218 -49.5h-99q33 -31 89 -102t110 -137.5t118 -132.5t136 -106.5t141 -40.5q91 0 197 54l12 -41q-104 -53 -209 -53q-72 0 -145.5 36t-131.5 91t-117.5 123
t-104 128.5t-89 111.5t-75.5 69h-381v-539h-41zM838 1352h-549v-772h549q109 0 200 43.5t149 132.5t58 207q0 98 -33.5 174t-90.5 122t-129 69.5t-154 23.5zM664 -444l47 147q-44 0 -68.5 19t-24.5 47q0 75 70 75q34 0 53 -22t19 -53q0 -56 -18.5 -121t-43.5 -107z" />
    <glyph glyph-name="rcommaaccent" unicode="&#x157;" horiz-adv-x="878" 
d="M285 0v897q0 152 -115 152q-54 0 -127 -50l-18 33q68 58 145 58q156 0 156 -191v-94q49 134 124 209.5t191 75.5q73 0 120 -25.5t79 -77.5l-31 -24q-31 47 -68.5 66.5t-97.5 19.5q-53 0 -98 -21t-77 -54t-60 -83t-46 -98t-36 -109v-684h-41zM260 -444l47 147
q-44 0 -68 19t-24 47q0 75 70 75q34 0 52.5 -22t18.5 -53q0 -56 -18 -121t-43 -107z" />
    <glyph glyph-name="Rcaron" unicode="&#x158;" horiz-adv-x="1546" 
d="M248 0v1393h590q90 0 169.5 -27t142.5 -78.5t99.5 -135t36.5 -189.5q0 -128 -64.5 -226.5t-165.5 -148t-218 -49.5h-99q33 -31 89 -102t110 -137.5t118 -132.5t136 -106.5t141 -40.5q91 0 197 54l12 -41q-104 -53 -209 -53q-72 0 -145.5 36t-131.5 91t-117.5 123
t-104 128.5t-89 111.5t-75.5 69h-381v-539h-41zM838 1352h-549v-772h549q109 0 200 43.5t149 132.5t58 207q0 98 -33.5 174t-90.5 122t-129 69.5t-154 23.5zM469 1839l197 -221l194 221h62l-232 -260h-51l-231 260h61z" />
    <glyph glyph-name="rcaron" unicode="&#x159;" horiz-adv-x="882" 
d="M285 0v897q0 152 -115 152q-54 0 -127 -50l-18 33q68 58 145 58q156 0 156 -191v-94q49 134 124 209.5t191 75.5q73 0 120 -25.5t79 -77.5l-31 -24q-31 47 -68.5 66.5t-97.5 19.5q-53 0 -98 -21t-77 -54t-60 -83t-46 -98t-36 -109v-684h-41zM221 1518l197 -222l194 222
h62l-232 -261h-51l-231 261h61z" />
    <glyph glyph-name="Sacute" unicode="&#x15a;" horiz-adv-x="1304" 
d="M770 664l-317 71q-143 32 -225.5 109t-82.5 198q0 72 33 136.5t96 117.5t166.5 84t233.5 31q126 0 253 -33.5t208 -79.5l-19 -41q-70 44 -198 78.5t-244 34.5q-121 0 -216.5 -28t-153.5 -75t-88 -104.5t-30 -120.5q0 -104 70.5 -171t202.5 -97l321 -74q92 -21 157.5 -47
t117.5 -64.5t78 -92.5t26 -125q0 -181 -147 -286t-387 -105q-132 0 -256 37.5t-201 84.5l14 39q77 -44 198 -82.5t245 -38.5q217 0 355 95.5t138 255.5q0 114 -85.5 184t-262.5 109zM854 1839l-170 -260h-51l170 260h51z" />
    <glyph glyph-name="sacute" unicode="&#x15b;" horiz-adv-x="1056" 
d="M915 1010l-12 -41q-64 32 -163 56t-191 24q-172 0 -280.5 -77t-108.5 -196q0 -90 53.5 -128.5t185.5 -67.5l256 -56q136 -29 207.5 -82t71.5 -153q0 -134 -105.5 -221.5t-291.5 -87.5q-212 0 -387 92l14 43q171 -95 373 -95q167 0 261.5 77.5t94.5 189.5q0 85 -62.5 128
t-183.5 70l-256 56q-71 15 -115.5 31t-83 42t-56 66t-17.5 96q0 138 117 226t313 88q94 0 199.5 -24.5t166.5 -55.5zM717 1518l-170 -261h-51l170 261h51z" />
    <glyph glyph-name="Scircumflex" unicode="&#x15c;" horiz-adv-x="1304" 
d="M770 664l-317 71q-143 32 -225.5 109t-82.5 198q0 72 33 136.5t96 117.5t166.5 84t233.5 31q126 0 253 -33.5t208 -79.5l-19 -41q-70 44 -198 78.5t-244 34.5q-121 0 -216.5 -28t-153.5 -75t-88 -104.5t-30 -120.5q0 -104 70.5 -171t202.5 -97l321 -74q92 -21 157.5 -47
t117.5 -64.5t78 -92.5t26 -125q0 -181 -147 -286t-387 -105q-132 0 -256 37.5t-201 84.5l14 39q77 -44 198 -82.5t245 -38.5q217 0 355 95.5t138 255.5q0 114 -85.5 184t-262.5 109zM852 1579l-197 221l-194 -221h-62l232 260h51l231 -260h-61z" />
    <glyph glyph-name="scircumflex" unicode="&#x15d;" horiz-adv-x="1056" 
d="M915 1010l-12 -41q-64 32 -163 56t-191 24q-172 0 -280.5 -77t-108.5 -196q0 -90 53.5 -128.5t185.5 -67.5l256 -56q136 -29 207.5 -82t71.5 -153q0 -134 -105.5 -221.5t-291.5 -87.5q-212 0 -387 92l14 43q171 -95 373 -95q167 0 261.5 77.5t94.5 189.5q0 85 -62.5 128
t-183.5 70l-256 56q-71 15 -115.5 31t-83 42t-56 66t-17.5 96q0 138 117 226t313 88q94 0 199.5 -24.5t166.5 -55.5zM737 1257l-196 222l-195 -222h-61l231 261h51l232 -261h-62z" />
    <glyph glyph-name="Scedilla" unicode="&#x15e;" horiz-adv-x="1304" 
d="M530 -195l43 177q-119 7 -228.5 42.5t-176.5 77.5l14 39q77 -44 198 -82.5t245 -38.5q217 0 355 95.5t138 255.5q0 114 -85.5 184t-262.5 109l-317 71q-143 32 -225.5 109t-82.5 198q0 72 33 136.5t96 117.5t166.5 84t233.5 31q126 0 253 -33.5t208 -79.5l-19 -41
q-70 44 -198 78.5t-244 34.5q-121 0 -216.5 -28t-153.5 -75t-88 -104.5t-30 -120.5q0 -104 70.5 -171t202.5 -97l321 -74q92 -21 157.5 -47t117.5 -64.5t78 -92.5t26 -125q0 -181 -147 -286t-387 -105h-11l-30 -130q45 9 75 9q76 0 121 -33.5t45 -89.5q0 -67 -54 -104.5
t-134 -37.5q-73 0 -143 27l12 39q70 -25 131 -25q66 0 106.5 25.5t40.5 75.5q0 39 -32.5 60.5t-94.5 21.5q-55 0 -122 -19z" />
    <glyph glyph-name="scedilla" unicode="&#x15f;" horiz-adv-x="1056" 
d="M422 -195l45 179q-169 12 -317 88l14 43q171 -95 373 -95q167 0 261.5 77.5t94.5 189.5q0 85 -62.5 128t-183.5 70l-256 56q-71 15 -115.5 31t-83 42t-56 66t-17.5 96q0 138 117 226t313 88q94 0 199.5 -24.5t166.5 -55.5l-12 -41q-64 32 -163 56t-191 24
q-172 0 -280.5 -77t-108.5 -196q0 -90 53.5 -128.5t185.5 -67.5l256 -56q136 -29 207.5 -82t71.5 -153q0 -134 -105.5 -221.5t-291.5 -87.5h-31l-31 -130q45 9 76 9q76 0 121 -33.5t45 -89.5q0 -67 -54.5 -104.5t-134.5 -37.5q-72 0 -143 27l12 39q70 -25 131 -25
q67 0 107.5 25.5t40.5 75.5q0 39 -32.5 60.5t-94.5 21.5q-56 0 -123 -19z" />
    <glyph glyph-name="Scaron" unicode="&#x160;" horiz-adv-x="1304" 
d="M770 664l-317 71q-143 32 -225.5 109t-82.5 198q0 72 33 136.5t96 117.5t166.5 84t233.5 31q126 0 253 -33.5t208 -79.5l-19 -41q-70 44 -198 78.5t-244 34.5q-121 0 -216.5 -28t-153.5 -75t-88 -104.5t-30 -120.5q0 -104 70.5 -171t202.5 -97l321 -74q92 -21 157.5 -47
t117.5 -64.5t78 -92.5t26 -125q0 -181 -147 -286t-387 -105q-132 0 -256 37.5t-201 84.5l14 39q77 -44 198 -82.5t245 -38.5q217 0 355 95.5t138 255.5q0 114 -85.5 184t-262.5 109zM444 1839l197 -221l195 221h61l-231 -260h-52l-231 260h61z" />
    <glyph glyph-name="scaron" unicode="&#x161;" horiz-adv-x="1056" 
d="M915 1010l-12 -41q-64 32 -163 56t-191 24q-172 0 -280.5 -77t-108.5 -196q0 -90 53.5 -128.5t185.5 -67.5l256 -56q136 -29 207.5 -82t71.5 -153q0 -134 -105.5 -221.5t-291.5 -87.5q-212 0 -387 92l14 43q171 -95 373 -95q167 0 261.5 77.5t94.5 189.5q0 85 -62.5 128
t-183.5 70l-256 56q-71 15 -115.5 31t-83 42t-56 66t-17.5 96q0 138 117 226t313 88q94 0 199.5 -24.5t166.5 -55.5zM346 1518l197 -222l194 222h62l-232 -261h-51l-231 261h61z" />
    <glyph glyph-name="Tcommaaccent" unicode="&#x162;" horiz-adv-x="1269" 
d="M1229 1352h-553v-1352l-37 -150q45 9 76 9q76 0 121 -33.5t45 -89.5q0 -67 -54.5 -104.5t-134.5 -37.5q-72 0 -143 27l12 39q70 -25 131 -25q67 0 107.5 25.5t40.5 75.5q0 39 -32.5 60.5t-94.5 21.5q-57 0 -123 -19l-4 6l49 197v1350h-594v41h1188v-41z" />
    <glyph glyph-name="tcommaaccent" unicode="&#x163;" horiz-adv-x="917" 
d="M426 -195l45 185q-92 22 -141 94t-49 188v758h-228v41h230v272h41v-272h479v-41h-481v-756q0 -122 60 -188t175 -66q68 0 147.5 25.5t133.5 65.5l22 -37q-142 -94 -305 -94q-9 0 -23 1t-20 1l-33 -132q45 9 76 9q76 0 121 -33.5t45 -89.5q0 -67 -54.5 -104.5
t-134.5 -37.5q-73 0 -143 27l12 39q70 -25 131 -25q67 0 107.5 25.5t40.5 75.5q0 39 -32.5 60.5t-94.5 21.5q-57 0 -123 -19z" />
    <glyph glyph-name="Tcaron" unicode="&#x164;" horiz-adv-x="1269" 
d="M1229 1352h-553v-1352h-41v1352h-594v41h1188v-41zM459 1839l196 -221l195 221h61l-231 -260h-51l-232 260h62z" />
    <glyph glyph-name="tcaron" unicode="&#x165;" horiz-adv-x="849" 
d="M283 1343h41v-272h479v-41h-481v-756q0 -122 60 -188t175 -66q68 0 147.5 25.5t133.5 65.5l22 -37q-142 -94 -305 -94q-131 0 -202.5 75.5t-71.5 216.5v758h-228v41h230v272zM842 1120l47 148q-44 0 -68 18.5t-24 46.5q0 76 69 76q34 0 53 -22.5t19 -53.5
q0 -56 -18 -120.5t-43 -106.5z" />
    <glyph glyph-name="Tbar" unicode="&#x166;" horiz-adv-x="1269" 
d="M1229 1352h-553v-629h276v-41h-276v-682h-41v682h-275v41h275v629h-594v41h1188v-41z" />
    <glyph glyph-name="tbar" unicode="&#x167;" horiz-adv-x="921" 
d="M283 1343h41v-272h479v-41h-481v-446h362v-41h-362v-269q0 -122 60 -188t175 -66q68 0 147.5 25.5t133.5 65.5l22 -37q-142 -94 -305 -94q-131 0 -202.5 75.5t-71.5 216.5v271h-189v41h189v446h-228v41h230v272z" />
    <glyph glyph-name="Utilde" unicode="&#x168;" horiz-adv-x="1597" 
d="M268 1393v-844q0 -119 31.5 -215t94.5 -168t165.5 -111t237.5 -39q109 0 197.5 28t150 76.5t103.5 116.5t61.5 146.5t19.5 167.5v842h41v-844q0 -117 -35.5 -219.5t-104.5 -182.5t-180.5 -126t-252.5 -46q-280 0 -425 156.5t-145 417.5v844h41zM510 1640l-29 27
q28 50 72.5 86.5t101.5 36.5q32 0 73.5 -24t74.5 -52t70.5 -52t62.5 -24q90 0 145 109l29 -27q-27 -50 -72 -86.5t-100 -36.5q-33 0 -74.5 23.5t-74 52.5t-70.5 52.5t-64 23.5q-85 0 -145 -109z" />
    <glyph glyph-name="utilde" unicode="&#x169;" horiz-adv-x="1355" 
d="M1032 1071h41v-899q0 -152 113 -152q52 0 127 52l20 -35q-71 -57 -147 -57q-154 0 -154 192v72q-56 -121 -166 -192.5t-258 -71.5q-200 0 -307.5 129.5t-107.5 339.5v622h40v-620q0 -193 95.5 -312t279.5 -119q162 0 275.5 92.5t148.5 237.5v721zM358 1319l-28 27
q28 50 72.5 86t101.5 36q41 0 95 -38t104 -75.5t81 -37.5q91 0 146 108l28 -26q-27 -50 -72 -86.5t-100 -36.5q-33 0 -74 23.5t-73.5 52t-70.5 52t-64 23.5q-87 0 -146 -108z" />
    <glyph glyph-name="Umacron" unicode="&#x16a;" horiz-adv-x="1597" 
d="M268 1393v-844q0 -119 31.5 -215t94.5 -168t165.5 -111t237.5 -39q109 0 197.5 28t150 76.5t103.5 116.5t61.5 146.5t19.5 167.5v842h41v-844q0 -117 -35.5 -219.5t-104.5 -182.5t-180.5 -126t-252.5 -46q-280 0 -425 156.5t-145 417.5v844h41zM1030 1659h-469v41h469
v-41z" />
    <glyph glyph-name="umacron" unicode="&#x16b;" horiz-adv-x="1355" 
d="M1032 1071h41v-899q0 -152 113 -152q52 0 127 52l20 -35q-71 -57 -147 -57q-154 0 -154 192v72q-56 -121 -166 -192.5t-258 -71.5q-200 0 -307.5 129.5t-107.5 339.5v622h40v-620q0 -193 95.5 -312t279.5 -119q162 0 275.5 92.5t148.5 237.5v721zM883 1337h-469v41h469
v-41z" />
    <glyph glyph-name="Ubreve" unicode="&#x16c;" horiz-adv-x="1597" 
d="M268 1393v-844q0 -119 31.5 -215t94.5 -168t165.5 -111t237.5 -39q109 0 197.5 28t150 76.5t103.5 116.5t61.5 146.5t19.5 167.5v842h41v-844q0 -117 -35.5 -219.5t-104.5 -182.5t-180.5 -126t-252.5 -46q-280 0 -425 156.5t-145 417.5v844h41zM547 1751l33 27
q18 -26 33.5 -43.5t42.5 -40t62.5 -34t78.5 -11.5q136 0 213 129l34 -27q-84 -143 -247 -143q-90 0 -152.5 43t-97.5 100z" />
    <glyph glyph-name="ubreve" unicode="&#x16d;" horiz-adv-x="1355" 
d="M1032 1071h41v-899q0 -152 113 -152q52 0 127 52l20 -35q-71 -57 -147 -57q-154 0 -154 192v72q-56 -121 -166 -192.5t-258 -71.5q-200 0 -307.5 129.5t-107.5 339.5v622h40v-620q0 -193 95.5 -312t279.5 -119q162 0 275.5 92.5t148.5 237.5v721zM399 1430l33 26
q18 -26 33.5 -43.5t42.5 -40t62.5 -34t78.5 -11.5q136 0 213 129l35 -26q-85 -144 -248 -144q-90 0 -152.5 43t-97.5 101z" />
    <glyph glyph-name="Uring" unicode="&#x16e;" horiz-adv-x="1597" 
d="M268 1393v-844q0 -119 31.5 -215t94.5 -168t165.5 -111t237.5 -39q109 0 197.5 28t150 76.5t103.5 116.5t61.5 146.5t19.5 167.5v842h41v-844q0 -117 -35.5 -219.5t-104.5 -182.5t-180.5 -126t-252.5 -46q-280 0 -425 156.5t-145 417.5v844h41zM596 1612q0 83 59 141.5
t142 58.5t141.5 -58.5t58.5 -141.5t-58.5 -142t-141.5 -59t-142 59t-59 142zM637 1612q0 -66 47 -113t113 -47t112.5 47t46.5 113t-46.5 113t-112.5 47t-113 -47t-47 -113z" />
    <glyph glyph-name="uring" unicode="&#x16f;" horiz-adv-x="1355" 
d="M1032 1071h41v-899q0 -152 113 -152q52 0 127 52l20 -35q-71 -57 -147 -57q-154 0 -154 192v72q-56 -121 -166 -192.5t-258 -71.5q-200 0 -307.5 129.5t-107.5 339.5v622h40v-620q0 -193 95.5 -312t279.5 -119q162 0 275.5 92.5t148.5 237.5v721zM436 1372q0 83 59 142
t142 59t142 -59t59 -142t-59 -142t-142 -59t-142 59t-59 142zM477 1372q0 -66 47 -113t113 -47t113 47t47 113t-47 113t-113 47t-113 -47t-47 -113z" />
    <glyph glyph-name="Uhungarumlaut" unicode="&#x170;" horiz-adv-x="1597" 
d="M268 1393v-844q0 -119 31.5 -215t94.5 -168t165.5 -111t237.5 -39q109 0 197.5 28t150 76.5t103.5 116.5t61.5 146.5t19.5 167.5v842h41v-844q0 -117 -35.5 -219.5t-104.5 -182.5t-180.5 -126t-252.5 -46q-280 0 -425 156.5t-145 417.5v844h41zM842 1839l-170 -260h-51
l170 260h51zM1137 1839l-170 -260h-52l170 260h52z" />
    <glyph glyph-name="uhungarumlaut" unicode="&#x171;" horiz-adv-x="1355" 
d="M1032 1071h41v-899q0 -152 113 -152q52 0 127 52l20 -35q-71 -57 -147 -57q-154 0 -154 192v72q-56 -121 -166 -192.5t-258 -71.5q-200 0 -307.5 129.5t-107.5 339.5v622h40v-620q0 -193 95.5 -312t279.5 -119q162 0 275.5 92.5t148.5 237.5v721zM676 1518l-170 -261h-51
l170 261h51zM971 1518l-170 -261h-51l170 261h51z" />
    <glyph glyph-name="Uogonek" unicode="&#x172;" horiz-adv-x="1597" 
d="M268 1393v-844q0 -119 31.5 -215t94.5 -168t165.5 -111t237.5 -39q109 0 197.5 28t150 76.5t103.5 116.5t61.5 146.5t19.5 167.5v842h41v-844q0 -107 -29.5 -201.5t-87 -171t-148.5 -127t-208 -65.5q-131 -48 -131 -152q0 -62 38 -95.5t99 -33.5q70 0 123 31l8 -43
q-72 -29 -131 -29q-78 0 -128 44t-50 126q0 89 82 143h-10q-280 0 -425 156.5t-145 417.5v844h41z" />
    <glyph glyph-name="uogonek" unicode="&#x173;" horiz-adv-x="1353" 
d="M1032 1071h41v-899q0 -152 113 -152q52 0 127 52l20 -35q-67 -54 -143 -57q-125 -48 -125 -148q0 -62 38 -95.5t99 -33.5q70 0 123 31l8 -43q-73 -29 -131 -29q-78 0 -128 44t-50 126q0 98 106 156q-98 28 -98 184v72q-56 -121 -166 -192.5t-258 -71.5
q-200 0 -307.5 129.5t-107.5 339.5v622h40v-620q0 -193 95.5 -312t279.5 -119q162 0 275.5 92.5t148.5 237.5v721z" />
    <glyph glyph-name="Wcircumflex" unicode="&#x174;" horiz-adv-x="2160" 
d="M1442 0l-361 854l-383 -854h-41l-585 1393h41l565 -1346l385 854l-207 492h41l565 -1346l606 1346h41l-626 -1393h-41zM1278 1579l-197 221l-194 -221h-62l232 260h51l231 -260h-61z" />
    <glyph glyph-name="wcircumflex" unicode="&#x175;" horiz-adv-x="2160" 
d="M1126 1071h41v-622q0 -193 99 -311t280 -118q99 0 178.5 39t130 106t77 153.5t26.5 185.5q0 266 -111 567h41q111 -289 111 -567q0 -237 -125 -380.5t-328 -143.5q-167 0 -262.5 76.5t-138.5 240.5q-45 -158 -155.5 -237.5t-274.5 -79.5q-204 0 -312 121.5t-108 347.5
v452q0 78 -25 115t-90 37q-56 0 -127 -52l-18 35q74 54 147 54q88 0 121 -51t33 -140v-450q0 -208 97 -318.5t282 -110.5q186 0 298.5 120t112.5 309v622zM1339 1257l-196 222l-195 -222h-61l231 261h51l232 -261h-62z" />
    <glyph glyph-name="Ycircumflex" unicode="&#x176;" horiz-adv-x="1339" 
d="M649 0v612l-606 774v7h45l582 -742l581 742h45v-7l-606 -772v-614h-41zM864 1579l-196 221l-195 -221h-61l231 260h51l232 -260h-62z" />
    <glyph glyph-name="ycircumflex" unicode="&#x177;" horiz-adv-x="1153" 
d="M47 1071h45l512 -1024l453 1024h45l-522 -1188q-31 -70 -59.5 -117.5t-68.5 -89t-92.5 -62t-119.5 -20.5q-127 0 -244 76l16 41q51 -36 102 -56t126 -20q59 0 104 17t80 53t60.5 79.5t54.5 109.5l43 104zM784 1257l-196 222l-195 -222h-61l231 261h51l232 -261h-62z" />
    <glyph glyph-name="Ydieresis" unicode="&#x178;" horiz-adv-x="1339" 
d="M649 0v612l-606 774v7h45l582 -742l581 742h45v-7l-606 -772v-614h-41zM373 1700q0 53 45 53q41 0 41 -53t-41 -53q-45 0 -45 53zM877 1700q0 53 45 53q41 0 41 -53t-41 -53q-45 0 -45 53z" />
    <glyph glyph-name="Zacute" unicode="&#x179;" horiz-adv-x="1208" 
d="M111 41l936 1311h-936v41h987v-41l-936 -1311h936v-41h-987v41zM795 1839l-170 -260h-52l170 260h52z" />
    <glyph glyph-name="zacute" unicode="&#x17a;" horiz-adv-x="1040" 
d="M100 41l787 989h-787v41h840v-41l-786 -989h786v-41h-840v41zM705 1518l-170 -261h-52l170 261h52z" />
    <glyph glyph-name="Zdotaccent" unicode="&#x17b;" horiz-adv-x="1208" 
d="M111 41l936 1311h-936v41h987v-41l-936 -1311h936v-41h-987v41zM569 1700q0 53 45 53q41 0 41 -53t-41 -53q-45 0 -45 53z" />
    <glyph glyph-name="zdotaccent" unicode="&#x17c;" horiz-adv-x="1040" 
d="M100 41l787 989h-787v41h840v-41l-786 -989h786v-41h-840v41zM496 1378q0 54 45 54q41 0 41 -54q0 -53 -41 -53q-45 0 -45 53z" />
    <glyph glyph-name="Zcaron" unicode="&#x17d;" horiz-adv-x="1208" 
d="M111 41l936 1311h-936v41h987v-41l-936 -1311h936v-41h-987v41zM418 1839l196 -221l195 221h61l-231 -260h-51l-232 260h62z" />
    <glyph glyph-name="zcaron" unicode="&#x17e;" horiz-adv-x="1040" 
d="M100 41l787 989h-787v41h840v-41l-786 -989h786v-41h-840v41zM338 1518l197 -222l194 222h62l-232 -261h-51l-232 261h62z" />
    <glyph glyph-name="florin" unicode="&#x192;" horiz-adv-x="876" 
d="M799 694h-375v-798q0 -138 -65.5 -220t-194.5 -82q-138 0 -215 109l31 31q23 -28 40.5 -45.5t57 -35.5t86.5 -18q113 0 166 72.5t53 188.5v798h-369v41h369v445q0 136 64.5 215.5t193.5 79.5q135 0 215 -109l-29 -31q-75 99 -186 99q-114 0 -165.5 -69.5t-51.5 -184.5
v-445h375v-41z" />
    <glyph glyph-name="Aringacute" unicode="&#x1fa;" horiz-adv-x="1380" 
d="M53 0l611 1358q-73 8 -116.5 46.5t-43.5 108.5q0 79 53.5 117.5t142.5 38.5t143 -38.5t54 -117.5q0 -70 -44 -108.5t-118 -46.5l572 -1358h-41l-160 377h-842l-170 -377h-41zM698 1346l-415 -928h807zM541 1513q0 -118 159 -118q160 0 160 118q0 62 -44 90.5t-116 28.5
t-115.5 -28.5t-43.5 -90.5zM805 1858l-86 -138h-51l86 138h51z" />
    <glyph glyph-name="aringacute" unicode="&#x1fb;" horiz-adv-x="1378" 
d="M801 1694l-86 -138h-51l86 138h51zM496 1350q0 79 55.5 119t144.5 40t145 -40t56 -119t-56 -119.5t-145 -40.5t-144.5 40.5t-55.5 119.5zM537 1350q0 -62 43.5 -90.5t115.5 -28.5t116 28.5t44 90.5q0 118 -160 118q-159 0 -159 -118zM1096 1071v-899q0 -75 26.5 -113.5
t87.5 -38.5q52 0 127 52l19 -35q-71 -57 -146 -57t-112 41.5t-43 121.5q-69 -70 -172 -116.5t-219 -46.5q-242 0 -389.5 153t-147.5 397q0 247 147.5 403.5t389.5 156.5q115 0 217 -48t174 -120v149h41zM1055 197v673q-64 74 -167.5 126.5t-223.5 52.5q-223 0 -359.5 -145.5
t-136.5 -373.5q0 -225 136 -367.5t360 -142.5q119 0 222.5 52t168.5 125z" />
    <glyph glyph-name="AEacute" unicode="&#x1fc;" horiz-adv-x="2158" 
d="M967 0v377h-633l-254 -377h-51l938 1393h1028v-41h-987v-598h837v-41h-837v-672h987v-41h-1028zM362 418h605v899zM1606 1839l-170 -260h-52l170 260h52z" />
    <glyph glyph-name="aeacute" unicode="&#x1fd;" horiz-adv-x="1931" 
d="M1786 512h-842q2 -87 14.5 -158t42.5 -136.5t77 -110t121.5 -71t172.5 -26.5q120 0 207 37t176 107l27 -37q-90 -72 -187 -109t-223 -37q-160 0 -267.5 66t-150.5 176q-33 -36 -54.5 -57.5t-70.5 -61.5t-93 -63.5t-108 -42.5t-130 -19q-179 0 -287.5 93.5t-108.5 246.5
q0 80 27.5 144t76.5 107.5t118 72.5t149 42t174 13q157 0 256 -24q0 71 -5 123t-18.5 98.5t-37 77.5t-59 54t-86 33.5t-117.5 10.5q-206 0 -355 -76l-12 41q143 74 373 74q85 0 147.5 -18t99.5 -46t60.5 -73t33.5 -87.5t15 -101.5q18 56 50.5 109t83 104t126 82t164.5 31
q107 0 192 -36t137.5 -98t79.5 -141.5t27 -171.5q0 -82 -16 -141zM1370 1059q-87 0 -159 -31t-120 -81.5t-81 -117.5t-47.5 -136t-14.5 -140h805q8 62 8 100q0 110 -41.5 200t-132 148t-217.5 58zM143 309q0 -134 96.5 -216.5t258.5 -82.5q67 0 127.5 18t112 53t81.5 61
t71 66l7 7l6 6v400q-110 26 -256 26q-110 0 -199 -18.5t-158.5 -57.5t-108 -105.5t-38.5 -156.5zM1151 1518l-170 -261h-51l170 261h51z" />
    <glyph glyph-name="Oslashacute" unicode="&#x1fe;" horiz-adv-x="1728" 
d="M147 694q0 152 54.5 285.5t149.5 228.5t227.5 150t283.5 55q251 0 443 -143l98 123h45v-7l-115 -141q117 -98 182.5 -240.5t65.5 -310.5q0 -201 -93 -364.5t-258 -256.5t-368 -93q-252 0 -438 141l-98 -121h-45v6l112 139q-116 98 -181 240.5t-65 308.5zM188 694
q0 -158 60.5 -292t169.5 -226l860 1063q-179 133 -416 133q-191 0 -345 -87.5t-241.5 -242.5t-87.5 -348zM1540 694q0 159 -61 293.5t-170 226.5l-860 -1062q178 -132 413 -132q193 0 348 87.5t242.5 241.5t87.5 345zM1055 1839l-170 -260h-51l170 260h51z" />
    <glyph glyph-name="oslashacute" unicode="&#x1ff;" horiz-adv-x="1380" 
d="M125 532q0 246 158 407t405 161q219 0 369 -125l76 94h45v-6l-93 -115q81 -76 125.5 -184t44.5 -232q0 -243 -158.5 -402t-408.5 -159q-179 0 -321 90l-50 -61h-45v6l64 78q-101 76 -156 192t-55 256zM166 532q0 -129 51.5 -237t144.5 -178l668 825q-142 117 -342 117
q-229 0 -375.5 -150t-146.5 -377zM1214 532q0 234 -155 383l-666 -821q127 -82 295 -82q231 0 378.5 147.5t147.5 372.5zM881 1518l-170 -261h-52l170 261h52z" />
    <glyph glyph-name="Scommaaccent" unicode="&#x218;" horiz-adv-x="1306" 
d="M770 664l-317 71q-143 32 -225.5 109t-82.5 198q0 72 33 136.5t96 117.5t166.5 84t233.5 31q126 0 253 -33.5t208 -79.5l-19 -41q-70 44 -198 78.5t-244 34.5q-121 0 -216.5 -28t-153.5 -75t-88 -104.5t-30 -120.5q0 -104 70.5 -171t202.5 -97l321 -74q92 -21 157.5 -47
t117.5 -64.5t78 -92.5t26 -125q0 -181 -147 -286t-387 -105q-132 0 -256 37.5t-201 84.5l14 39q77 -44 198 -82.5t245 -38.5q217 0 355 95.5t138 255.5q0 114 -85.5 184t-262.5 109zM598 -444l47 147q-44 0 -68 19t-24 47q0 75 70 75q34 0 52.5 -22t18.5 -53q0 -56 -18 -121
t-43 -107z" />
    <glyph glyph-name="scommaaccent" unicode="&#x219;" horiz-adv-x="1056" 
d="M915 1010l-12 -41q-64 32 -163 56t-191 24q-172 0 -280.5 -77t-108.5 -196q0 -90 53.5 -128.5t185.5 -67.5l256 -56q136 -29 207.5 -82t71.5 -153q0 -134 -105.5 -221.5t-291.5 -87.5q-212 0 -387 92l14 43q171 -95 373 -95q167 0 261.5 77.5t94.5 189.5q0 85 -62.5 128
t-183.5 70l-256 56q-71 15 -115.5 31t-83 42t-56 66t-17.5 96q0 138 117 226t313 88q94 0 199.5 -24.5t166.5 -55.5zM494 -444l47 147q-44 0 -68 19t-24 47q0 75 69 75q34 0 53 -22t19 -53q0 -56 -18.5 -121t-43.5 -107z" />
    <glyph glyph-name="uni021A" unicode="&#x21a;" horiz-adv-x="1275" 
d="M1229 1352h-553v-1352h-41v1352h-594v41h1188v-41zM616 -444l48 147q-44 0 -68.5 19t-24.5 47q0 75 70 75q34 0 53 -22t19 -53q0 -56 -18.5 -121t-43.5 -107z" />
    <glyph glyph-name="uni021B" unicode="&#x21b;" horiz-adv-x="915" 
d="M283 1343h41v-272h479v-41h-481v-756q0 -122 60 -188t175 -66q68 0 147.5 25.5t133.5 65.5l22 -37q-142 -94 -305 -94q-131 0 -202.5 75.5t-71.5 216.5v758h-228v41h230v272zM477 -444l47 147q-44 0 -68 19t-24 47q0 75 70 75q34 0 52.5 -22t18.5 -53q0 -56 -18 -121
t-43 -107z" />
    <glyph glyph-name="dotlessj" unicode="&#x237;" horiz-adv-x="462" 
d="M211 1071h41v-1065q0 -290 -272 -409l-17 34q79 41 130.5 87t84.5 119.5t33 170.5v1063z" />
    <glyph glyph-name="circumflex" unicode="&#x2c6;" 
d="M823 1257l-196 222l-195 -222h-61l231 261h51l232 -261h-62z" />
    <glyph glyph-name="caron" unicode="&#x2c7;" 
d="M432 1518l197 -222l194 222h62l-232 -261h-51l-231 261h61z" />
    <glyph glyph-name="breve" unicode="&#x2d8;" 
d="M379 1430l33 26q18 -26 33.5 -43.5t42.5 -40t62.5 -34t78.5 -11.5q136 0 213 129l35 -26q-85 -144 -248 -144q-90 0 -152.5 43t-97.5 101z" />
    <glyph glyph-name="dotaccent" unicode="&#x2d9;" 
d="M586 1378q0 54 45 54q41 0 41 -54q0 -53 -41 -53q-45 0 -45 53z" />
    <glyph glyph-name="ring" unicode="&#x2da;" 
d="M428 1290q0 83 59 142t142 59t141.5 -59t58.5 -142t-58.5 -141.5t-141.5 -58.5t-142 58.5t-59 141.5zM469 1290q0 -66 47 -113t113 -47t112.5 47t46.5 113t-46.5 113t-112.5 47t-113 -47t-47 -113z" />
    <glyph glyph-name="ogonek" unicode="&#x2db;" 
d="M688 27l33 -27q-94 -5 -157.5 -48t-63.5 -120q0 -62 38 -95.5t99 -33.5q70 0 123 31l8 -43q-72 -29 -131 -29q-78 0 -128 44t-50 126q0 61 39.5 107.5t90 67t99.5 20.5z" />
    <glyph glyph-name="tilde" unicode="&#x2dc;" 
d="M342 1319l-29 27q28 50 72.5 86t101.5 36q32 0 73.5 -23.5t74.5 -52t70.5 -52t62.5 -23.5q90 0 145 108l29 -26q-27 -50 -72 -86.5t-100 -36.5q-33 0 -74.5 23.5t-74 52t-70.5 52t-64 23.5q-86 0 -145 -108z" />
    <glyph glyph-name="hungarumlaut" unicode="&#x2dd;" 
d="M592 1518l-170 -261h-51l170 261h51zM887 1518l-170 -261h-51l170 261h51z" />
    <glyph glyph-name="uni0394" unicode="&#x394;" horiz-adv-x="1400" 
d="M72 0l626 1393h41l586 -1393h-1253zM717 1346l-586 -1305h1137z" />
    <glyph glyph-name="uni03A9" unicode="&#x3a9;" horiz-adv-x="1753" 
d="M995 0v41q241 48 399 227.5t158 425.5q0 193 -87.5 348t-242.5 242.5t-348 87.5q-191 0 -345 -87.5t-241 -242.5t-87 -348q0 -255 153.5 -434t399.5 -219v-41h-553v41h401q-198 80 -320 255t-122 398q0 203 93 368t256.5 258t364.5 93q152 0 285.5 -55t228.5 -150
t150 -228.5t55 -285.5q0 -219 -123 -394t-319 -259h401v-41h-557z" />
    <glyph glyph-name="uni03BC" unicode="&#x3bc;" horiz-adv-x="1302" 
d="M252 1071v-620q0 -193 95.5 -312t279.5 -119q162 0 275.5 92.5t148.5 237.5v721h41v-1071h-41v244q-56 -121 -166 -192.5t-258 -71.5q-139 0 -234 63.5t-141 175.5v-604h-41v1456h41z" />
    <glyph glyph-name="pi" unicode="&#x3c0;" horiz-adv-x="1394" 
d="M66 1071h1292v-41h-320v-858q0 -152 115 -152q53 0 125 52l20 -35q-71 -57 -147 -57q-154 0 -154 192v858h-598v-1030h-41v1030h-292v41z" />
    <glyph glyph-name="Wgrave" unicode="&#x1e80;" horiz-adv-x="2160" 
d="M1442 0l-361 854l-383 -854h-41l-585 1393h41l565 -1346l385 854l-207 492h41l565 -1346l606 1346h41l-626 -1393h-41zM1061 1579l-170 260h51l170 -260h-51z" />
    <glyph glyph-name="wgrave" unicode="&#x1e81;" horiz-adv-x="2160" 
d="M1126 1071h41v-622q0 -193 99 -311t280 -118q99 0 178.5 39t130 106t77 153.5t26.5 185.5q0 266 -111 567h41q111 -289 111 -567q0 -237 -125 -380.5t-328 -143.5q-167 0 -262.5 76.5t-138.5 240.5q-45 -158 -155.5 -237.5t-274.5 -79.5q-204 0 -312 121.5t-108 347.5
v452q0 78 -25 115t-90 37q-56 0 -127 -52l-18 35q74 54 147 54q88 0 121 -51t33 -140v-450q0 -208 97 -318.5t282 -110.5q186 0 298.5 120t112.5 309v622zM1108 1257l-170 261h51l170 -261h-51z" />
    <glyph glyph-name="Wacute" unicode="&#x1e82;" horiz-adv-x="2160" 
d="M1442 0l-361 854l-383 -854h-41l-585 1393h41l565 -1346l385 854l-207 492h41l565 -1346l606 1346h41l-626 -1393h-41zM1255 1839l-170 -260h-51l170 260h51z" />
    <glyph glyph-name="wacute" unicode="&#x1e83;" horiz-adv-x="2160" 
d="M1126 1071h41v-622q0 -193 99 -311t280 -118q99 0 178.5 39t130 106t77 153.5t26.5 185.5q0 266 -111 567h41q111 -289 111 -567q0 -237 -125 -380.5t-328 -143.5q-167 0 -262.5 76.5t-138.5 240.5q-45 -158 -155.5 -237.5t-274.5 -79.5q-204 0 -312 121.5t-108 347.5
v452q0 78 -25 115t-90 37q-56 0 -127 -52l-18 35q74 54 147 54q88 0 121 -51t33 -140v-450q0 -208 97 -318.5t282 -110.5q186 0 298.5 120t112.5 309v622zM1327 1518l-170 -261h-51l170 261h51z" />
    <glyph glyph-name="Wdieresis" unicode="&#x1e84;" horiz-adv-x="2160" 
d="M1442 0l-361 854l-383 -854h-41l-585 1393h41l565 -1346l385 854l-207 492h41l565 -1346l606 1346h41l-626 -1393h-41zM788 1700q0 53 46 53q40 0 40 -53t-40 -53q-46 0 -46 53zM1292 1700q0 53 45 53q41 0 41 -53t-41 -53q-45 0 -45 53z" />
    <glyph glyph-name="wdieresis" unicode="&#x1e85;" horiz-adv-x="2160" 
d="M1126 1071h41v-622q0 -193 99 -311t280 -118q99 0 178.5 39t130 106t77 153.5t26.5 185.5q0 266 -111 567h41q111 -289 111 -567q0 -237 -125 -380.5t-328 -143.5q-167 0 -262.5 76.5t-138.5 240.5q-45 -158 -155.5 -237.5t-274.5 -79.5q-204 0 -312 121.5t-108 347.5
v452q0 78 -25 115t-90 37q-56 0 -127 -52l-18 35q74 54 147 54q88 0 121 -51t33 -140v-450q0 -208 97 -318.5t282 -110.5q186 0 298.5 120t112.5 309v622zM848 1378q0 54 45 54q41 0 41 -54q0 -53 -41 -53q-45 0 -45 53zM1352 1378q0 54 45 54q41 0 41 -54q0 -53 -41 -53
q-45 0 -45 53z" />
    <glyph glyph-name="Ygrave" unicode="&#x1ef2;" horiz-adv-x="1339" 
d="M649 0v612l-606 774v7h45l582 -742l581 742h45v-7l-606 -772v-614h-41zM645 1579l-170 260h51l170 -260h-51z" />
    <glyph glyph-name="ygrave" unicode="&#x1ef3;" horiz-adv-x="1153" 
d="M47 1071h45l512 -1024l453 1024h45l-522 -1188q-31 -70 -59.5 -117.5t-68.5 -89t-92.5 -62t-119.5 -20.5q-127 0 -244 76l16 41q51 -36 102 -56t126 -20q59 0 104 17t80 53t60.5 79.5t54.5 109.5l43 104zM592 1257l-170 261h51l170 -261h-51z" />
    <glyph glyph-name="endash" unicode="&#x2013;" horiz-adv-x="1249" 
d="M172 641h905v-43h-905v43z" />
    <glyph glyph-name="emdash" unicode="&#x2014;" horiz-adv-x="1701" 
d="M172 641h1358v-43h-1358v43z" />
    <glyph glyph-name="quoteleft" unicode="&#x2018;" horiz-adv-x="452" 
d="M299 1399l-98 -303q45 0 69.5 -20t24.5 -50q0 -80 -72 -80q-35 0 -54 23.5t-19 56.5q0 68 44 203t72 184z" />
    <glyph glyph-name="quoteright" unicode="&#x2019;" horiz-adv-x="440" 
d="M160 956l102 304q-45 0 -69.5 20t-24.5 49q0 80 72 80q35 0 54 -23.5t19 -56.5q0 -66 -46 -201.5t-74 -185.5z" />
    <glyph glyph-name="quotesinglbase" unicode="&#x201a;" horiz-adv-x="483" 
d="M162 -330l102 303q-45 0 -69.5 20t-24.5 50q0 80 72 80q35 0 54 -23.5t19 -56.5q0 -66 -46 -201.5t-74 -185.5z" />
    <glyph glyph-name="quotedblleft" unicode="&#x201c;" horiz-adv-x="778" 
d="M625 1399l-99 -303q45 0 70 -20t25 -50q0 -80 -72 -80q-35 0 -54.5 23.5t-19.5 56.5q0 68 44.5 202.5t72.5 184.5zM299 1399l-98 -303q45 0 69.5 -20t24.5 -50q0 -80 -72 -80q-35 0 -54 23.5t-19 56.5q0 68 44 203t72 184z" />
    <glyph glyph-name="quotedblright" unicode="&#x201d;" horiz-adv-x="761" 
d="M160 956l98 304q-45 0 -69.5 20t-24.5 49q0 80 72 80q35 0 54 -23.5t19 -56.5q0 -66 -44.5 -202.5t-71.5 -184.5zM485 956l99 304q-45 0 -70 20t-25 49q0 80 72 80q35 0 54.5 -23.5t19.5 -56.5q0 -66 -44.5 -202t-72.5 -185z" />
    <glyph glyph-name="quotedblbase" unicode="&#x201e;" horiz-adv-x="808" 
d="M166 -330l98 303q-45 0 -69.5 20t-24.5 50q0 80 72 80q35 0 54 -23.5t19 -56.5q0 -66 -44.5 -202.5t-71.5 -184.5zM492 -330l98 303q-45 0 -69.5 20t-24.5 50q0 80 71 80q35 0 54.5 -23.5t19.5 -56.5q0 -66 -44.5 -202t-72.5 -185z" />
    <glyph glyph-name="dagger" unicode="&#x2020;" horiz-adv-x="1249" 
d="M1176 805h-529v-1190h-43v1190h-530v43h530v606h43v-606h529v-43z" />
    <glyph glyph-name="daggerdbl" unicode="&#x2021;" horiz-adv-x="1372" 
d="M1237 190h-528v-575h-43v575h-531v43h531v572h-531v43h531v606h43v-606h528v-43h-528v-572h528v-43z" />
    <glyph glyph-name="bullet" unicode="&#x2022;" horiz-adv-x="583" 
d="M172 618q0 64 30.5 98t86.5 34q59 0 91 -34t32 -98q0 -133 -123 -133q-117 0 -117 133z" />
    <glyph glyph-name="ellipsis" unicode="&#x2026;" horiz-adv-x="1304" 
d="M172 49q0 38 18 59t52 21q35 0 54 -21t19 -59q0 -80 -73 -80q-70 0 -70 80zM582 49q0 80 69 80q35 0 54.5 -21t19.5 -59q0 -80 -74 -80q-69 0 -69 80zM991 49q0 38 18 59t52 21q35 0 54.5 -21t19.5 -59q0 -80 -74 -80q-70 0 -70 80z" />
    <glyph glyph-name="perthousand" unicode="&#x2030;" horiz-adv-x="2453" 
d="M1681 315q0 147 95.5 243.5t244.5 96.5q150 0 245 -96.5t95 -243.5q0 -146 -95 -240.5t-245 -94.5q-149 0 -244.5 95t-95.5 240zM1722 315q0 -128 84 -212.5t215 -84.5q133 0 217 84t84 213q0 130 -84.5 215.5t-216.5 85.5q-131 0 -215 -85.5t-84 -215.5zM901 315
q0 147 95.5 243.5t244.5 96.5q150 0 245 -96.5t95 -243.5q0 -146 -95 -240.5t-245 -94.5q-149 0 -244.5 95t-95.5 240zM942 315q0 -128 84 -212.5t215 -84.5q133 0 217 84t84 213q0 130 -84.5 215.5t-216.5 85.5q-131 0 -215 -85.5t-84 -215.5zM424 6l754 1387h45v-7
l-754 -1386h-45v6zM100 1071q0 147 95.5 243.5t244.5 96.5q150 0 245 -96.5t95 -243.5q0 -146 -95 -241t-245 -95q-149 0 -244.5 95.5t-95.5 240.5zM141 1071q0 -128 84 -212.5t215 -84.5q132 0 216.5 84t84.5 213q0 130 -84.5 215.5t-216.5 85.5q-131 0 -215 -85.5
t-84 -215.5z" />
    <glyph glyph-name="guilsinglleft" unicode="&#x2039;" horiz-adv-x="612" 
d="M115 612v17l321 397h6l15 -33l-299 -372l301 -373l-17 -33h-6z" />
    <glyph glyph-name="guilsinglright" unicode="&#x203a;" horiz-adv-x="612" 
d="M498 629v-17l-322 -397h-6l-14 33l299 373l-301 372l16 33h6z" />
    <glyph glyph-name="fraction" unicode="&#x2044;" horiz-adv-x="225" 
d="M-287 6l754 1387h41v-7l-754 -1386h-41v6z" />
    <glyph glyph-name="zerosuperior" unicode="&#x2070;" horiz-adv-x="724" 
d="M100 1294q0 148 65 236t197 88t197.5 -88.5t65.5 -235.5t-65.5 -235t-197.5 -88t-197 88t-65 235zM139 1294q0 -129 54 -206.5t169 -77.5t169.5 77.5t54.5 206.5t-54.5 207t-169.5 78t-169 -78t-54 -207z" />
    <glyph glyph-name="foursuperior" unicode="&#x2074;" horiz-adv-x="700" 
d="M639 1124h-150v-145h-38v145h-396v37l396 445h38v-445h150v-37zM104 1161h347v385z" />
    <glyph glyph-name="fivesuperior" unicode="&#x2075;" horiz-adv-x="651" 
d="M125 1315l-2 2l24 289h392v-37h-357l-18 -217h141q116 0 185 -43.5t69 -132.5q0 -103 -74.5 -155t-181.5 -52q-17 0 -33.5 1t-30.5 2.5t-28.5 4t-25 5t-23 6t-19.5 6t-18 6.5t-15 5.5t-13.5 5.5t-10.5 5l14 37q100 -45 201 -45q91 0 155 40.5t64 125.5q0 141 -215 141
h-180z" />
    <glyph glyph-name="sixsuperior" unicode="&#x2076;" horiz-adv-x="704" 
d="M137 1294v-28q13 20 30.5 39t47.5 42t73.5 37.5t92.5 14.5q107 0 169 -55t62 -154q0 -96 -67 -157.5t-168 -61.5q-130 0 -204.5 88t-74.5 235q0 145 74.5 234.5t204.5 89.5q68 0 123.5 -19.5t87.5 -44.5l-19 -34q-72 59 -188 59q-114 0 -179 -78.5t-65 -206.5zM377 1360
q-48 0 -90.5 -17t-71.5 -44t-45 -47t-27 -38q19 -94 80 -149t154 -55q83 0 139.5 52t56.5 128q0 83 -54 126.5t-142 43.5z" />
    <glyph glyph-name="sevensuperior" unicode="&#x2077;" horiz-adv-x="534" 
d="M154 983l288 586h-393v37h436v-37l-288 -590h-43v4z" />
    <glyph glyph-name="eightsuperior" unicode="&#x2078;" horiz-adv-x="696" 
d="M348 971q-111 0 -179.5 48.5t-68.5 131.5q0 65 45 106t123 52q-65 7 -106 49t-41 96q0 77 62 120.5t165 43.5t165 -43.5t62 -120.5q0 -54 -40.5 -96t-106.5 -49q78 -11 124 -52t46 -106q0 -83 -69.5 -131.5t-180.5 -48.5zM350 1288q-105 0 -157 -36t-52 -97
q0 -67 59 -107t148 -40q90 0 149.5 40t59.5 107q0 61 -51 97t-156 36zM348 1581q-83 0 -134.5 -33.5t-51.5 -95.5q0 -53 47 -91t141 -38q93 0 139 38t46 91q0 63 -51 96t-136 33z" />
    <glyph glyph-name="ninesuperior" unicode="&#x2079;" horiz-adv-x="704" 
d="M567 1294q0 19 -2 27q-13 -20 -30 -38.5t-46.5 -41.5t-72.5 -37t-92 -14q-107 0 -169.5 55t-62.5 154q0 96 68 157.5t170 61.5q129 0 202.5 -88t73.5 -236q0 -145 -74 -234t-204 -89q-68 0 -123.5 19t-87.5 44l18 35q29 -24 79 -41.5t110 -17.5q114 0 178.5 78t64.5 206z
M328 1229q48 0 91 16.5t71 42.5t44 45.5t25 36.5q-18 96 -77.5 152.5t-151.5 56.5q-85 0 -142 -51.5t-57 -128.5q0 -83 54 -126.5t143 -43.5z" />
    <glyph glyph-name="zeroinferior" unicode="&#x2080;" horiz-adv-x="724" 
d="M100 109q0 147 65 235t197 88t197.5 -88t65.5 -235t-65.5 -235.5t-197.5 -88.5t-197 88t-65 236zM139 109q0 -129 54 -207t169 -78t169.5 78t54.5 207t-54.5 206.5t-169.5 77.5t-169 -77.5t-54 -206.5z" />
    <glyph glyph-name="oneinferior" unicode="&#x2081;" horiz-adv-x="483" 
d="M47 301l260 121h39v-627h-39v582l-246 -107z" />
    <glyph glyph-name="twoinferior" unicode="&#x2082;" horiz-adv-x="645" 
d="M102 -205v37l273 205q63 47 93 92.5t30 101.5q0 71 -45 116.5t-131 45.5q-89 0 -138 -49t-51 -127l-39 4q2 95 62 153t166 58t160.5 -55t54.5 -141q0 -125 -136 -226l-237 -178h395v-37h-457z" />
    <glyph glyph-name="threeinferior" unicode="&#x2083;" horiz-adv-x="653" 
d="M166 137h172q71 0 113.5 39t42.5 90q0 127 -189 127q-62 0 -102.5 -11t-91.5 -36l-13 37q106 49 207 49q103 0 165 -43.5t62 -120.5q0 -56 -31 -98t-89 -49q69 -11 106 -50.5t37 -105.5q0 -83 -69.5 -131.5t-180.5 -48.5q-21 0 -41.5 1.5t-39.5 5.5t-34 7t-32 8.5t-25 8
t-23 8t-16 6.5l12 37q95 -43 199 -43q90 0 150.5 39t60.5 106q0 60 -46.5 95.5t-131.5 35.5h-172v37z" />
    <glyph glyph-name="fourinferior" unicode="&#x2084;" horiz-adv-x="698" 
d="M639 -59h-150v-146h-38v146h-396v36l396 445h38v-445h150v-36zM104 -23h347v385z" />
    <glyph glyph-name="fiveinferior" unicode="&#x2085;" horiz-adv-x="649" 
d="M123 131l-2 2l24 289h392v-37h-357l-18 -217h141q117 0 185.5 -43t68.5 -133q0 -103 -74.5 -155t-181.5 -52q-17 0 -33.5 1t-30.5 2.5t-28.5 4t-25 5t-23 6t-19.5 6t-18 6.5t-15 5.5t-13.5 5.5t-10.5 5l14 37q100 -45 201 -45q91 0 155 40.5t64 125.5q0 141 -215 141
h-180z" />
    <glyph glyph-name="sixinferior" unicode="&#x2086;" horiz-adv-x="704" 
d="M137 109v-29q13 20 30.5 39t47.5 42t73.5 37.5t92.5 14.5q107 0 169 -55t62 -154q0 -96 -67 -157.5t-168 -61.5q-130 0 -204.5 88.5t-74.5 235.5q0 145 74.5 234t204.5 89q68 0 123.5 -19t87.5 -44l-19 -35q-72 59 -188 59q-114 0 -179 -78t-65 -206zM377 174
q-48 0 -90.5 -17t-71.5 -43.5t-45.5 -46.5t-26.5 -38q19 -95 80 -150t154 -55q83 0 139.5 52t56.5 128q0 83 -54 126.5t-142 43.5z" />
    <glyph glyph-name="seveninferior" unicode="&#x2087;" horiz-adv-x="536" 
d="M156 -201l293 586h-398v37h441v-37l-293 -590h-43v4z" />
    <glyph glyph-name="eightinferior" unicode="&#x2088;" horiz-adv-x="694" 
d="M346 -215q-111 0 -179.5 48.5t-68.5 131.5q0 65 45 106t123 52q-65 7 -106 49t-41 96q0 77 62 120.5t165 43.5t165 -43.5t62 -120.5q0 -54 -40.5 -96t-106.5 -49q78 -11 124 -52t46 -106q0 -83 -69.5 -131.5t-180.5 -48.5zM348 102q-105 0 -158 -36t-53 -97
q0 -67 60 -106t149 -39q91 0 151 39t60 106q0 61 -52 97t-157 36zM346 393q-84 0 -136 -32.5t-52 -94.5q0 -53 48 -91t142 -38q93 0 140 38t47 91q0 62 -52 94.5t-137 32.5z" />
    <glyph glyph-name="nineinferior" unicode="&#x2089;" horiz-adv-x="704" 
d="M567 109q0 18 -2 26q-13 -20 -30 -38.5t-46.5 -41.5t-72.5 -37t-92 -14q-107 0 -169.5 55t-62.5 154q0 96 68 157.5t170 61.5q129 0 202.5 -87.5t73.5 -235.5q0 -145 -74 -234.5t-204 -89.5q-68 0 -123.5 19t-87.5 44l18 35q29 -24 79 -41.5t110 -17.5q114 0 178.5 78.5
t64.5 206.5zM328 43q48 0 91 16.5t71 42.5t44 45.5t25 36.5q-18 96 -77.5 152.5t-151.5 56.5q-85 0 -142 -51.5t-57 -128.5q0 -83 54 -126.5t143 -43.5z" />
    <glyph glyph-name="Euro" unicode="&#x20ac;" 
d="M1120 1260l-18 -39q-171 151 -373 151q-200 0 -326.5 -140t-150.5 -409h663l-20 -41h-647q-2 -29 -2 -88q0 -65 2 -96h563l-20 -41h-539q27 -260 153.5 -397t323.5 -137q214 0 381 133l20 -35q-170 -141 -401 -141q-214 0 -351.5 148.5t-166.5 428.5h-113v41h109
q-2 31 -2 96q0 59 2 88h-109v41h111q27 286 166 438t354 152q213 0 391 -153z" />
    <glyph glyph-name="afii61289" unicode="&#x2113;" horiz-adv-x="817" 
d="M176 266l-61 96l127 89v565q0 182 67.5 288.5t194.5 106.5q105 0 155 -71.5t50 -198.5q0 -114 -33 -231.5t-87 -213.5t-113.5 -172.5t-119.5 -128.5v-135q0 -174 146 -174q77 0 137 43v-129q-58 -20 -137 -20q-129 0 -194.5 58.5t-65.5 197.5v81zM356 1020v-477
q46 44 85.5 99t77 130.5t59.5 175.5t22 211q0 69 -24.5 106.5t-71.5 37.5q-62 0 -105 -72.5t-43 -210.5z" />
    <glyph glyph-name="uni2117" unicode="&#x2117;" horiz-adv-x="1740" 
d="M154 694q0 203 93 368t256.5 258t364.5 93q152 0 285.5 -55t228.5 -150t150 -228.5t55 -285.5q0 -201 -93 -364.5t-258 -256.5t-368 -93q-201 0 -364.5 93t-256.5 256.5t-93 364.5zM195 694q0 -189 88 -343.5t242 -242.5t343 -88q143 0 269 52t215.5 141t141.5 214.5
t52 266.5q0 143 -52 269t-141.5 215.5t-215.5 141.5t-269 52q-189 0 -343 -88t-242 -243.5t-88 -346.5zM678 346v696h287q102 0 169.5 -61t67.5 -178q0 -109 -69 -173.5t-168 -64.5h-246v-219h-41zM961 1006h-242v-402h242q85 0 142.5 53.5t57.5 145.5q0 98 -56.5 150.5
t-143.5 52.5z" />
    <glyph glyph-name="trademark" unicode="&#x2122;" horiz-adv-x="1742" 
d="M1479 731v565l-285 -352h-12l-285 352v-565h-41v627h41l291 -359l291 359h41v-627h-41zM682 1317h-240v-586h-41v586h-254v41h535v-41z" />
    <glyph glyph-name="Omega" unicode="&#x2126;" horiz-adv-x="1753" 
d="M995 0v41q241 48 399 227.5t158 425.5q0 193 -87.5 348t-242.5 242.5t-348 87.5q-191 0 -345 -87.5t-241 -242.5t-87 -348q0 -255 153.5 -434t399.5 -219v-41h-553v41h401q-198 80 -320 255t-122 398q0 203 93 368t256.5 258t364.5 93q152 0 285.5 -55t228.5 -150
t150 -228.5t55 -285.5q0 -219 -123 -394t-319 -259h401v-41h-557z" />
    <glyph glyph-name="estimated" unicode="&#x212e;" horiz-adv-x="1454" 
d="M739 1231q145 0 257.5 -53t179.5 -142.5t101 -199.5t34 -234v-53h-883v-346q122 -119 311 -119q265 0 377 213h135q-62 -149 -190.5 -235.5t-321.5 -86.5q-116 0 -211.5 35t-161 94.5t-110.5 140t-65.5 170.5t-20.5 187q0 123 34 233.5t101 200t179 142.5t255 53z
M739 1122q-193 0 -311 -118v-349h623v349q-118 118 -312 118z" />
    <glyph glyph-name="onethird" unicode="&#x2153;" horiz-adv-x="1484" 
d="M248 6l753 1387h41v-7l-753 -1386h-41v6zM78 1272l262 119h39v-627h-39v586l-246 -113zM979 342h172q71 0 113.5 39t42.5 90q0 127 -189 127q-62 0 -102.5 -11t-91.5 -36l-13 37q106 49 207 49q103 0 165.5 -43.5t62.5 -120.5q0 -56 -31.5 -98t-89.5 -49
q69 -11 106 -50.5t37 -105.5q0 -83 -69.5 -131.5t-180.5 -48.5q-21 0 -41.5 1.5t-39.5 5.5t-34 7t-32 8.5t-25 8t-23 8t-16 6.5l13 37q95 -43 198 -43q90 0 150.5 39t60.5 106q0 60 -46.5 95.5t-131.5 35.5h-172v37z" />
    <glyph glyph-name="twothirds" unicode="&#x2154;" horiz-adv-x="1654" 
d="M424 6l754 1387h41v-7l-754 -1386h-41v6zM1155 342h172q71 0 113.5 39t42.5 90q0 127 -189 127q-62 0 -102.5 -11t-91.5 -36l-13 37q106 49 207 49q103 0 165.5 -43.5t62.5 -120.5q0 -56 -31.5 -98t-89.5 -49q69 -11 106 -50.5t37 -105.5q0 -83 -69.5 -131.5
t-180.5 -48.5q-21 0 -41.5 1.5t-39.5 5.5t-34 7t-32 8.5t-25 8t-23 8t-16 6.5l13 37q95 -43 198 -43q90 0 150.5 39t60.5 106q0 60 -46.5 95.5t-131.5 35.5h-172v37zM592 776h-457v37l273 205q63 47 92.5 92.5t29.5 101.5q0 71 -45 116.5t-131 45.5q-89 0 -137.5 -49
t-50.5 -127l-39 4q2 95 61.5 153t165.5 58t160.5 -54.5t54.5 -141.5q0 -65 -32.5 -119.5t-102.5 -106.5l-237 -178h395v-37z" />
    <glyph glyph-name="oneeighth" unicode="&#x215b;" horiz-adv-x="1484" 
d="M248 6l753 1387h41v-7l-753 -1386h-41v6zM1118 -12q-111 0 -179.5 48.5t-68.5 131.5q0 65 45 106t123 52q-65 7 -106 49t-41 96q0 77 62 120.5t165 43.5t165.5 -43.5t62.5 -120.5q0 -54 -41 -96t-107 -49q78 -11 124 -52t46 -106q0 -83 -69.5 -131.5t-180.5 -48.5z
M1120 305q-105 0 -158 -36t-53 -97q0 -67 60 -106t149 -39q91 0 151 39t60 106q0 61 -52 97t-157 36zM1118 596q-84 0 -136 -32.5t-52 -94.5q0 -53 48 -91t142 -38q93 0 140 38t47 91q0 62 -52 94.5t-137 32.5zM78 1282l262 119h39v-627h-39v586l-246 -113z" />
    <glyph glyph-name="threeeighths" unicode="&#x215c;" horiz-adv-x="1634" 
d="M403 6l754 1387h41v-7l-754 -1386h-41v6zM1274 -12q-111 0 -179.5 48.5t-68.5 131.5q0 65 45 106t123 52q-65 7 -106 49t-41 96q0 77 62 120.5t165 43.5t165 -43.5t62 -120.5q0 -54 -40.5 -96t-106.5 -49q78 -11 124 -52t46 -106q0 -83 -69.5 -131.5t-180.5 -48.5z
M1276 305q-105 0 -158 -36t-53 -97q0 -67 60 -106t149 -39q91 0 151 39t60 106q0 61 -52 97t-157 36zM1274 596q-84 0 -136.5 -32.5t-52.5 -94.5q0 -53 48.5 -91t142.5 -38q93 0 139.5 38t46.5 91q0 62 -51.5 94.5t-136.5 32.5zM197 1118h172q71 0 113 39t42 90
q0 127 -188 127q-62 0 -103 -11t-92 -36l-12 37q106 49 207 49q103 0 165 -43.5t62 -120.5q0 -56 -31.5 -98t-89.5 -49q69 -11 106.5 -50.5t37.5 -105.5q0 -83 -69.5 -131.5t-180.5 -48.5q-21 0 -41.5 1.5t-39.5 5.5t-34 7t-32 8.5t-25 8t-23 8t-16 6.5l12 37
q95 -43 199 -43q90 0 150.5 39t60.5 106q0 60 -46.5 95.5t-131.5 35.5h-172v37z" />
    <glyph glyph-name="fiveeighths" unicode="&#x215d;" horiz-adv-x="1636" 
d="M1276 -12q-111 0 -179.5 48.5t-68.5 131.5q0 65 45 106t123 52q-65 7 -106 49t-41 96q0 77 62 120.5t165 43.5t165 -43.5t62 -120.5q0 -54 -40.5 -96t-106.5 -49q78 -11 124 -52t46 -106q0 -83 -69.5 -131.5t-180.5 -48.5zM1278 305q-105 0 -158 -36t-53 -97
q0 -67 60 -106t149 -39q91 0 151 39t60 106q0 61 -52 97t-157 36zM1276 596q-84 0 -136.5 -32.5t-52.5 -94.5q0 -53 48.5 -91t142.5 -38q93 0 139.5 38t46.5 91q0 62 -51.5 94.5t-136.5 32.5zM156 1110l-2 2l24 289h391v-37h-356l-18 -217h141q116 0 185 -43.5t69 -132.5
q0 -103 -74.5 -155t-181.5 -52q-17 0 -33.5 1t-30.5 2.5t-28.5 4t-25 5t-23 6t-19.5 6t-18 6.5t-15 5.5t-13.5 5.5t-10.5 5l14 37q100 -45 201 -45q91 0 155 40.5t64 125.5q0 141 -215 141h-180zM406 6l753 1387h41v-7l-754 -1386h-40v6z" />
    <glyph glyph-name="seveneighths" unicode="&#x215e;" horiz-adv-x="1505" 
d="M272 6l754 1387h41v-7l-754 -1386h-41v6zM1143 -12q-111 0 -179.5 48.5t-68.5 131.5q0 65 45 106t123 52q-65 7 -106.5 49t-41.5 96q0 77 62.5 120.5t165.5 43.5t165 -43.5t62 -120.5q0 -54 -40.5 -96t-106.5 -49q78 -11 124 -52t46 -106q0 -83 -69.5 -131.5
t-180.5 -48.5zM1145 305q-105 0 -158 -36t-53 -97q0 -67 60 -106t149 -39q91 0 151 39t60 106q0 61 -52 97t-157 36zM1143 596q-84 0 -136.5 -32.5t-52.5 -94.5q0 -53 48.5 -91t142.5 -38q93 0 139.5 38t46.5 91q0 62 -51.5 94.5t-136.5 32.5zM186 778l289 586h-393v37h436
v-37l-289 -590h-43v4z" />
    <glyph glyph-name="arrowleft" unicode="&#x2190;" horiz-adv-x="1486" 
d="M258 641h1055v-45h-1055l426 -412l-29 -28l-481 462l483 457l29 -33z" />
    <glyph glyph-name="arrowup" unicode="&#x2191;" horiz-adv-x="1486" 
d="M768 1100v-1055h-45v1055l-412 -426l-28 28l462 482l457 -484l-33 -28z" />
    <glyph glyph-name="arrowright" unicode="&#x2192;" horiz-adv-x="1486" 
d="M1229 590h-1055v45h1055l-426 412l28 28l482 -463l-484 -456l-28 32z" />
    <glyph glyph-name="arrowdown" unicode="&#x2193;" horiz-adv-x="1486" 
d="M717 129v1055h45v-1055l412 426l28 -29l-463 -481l-456 483l32 29z" />
    <glyph glyph-name="uni2196" unicode="&#x2196;" horiz-adv-x="1486" 
d="M418 977l745 -746l-30 -32l-746 745l10 -592h-41l-14 668l666 -19l-2 -43z" />
    <glyph glyph-name="uni2197" unicode="&#x2197;" horiz-adv-x="1486" 
d="M1104 940l-746 -745l-32 30l745 746l-592 -10v40l668 15l-19 -666q-7 0 -21.5 1t-21.5 1z" />
    <glyph glyph-name="uni2198" unicode="&#x2198;" horiz-adv-x="1486" 
d="M1069 254l-745 745l30 33l746 -745l-10 592h40l15 -668l-666 18l2 43z" />
    <glyph glyph-name="uni2199" unicode="&#x2199;" horiz-adv-x="1486" 
d="M381 289l745 745l33 -30l-745 -746l592 10v-41l-668 -14l18 666l43 -2z" />
    <glyph glyph-name="partialdiff" unicode="&#x2202;" horiz-adv-x="1259" 
d="M561 930q81 0 155.5 -26t126.5 -63t97.5 -87.5t71 -89.5t45.5 -78q6 56 6 112q0 143 -45 270.5t-120 219.5t-166 156t-189 96l18 35q101 -32 195.5 -99t173 -163.5t126.5 -231t48 -283.5q0 -328 -143.5 -523t-395.5 -195q-195 0 -324.5 136t-129.5 347q0 220 121.5 343.5
t328.5 123.5zM565 20q195 0 322.5 135t163.5 367q-14 31 -33.5 66t-64.5 92.5t-96.5 100.5t-130.5 75.5t-165 32.5q-182 0 -295.5 -112t-113.5 -314q0 -190 118 -316.5t295 -126.5z" />
    <glyph glyph-name="Delta" unicode="&#x2206;" horiz-adv-x="1400" 
d="M72 0l626 1393h41l586 -1393h-1253zM717 1346l-586 -1305h1137z" />
    <glyph glyph-name="product" unicode="&#x220f;" horiz-adv-x="1413" 
d="M281 -385h-39v1778h929v-1778h-41v1737h-849v-1737z" />
    <glyph glyph-name="summation" unicode="&#x2211;" horiz-adv-x="1017" 
d="M117 0v39l467 657l-471 660v37h786v-41h-731l469 -656l-463 -655h725v-41h-782z" />
    <glyph glyph-name="minus" unicode="&#x2212;" 
d="M162 639h905v-41h-905v41z" />
    <glyph glyph-name="uni2215" unicode="&#x2215;" horiz-adv-x="225" 
d="M-287 6l754 1387h41v-7l-754 -1386h-41v6z" />
    <glyph glyph-name="uni2219" unicode="&#x2219;" horiz-adv-x="479" 
d="M172 614q0 76 66 76q69 0 69 -76q0 -75 -69 -75q-66 0 -66 75z" />
    <glyph glyph-name="radical" unicode="&#x221a;" horiz-adv-x="1269" 
d="M295 864l418 -815l420 1364l38 -16l-434 -1397h-41l-422 807l-194 -109l-21 35z" />
    <glyph glyph-name="infinity" unicode="&#x221e;" horiz-adv-x="1757" 
d="M215 610q0 -133 77.5 -207.5t201.5 -74.5q149 0 258 147l100 135l-98 135q-109 148 -260 148q-124 0 -201.5 -75t-77.5 -208zM879 578l-97 -132q-116 -159 -288 -159q-142 0 -231 88t-89 235t89.5 235.5t230.5 88.5q171 0 288 -160l97 -131l98 131q123 160 287 160
q141 0 230 -88.5t89 -235.5t-89 -235t-230 -88q-170 0 -289 159zM1542 610q0 133 -77.5 208t-200.5 75q-146 0 -258 -148l-101 -135l101 -135q111 -147 258 -147q124 0 201 74.5t77 207.5z" />
    <glyph glyph-name="integral" unicode="&#x222b;" horiz-adv-x="919" 
d="M440 -106v1284q0 136 64.5 215.5t193.5 79.5q135 0 215 -109l-28 -31q-75 99 -187 99q-114 0 -165.5 -69.5t-51.5 -184.5v-1284q0 -138 -65.5 -220t-194.5 -82q-138 0 -215 109l31 31q23 -28 40.5 -45.5t57 -35.5t86.5 -18q113 0 166 72.5t53 188.5z" />
    <glyph glyph-name="approxequal" unicode="&#x2248;" 
d="M1049 932l28 -25q-48 -61 -97.5 -86.5t-111.5 -25.5q-53 0 -125.5 24t-133 53.5t-130 53.5t-117.5 24q-116 0 -182 -96l-28 25q77 112 208 112q52 0 125.5 -24t136 -53.5t132 -53.5t112.5 -24q110 0 183 96zM1049 352l28 -24q-48 -61 -97.5 -87t-111.5 -26
q-53 0 -125.5 24.5t-133 53.5t-130 53.5t-117.5 24.5q-115 0 -182 -97l-28 25q78 113 208 113q65 0 164 -39t193.5 -78t148.5 -39q110 0 183 96z" />
    <glyph glyph-name="notequal" unicode="&#x2260;" 
d="M391 94l76 213h-305v41h321l197 543h-518v41h532l86 235l39 -12l-82 -223h330v-41h-344l-197 -543h541v-41h-555l-82 -225z" />
    <glyph glyph-name="lessequal" unicode="&#x2264;" 
d="M160 248h905v-41h-905v41zM160 821v41l901 406h6v-45l-864 -381l864 -381v-45h-6z" />
    <glyph glyph-name="greaterequal" unicode="&#x2265;" 
d="M162 248h905v-41h-905v41zM1067 862v-41l-901 -405h-6v45l864 381l-864 381v45h6z" />
    <glyph glyph-name="lozenge" unicode="&#x25ca;" horiz-adv-x="1112" 
d="M1022 672l-449 -672h-38l-445 672l445 719h38zM975 670l-420 682l-420 -682l420 -633z" />
    <glyph glyph-name="uniF8FF" unicode="&#xf8ff;" horiz-adv-x="1253" 
d="M102 1475h1049v-1475h-1049v1475zM545 580h98q0 45 20.5 83.5t51.5 63.5t67.5 53t67.5 53.5t51.5 64.5t20.5 85q0 104 -75 174t-208 70q-65 0 -115 -20.5t-79 -51t-47.5 -70t-24.5 -73t-6 -64.5h96q0 82 43.5 136.5t132.5 54.5q83 0 130.5 -44.5t47.5 -111.5
q0 -39 -28 -74.5t-68 -65t-80 -63.5t-68 -85.5t-28 -114.5zM522 397v-145h140v145h-140z" />
    <glyph glyph-name="fi" unicode="&#xfb01;" horiz-adv-x="1501" 
d="M90 956v41h244v127q0 161 76 256t235 95q95 0 162 -40.5t106 -95.5l-28 -26q-93 121 -240 121q-142 0 -206 -83.5t-64 -226.5v-127h456v-41h-456v-956h-41v956h-244zM1208 1071v-899q0 -152 115 -152q53 0 125 52l20 -35q-71 -57 -147 -57q-154 0 -154 192v899h41z
M1145 1378q0 54 45 54q41 0 41 -54q0 -53 -41 -53q-45 0 -45 53z" />
    <glyph glyph-name="fl" unicode="&#xfb02;" horiz-adv-x="1517" 
d="M90 956v41h244v127q0 161 76 256t235 95q95 0 162 -40.5t106 -95.5l-28 -26q-93 121 -240 121q-142 0 -206 -83.5t-64 -226.5v-127h456v-41h-456v-956h-41v956h-244zM1145 1454h41v-1261q0 -90 41.5 -131.5t111.5 -41.5q71 0 146 52l20 -35q-71 -57 -166 -57
q-89 0 -141.5 52t-52.5 158v1264z" />
    <glyph glyph-name="Imacron" horiz-adv-x="536" 
d="M248 0v1393h41v-1393h-41zM502 1659h-469v41h469v-41z" />
    <glyph glyph-name="ibreve" horiz-adv-x="548" 
d="M215 1071h41v-899q0 -152 115 -152q53 0 125 52l20 -35q-71 -57 -147 -57q-154 0 -154 192v899zM-12 1430l32 26q18 -25 34 -43t42.5 -40t62.5 -34t79 -12q136 0 213 129l34 -26q-85 -144 -247 -144q-90 0 -152.5 43t-97.5 101z" />
    <glyph glyph-name="commaaccent" 
d="M598 -444l47 147q-44 0 -68 19t-24 47q0 75 70 75q34 0 52.5 -22t18.5 -53q0 -56 -18 -121t-43 -107z" />
    <glyph glyph-name="commaaccent.alt" 
d="M627 1552l-45 -149q44 0 68 -19t24 -47q0 -75 -70 -75q-34 0 -53 22t-19 53q0 56 18 122t42 108z" />
    <glyph glyph-name="zero.tf" 
d="M102 694q0 126 18 233t57 197.5t97.5 154t144.5 99t193 35.5q108 0 194.5 -35.5t146 -98.5t98.5 -154t57 -198t18 -233q0 -157 -29 -284t-89 -225t-160.5 -151.5t-235.5 -53.5q-107 0 -193 35.5t-144.5 98.5t-97.5 153t-57 196t-18 231zM143 694q0 -117 16 -216
t51.5 -183.5t89.5 -143.5t133 -92.5t179 -33.5q101 0 181 33.5t134.5 92t90 143.5t51.5 184t16 216q0 149 -26 269t-81 213.5t-148 144.5t-218 51q-124 0 -216 -51t-146.5 -144.5t-80.5 -213.5t-26 -269z" />
    <glyph glyph-name="one.tf" 
d="M1094 0h-959v41h531v1305l-512 -232l-15 37l527 242h41v-1352h387v-41z" />
    <glyph glyph-name="two.tf" 
d="M1106 0h-971v41l604 473q143 111 210 221.5t67 245.5q0 83 -25 153t-74.5 123.5t-129.5 84t-183 30.5q-207 0 -322 -115.5t-118 -300.5h-41q5 205 130.5 331t350.5 126q113 0 201 -33.5t142.5 -93t82 -136.5t27.5 -169q0 -144 -70 -264.5t-221 -237.5l-563 -438h903v-41z
" />
    <glyph glyph-name="three.tf" 
d="M264 743h395q87 0 159 27.5t117 72.5t69 100.5t24 115.5q0 147 -127.5 230t-325.5 83q-236 0 -436 -110l-20 36q215 115 456 115q221 0 357.5 -94t136.5 -260q0 -124 -82.5 -220.5t-216.5 -111.5q162 -22 255 -113t93 -239q0 -122 -72 -212.5t-194 -136.5t-277 -46
q-229 0 -466 102l18 43q216 -105 448 -105q139 0 251.5 41t181.5 123t69 191q0 148 -109 237.5t-309 89.5h-395v41z" />
    <glyph glyph-name="four.tf" 
d="M1151 336h-193v-336h-40v336h-840v41l837 1016h43v-1016h193v-41zM131 377h787v954z" />
    <glyph glyph-name="five.tf" 
d="M209 772l-4 6l47 615h811v-41h-774l-43 -539h334q114 0 207 -21t166 -65.5t113 -119t40 -175.5q0 -118 -46 -208t-123.5 -141.5t-169 -77t-192.5 -25.5q-87 0 -161.5 10t-135 31t-86.5 32t-69 33l20 43q196 -109 432 -109q74 0 142.5 13t132.5 44t111 77.5t75.5 117
t28.5 158.5q0 94 -37.5 162t-105.5 106.5t-152.5 56t-189.5 17.5h-371z" />
    <glyph glyph-name="six.tf" 
d="M1065 1266l-29 -35q-56 56 -155 98.5t-222 42.5q-155 0 -269 -86t-173 -237.5t-59 -350.5q0 -40 4 -110q21 40 46 78t71.5 88.5t98 87t126 62.5t155.5 26q207 0 329 -123.5t122 -343.5q0 -211 -130 -347t-325 -136q-252 0 -395 195t-143 523q0 212 63 372.5t186.5 251.5
t292.5 91q132 0 237.5 -44.5t168.5 -102.5zM659 889q-87 0 -166 -32.5t-130 -75.5t-95.5 -100.5t-64 -92.5t-33.5 -66q36 -233 162.5 -367.5t322.5 -134.5q177 0 296.5 126.5t119.5 316.5q0 201 -114.5 313.5t-297.5 112.5z" />
    <glyph glyph-name="seven.tf" 
d="M391 6l639 1346h-880v41h929v-41l-639 -1352h-49v6z" />
    <glyph glyph-name="eight.tf" 
d="M614 -20q-146 0 -260.5 46t-182 136.5t-67.5 212.5q0 147 99 238.5t266 113.5q-141 15 -230 111.5t-89 220.5q0 167 128 260.5t336 93.5t336.5 -94t128.5 -260q0 -124 -89 -220.5t-230 -111.5q167 -22 265.5 -113.5t98.5 -238.5q0 -122 -67.5 -212.5t-182 -136.5
t-260.5 -46zM618 698q-238 0 -355.5 -86t-117.5 -237q0 -162 134.5 -258.5t334.5 -96.5t334.5 96.5t134.5 258.5q0 151 -114 237t-351 86zM614 1372q-189 0 -306.5 -81t-117.5 -232q0 -60 24 -114t72.5 -99t134 -71.5t197.5 -26.5q109 0 192.5 26.5t131.5 71.5t72 99t24 114
q0 151 -117.5 232t-306.5 81z" />
    <glyph glyph-name="nine.tf" 
d="M1069 694q0 56 -6 109q-20 -39 -45.5 -78t-71 -88.5t-97.5 -86t-126.5 -62t-155.5 -25.5q-207 0 -328.5 123.5t-121.5 343.5q0 211 129.5 347t324.5 136q253 0 396 -195.5t143 -523.5q0 -212 -63 -372.5t-186 -251t-292 -90.5q-133 0 -238.5 44.5t-168.5 102.5l28 35
q57 -57 155.5 -99.5t221.5 -42.5q155 0 269.5 86t173.5 237.5t59 350.5zM569 504q63 0 121.5 17t103 43t85.5 62.5t68.5 69.5t52.5 70.5t36.5 59.5t20.5 42q-36 233 -163.5 368.5t-322.5 135.5q-176 0 -294.5 -126t-118.5 -316q0 -202 113.5 -314t297.5 -112z" />
    <glyph glyph-name="Euro.tf" 
d="M1120 1260l-18 -39q-171 151 -373 151q-200 0 -326.5 -140t-150.5 -409h663l-20 -41h-647q-2 -29 -2 -88q0 -65 2 -96h563l-20 -41h-539q27 -260 153.5 -397t323.5 -137q214 0 381 133l20 -35q-170 -141 -401 -141q-214 0 -351.5 148.5t-166.5 428.5h-113v41h109
q-2 31 -2 96q0 59 2 88h-109v41h111q27 286 166 438t354 152q213 0 391 -153z" />
    <glyph glyph-name="cent.tf" 
d="M1085 160l23 -39q-193 -150 -430 -150q-58 0 -129 11l-70 -254l-39 10l70 250q-104 21 -181.5 70.5t-124.5 121.5t-70 160t-23 192q0 164 67 292.5t194.5 202t295.5 73.5q72 0 145 -17l59 211l39 -10l-59 -213q122 -41 190 -136t74 -230l-41 -11q-6 125 -65.5 212.5
t-169.5 125.5l-281 -1012q49 -8 119 -8q204 0 407 148zM152 532q0 -200 89.5 -333.5t278.5 -171.5l283 1015q-70 17 -135 17q-237 0 -376.5 -147.5t-139.5 -379.5z" />
    <glyph glyph-name="sterling.tf" 
d="M928 694h-529q4 -20 13.5 -63.5t13 -62t11.5 -60.5t10 -59t7 -57.5t3 -56t-2 -54.5q33 -19 90.5 -66t105.5 -88t107.5 -74t105.5 -33q228 0 228 394h38q0 -204 -66.5 -319t-199.5 -115q-54 0 -118 32t-110.5 71.5t-101.5 85t-83 62.5q-31 -251 -201 -251q-74 0 -114 45.5
t-40 121.5q0 79 54.5 131t142.5 52q32 0 68.5 -10t52.5 -21q0 34 1 49.5t-3.5 52.5t-7 55t-10 56.5t-12 58.5t-13 60.5t-13.5 62.5h-213v41h205q-31 174 -31 283q0 174 98 284.5t281 110.5q61 0 119 -17t98 -40.5t76 -55t54 -52t32 -40.5l-33 -30q-2 3 -8 10q-23 29 -38 46
t-48.5 47t-65.5 47t-81.5 30.5t-104.5 13.5q-164 0 -251 -98t-87 -256q0 -118 33 -283h537v-41zM291 289q-65 0 -109.5 -39t-44.5 -103q0 -56 26.5 -91.5t86.5 -35.5q53 0 87.5 33.5t49.5 81t23 117.5q-56 37 -119 37z" />
    <glyph glyph-name="florin.tf" horiz-adv-x="876" 
d="M799 694h-375v-798q0 -138 -65.5 -220t-194.5 -82q-138 0 -215 109l31 31q23 -28 40.5 -45.5t57 -35.5t86.5 -18q113 0 166 72.5t53 188.5v798h-369v41h369v445q0 136 64.5 215.5t193.5 79.5q135 0 215 -109l-29 -31q-75 99 -186 99q-114 0 -165.5 -69.5t-51.5 -184.5
v-445h375v-41z" />
    <glyph glyph-name="yen.tf" 
d="M1024 371h-389v-371h-41v371h-387v41h387v182h-387v41h373l-469 751v7h45l458 -738l457 738h47v-7l-471 -751h377v-41h-389v-182h389v-41z" />
    <glyph glyph-name="dollar.tf" 
d="M594 -264v244h-8q-132 0 -256 37.5t-201 84.5l14 39q77 -44 198 -82.5t245 -38.5h8v674l-180 41q-143 32 -225.5 109t-82.5 198q0 68 30.5 131t88.5 114.5t153.5 84.5t215.5 37v166h41v-164q126 0 253 -33.5t208 -79.5l-19 -41q-70 44 -198 78.5t-244 34.5v-645l106 -25
q92 -21 157.5 -47t117.5 -64.5t78 -92.5t26 -125q0 -171 -132.5 -274.5t-352.5 -114.5v-246h-41zM731 664l-96 20v-664q197 11 320.5 105.5t123.5 245.5q0 114 -85.5 184t-262.5 109zM147 1042q0 -104 70.5 -171t202.5 -97l174 -41v635q-110 -4 -197.5 -33.5t-141 -75.5
t-81 -101.5t-27.5 -115.5z" />
    <glyph glyph-name="zero.denom" horiz-adv-x="724" 
d="M100 313q0 148 65 236t197 88t197.5 -88.5t65.5 -235.5t-65.5 -235t-197.5 -88t-197 88t-65 235zM139 313q0 -129 54 -206.5t169 -77.5t169.5 77.5t54.5 206.5t-54.5 207t-169.5 78t-169 -78t-54 -207z" />
    <glyph glyph-name="one.denom" horiz-adv-x="483" 
d="M47 506l260 121h39v-627h-39v582l-246 -107z" />
    <glyph glyph-name="two.denom" horiz-adv-x="645" 
d="M102 0v37l273 205q63 47 93 92.5t30 101.5q0 71 -45 116.5t-131 45.5q-89 0 -138 -49t-51 -127l-39 4q2 95 62 153t166 58q105 0 160 -55t55 -142q0 -124 -136 -225l-237 -178h395v-37h-457z" />
    <glyph glyph-name="three.denom" horiz-adv-x="653" 
d="M166 342h172q71 0 113.5 39t42.5 90q0 127 -189 127q-62 0 -102.5 -11t-91.5 -36l-13 37q106 49 207 49q103 0 165 -43.5t62 -120.5q0 -56 -31 -98t-89 -49q69 -11 106 -50.5t37 -105.5q0 -83 -69.5 -131.5t-180.5 -48.5q-21 0 -41.5 1.5t-39.5 5.5t-34 7t-32 8.5t-25 8
t-23 8t-16 6.5l12 37q95 -43 199 -43q90 0 150.5 39t60.5 106q0 60 -46.5 95.5t-131.5 35.5h-172v37z" />
    <glyph glyph-name="four.denom" horiz-adv-x="698" 
d="M639 145h-150v-145h-38v145h-396v37l396 445h38v-445h150v-37zM104 182h347v385z" />
    <glyph glyph-name="five.denom" horiz-adv-x="649" 
d="M123 336l-2 2l24 289h392v-37h-357l-18 -217h141q117 0 185.5 -43t68.5 -133q0 -103 -74.5 -155t-181.5 -52q-17 0 -33.5 1t-30.5 2.5t-28.5 4t-25 5t-23 6t-19.5 6t-18 6.5t-15 5.5t-13.5 5.5t-10.5 5l14 37q100 -45 201 -45q91 0 155 40.5t64 125.5q0 141 -215 141
h-180z" />
    <glyph glyph-name="six.denom" horiz-adv-x="704" 
d="M137 313v-28q13 20 30.5 39t47.5 42t73.5 37.5t92.5 14.5q107 0 169 -55t62 -154q0 -96 -67 -157.5t-168 -61.5q-130 0 -204.5 88t-74.5 235q0 145 74.5 234.5t204.5 89.5q68 0 123.5 -19.5t87.5 -44.5l-19 -34q-72 59 -188 59q-114 0 -179 -78.5t-65 -206.5zM377 379
q-48 0 -90.5 -17t-71.5 -44t-45 -47t-27 -38q19 -94 80 -149t154 -55q83 0 139.5 52t56.5 128q0 83 -54 126.5t-142 43.5z" />
    <glyph glyph-name="seven.denom" horiz-adv-x="536" 
d="M156 4l293 586h-398v37h441v-37l-293 -590h-43v4z" />
    <glyph glyph-name="eight.denom" horiz-adv-x="694" 
d="M346 -10q-111 0 -179.5 48.5t-68.5 131.5q0 65 45 106t123 52q-65 7 -106 49t-41 96q0 77 62 120.5t165 43.5t165 -43.5t62 -120.5q0 -54 -40.5 -96t-106.5 -49q78 -11 124 -52t46 -106q0 -83 -69.5 -131.5t-180.5 -48.5zM348 307q-105 0 -158 -36t-53 -97q0 -67 60 -106
t149 -39q91 0 151 39t60 106q0 61 -52 97t-157 36zM346 598q-84 0 -136 -32.5t-52 -94.5q0 -53 48 -91t142 -38q93 0 140 38t47 91q0 62 -52 94.5t-137 32.5z" />
    <glyph glyph-name="nine.denom" horiz-adv-x="704" 
d="M567 313q0 19 -2 27q-13 -20 -30 -38.5t-46.5 -41.5t-72.5 -37t-92 -14q-107 0 -169.5 55t-62.5 154q0 96 68 157.5t170 61.5q129 0 202.5 -88t73.5 -236q0 -145 -74 -234t-204 -89q-68 0 -123.5 19t-87.5 44l18 35q29 -24 79 -41.5t110 -17.5q114 0 178.5 78t64.5 206z
M328 248q48 0 91 16.5t71 42.5t44 45.5t25 36.5q-18 96 -77.5 152.5t-151.5 56.5q-85 0 -142 -51.5t-57 -128.5q0 -83 54 -126.5t143 -43.5z" />
    <glyph glyph-name="zero.num" horiz-adv-x="724" 
d="M100 1079q0 148 65 236t197 88t197.5 -88.5t65.5 -235.5t-65.5 -235t-197.5 -88t-197 88t-65 235zM139 1079q0 -129 54 -206.5t169 -77.5t169.5 77.5t54.5 206.5t-54.5 207t-169.5 78t-169 -78t-54 -207z" />
    <glyph glyph-name="one.num" horiz-adv-x="483" 
d="M45 1272l262 119h39v-627h-39v586l-246 -113z" />
    <glyph glyph-name="two.num" horiz-adv-x="645" 
d="M559 766h-457v37l273 205q63 47 93 92.5t30 101.5q0 71 -45 116.5t-131 45.5q-89 0 -138 -49t-51 -127l-39 4q2 95 62 153t166 58q105 0 160 -55t55 -142q0 -124 -136 -225l-237 -178h395v-37z" />
    <glyph glyph-name="three.num" horiz-adv-x="653" 
d="M166 1108h172q71 0 113.5 39t42.5 90q0 127 -189 127q-62 0 -102.5 -11t-91.5 -36l-13 37q106 49 207 49q103 0 165 -43.5t62 -120.5q0 -56 -31 -98t-89 -49q69 -11 106 -50.5t37 -105.5q0 -83 -69.5 -131.5t-180.5 -48.5q-21 0 -41.5 1.5t-39.5 5.5t-34 7t-32 8.5t-25 8
t-23 8t-16 6.5l12 37q95 -43 199 -43q90 0 150.5 39t60.5 106q0 60 -46.5 95.5t-131.5 35.5h-172v37z" />
    <glyph glyph-name="four.num" horiz-adv-x="696" 
d="M637 909h-150v-145h-38v145h-396v37l396 445h38v-445h150v-37zM102 946h347v385z" />
    <glyph glyph-name="five.num" horiz-adv-x="649" 
d="M123 1100l-2 2l24 289h392v-37h-357l-18 -217h141q116 0 185 -43.5t69 -132.5q0 -103 -74.5 -155t-181.5 -52q-17 0 -33.5 1t-30.5 2.5t-28.5 4t-25 5t-23 6t-19.5 6t-18 6.5t-15 5.5t-13.5 5.5t-10.5 5l14 37q100 -45 201 -45q91 0 155 40t64 125q0 75 -58.5 108.5
t-156.5 33.5h-180z" />
    <glyph glyph-name="six.num" horiz-adv-x="704" 
d="M137 1079v-28q13 20 30.5 39t47.5 42t73.5 37.5t92.5 14.5q107 0 169 -55t62 -154q0 -96 -67 -157.5t-168 -61.5q-130 0 -204.5 88t-74.5 235q0 145 74.5 234.5t204.5 89.5q68 0 123.5 -19.5t87.5 -44.5l-19 -34q-72 59 -188 59q-114 0 -179 -78.5t-65 -206.5zM377 1145
q-48 0 -90.5 -17t-71.5 -44t-45 -47t-27 -38q19 -94 80 -149t154 -55q83 0 139.5 52t56.5 128q0 83 -54 126.5t-142 43.5z" />
    <glyph glyph-name="seven.num" horiz-adv-x="538" 
d="M156 768l288 586h-393v37h436v-37l-288 -590h-43v4z" />
    <glyph glyph-name="eight.num" horiz-adv-x="694" 
d="M346 756q-111 0 -179.5 48.5t-68.5 131.5q0 65 45 106t123 52q-65 7 -106 49t-41 96q0 77 62 120.5t165 43.5t165 -43.5t62 -120.5q0 -54 -40.5 -96t-106.5 -49q78 -11 124 -52t46 -106q0 -83 -69.5 -131.5t-180.5 -48.5zM348 1073q-105 0 -157 -36t-52 -97
q0 -67 59 -107t148 -40q90 0 149.5 40t59.5 107q0 61 -51 97t-156 36zM346 1366q-83 0 -134.5 -33.5t-51.5 -95.5q0 -53 47 -91t141 -38q93 0 138.5 38t45.5 91q0 63 -50.5 96t-135.5 33z" />
    <glyph glyph-name="nine.num" horiz-adv-x="704" 
d="M567 1079q0 19 -2 27q-13 -20 -30 -38.5t-46.5 -41.5t-72.5 -37t-92 -14q-107 0 -169.5 55t-62.5 154q0 96 68 157.5t170 61.5q129 0 202.5 -88t73.5 -236q0 -145 -74 -234t-204 -89q-68 0 -123.5 19t-87.5 44l18 35q29 -24 79 -41.5t110 -17.5q114 0 178.5 78t64.5 206z
M328 1014q48 0 91 16.5t71 42.5t44 45.5t25 36.5q-18 96 -77.5 152.5t-151.5 56.5q-85 0 -142 -51.5t-57 -128.5q0 -83 54 -126.5t143 -43.5z" />
    <glyph glyph-name="parenleft.case" horiz-adv-x="528" 
d="M451 1602q-31 -40 -62.5 -89t-72.5 -136t-71 -182t-51.5 -226.5t-21.5 -270.5q0 -137 21.5 -268.5t51.5 -226.5t71 -182t72.5 -137t62.5 -89l-35 -26q-40 49 -82.5 122t-92 189t-81 278.5t-31.5 339.5q0 143 22 280t54 235.5t73.5 187t74 139.5t63.5 88z" />
    <glyph glyph-name="parenright.case" horiz-adv-x="526" 
d="M78 1602l35 26q31 -37 63.5 -88t74 -139.5t73 -187t53.5 -235.5t22 -280t-22 -279.5t-53.5 -235.5t-73 -187t-74 -139t-63.5 -88l-35 26q40 51 81 122.5t89 185t78 270t30 325.5q0 171 -30 327.5t-78 270t-88.5 184t-81.5 122.5z" />
    <glyph glyph-name="hyphen.case" horiz-adv-x="1064" 
d="M172 723h721v-43h-721v43z" />
    <glyph glyph-name="bracketleft.case" horiz-adv-x="614" 
d="M565 -221h-354v1839h354v-41h-313v-1755h313v-43z" />
    <glyph glyph-name="bracketright.case" horiz-adv-x="614" 
d="M49 1618h354v-1839h-354v43h313v1755h-313v41z" />
    <glyph glyph-name="braceleft.case" horiz-adv-x="528" 
d="M434 1618v-41h-55q-82 0 -132 -46.5t-50 -119.5q0 -46 22.5 -117.5t49 -136t49 -144.5t22.5 -141q0 -79 -31.5 -120t-109.5 -58q79 -17 110 -58.5t31 -127.5q0 -60 -22.5 -139t-49 -143t-49 -135.5t-22.5 -117.5q0 -73 50 -119.5t132 -46.5h55v-40h-57q-59 0 -104 18.5
t-69.5 49t-36 65.5t-11.5 73q0 50 22.5 121.5t49 133.5t49 141.5t22.5 142.5q0 162 -188 162v41q188 0 188 157q0 63 -22.5 142.5t-49 141.5t-49 133.5t-22.5 121.5q0 38 11.5 73t36 66t69.5 49.5t104 18.5h57z" />
    <glyph glyph-name="bar.case" horiz-adv-x="464" 
d="M211 -221v1839h41v-1839h-41z" />
    <glyph glyph-name="braceright.case" horiz-adv-x="528" 
d="M94 1618h58q59 0 104 -18.5t69.5 -49.5t36 -66t11.5 -73q0 -50 -22.5 -121.5t-49.5 -133.5t-49.5 -141.5t-22.5 -142.5q0 -157 189 -157v-41q-189 0 -189 -162q0 -63 22.5 -142.5t49.5 -141.5t49.5 -133.5t22.5 -121.5q0 -38 -11.5 -73t-36 -65.5t-69.5 -49t-104 -18.5
h-58v40h56q82 0 132 46.5t50 119.5q0 57 -36 154t-72 201.5t-36 179.5q0 85 31.5 127t110.5 59q-78 17 -110 58t-32 120q0 77 36 182.5t72 202.5t36 154q0 73 -50 119.5t-132 46.5h-56v41z" />
    <glyph glyph-name="guilsinglleft.case" horiz-adv-x="569" 
d="M88 694v17l322 397h6l14 -33l-299 -373l301 -372l-16 -33h-6z" />
    <glyph glyph-name="guilsinglright.case" horiz-adv-x="569" 
d="M481 711v-17l-321 -397h-6l-15 33l299 372l-301 373l17 33h6z" />
    <glyph glyph-name="guillemotleft.case" horiz-adv-x="954" 
d="M88 694v17l322 397h6l14 -33l-299 -373l301 -372l-16 -33h-6zM473 694v17l322 397h6l14 -33l-299 -373l301 -372l-16 -33h-6z" />
    <glyph glyph-name="guillemotright.case" horiz-adv-x="954" 
d="M481 711v-17l-321 -397h-6l-15 33l299 372l-301 373l17 33h6zM866 711v-17l-321 -397h-6l-15 33l299 372l-301 373l17 33h6z" />
    <glyph glyph-name="endash.case" horiz-adv-x="1249" 
d="M172 723h905v-43h-905v43z" />
    <glyph glyph-name="emdash.case" horiz-adv-x="1701" 
d="M172 723h1358v-43h-1358v43z" />
    <glyph glyph-name="bullet.case" horiz-adv-x="583" 
d="M172 700q0 64 30.5 97.5t86.5 33.5q59 0 91 -33.5t32 -97.5q0 -133 -123 -133q-117 0 -117 133z" />
    <glyph glyph-name="periodcentered.case" horiz-adv-x="479" 
d="M172 696q0 76 66 76q69 0 69 -76q0 -75 -69 -75q-66 0 -66 75z" />
    <glyph glyph-name="a.alt" horiz-adv-x="1183" 
d="M225 973l-12 41q68 34 174 55t195 21q183 0 272.5 -86.5t89.5 -266.5v-565q0 -75 27 -113.5t88 -38.5q52 0 127 52l18 -35q-71 -57 -145 -57q-143 0 -156 159q-163 -159 -405 -159q-181 0 -288.5 88.5t-107.5 240.5q0 80 27.5 144t76.5 107.5t118 72.5t149 42t174 13
q141 0 256 -35v84q0 161 -77.5 236.5t-245.5 75.5q-206 0 -355 -76zM143 309q0 -133 96 -211t259 -78q134 0 230 49t175 124v421q-105 33 -256 33q-110 0 -199 -18.5t-158.5 -57.5t-108 -105.5t-38.5 -156.5z" />
    <glyph glyph-name="agrave.alt" horiz-adv-x="1183" 
d="M225 973l-12 41q68 34 174 55t195 21q183 0 272.5 -86.5t89.5 -266.5v-565q0 -75 27 -113.5t88 -38.5q52 0 127 52l18 -35q-71 -57 -145 -57q-143 0 -156 159q-163 -159 -405 -159q-181 0 -288.5 88.5t-107.5 240.5q0 80 27.5 144t76.5 107.5t118 72.5t149 42t174 13
q141 0 256 -35v84q0 161 -77.5 236.5t-245.5 75.5q-206 0 -355 -76zM143 309q0 -133 96 -211t259 -78q134 0 230 49t175 124v421q-105 33 -256 33q-110 0 -199 -18.5t-158.5 -57.5t-108 -105.5t-38.5 -156.5zM569 1257l-170 261h52l170 -261h-52z" />
    <glyph glyph-name="aacute.alt" horiz-adv-x="1183" 
d="M225 973l-12 41q68 34 174 55t195 21q183 0 272.5 -86.5t89.5 -266.5v-565q0 -75 27 -113.5t88 -38.5q52 0 127 52l18 -35q-71 -57 -145 -57q-143 0 -156 159q-163 -159 -405 -159q-181 0 -288.5 88.5t-107.5 240.5q0 80 27.5 144t76.5 107.5t118 72.5t149 42t174 13
q141 0 256 -35v84q0 161 -77.5 236.5t-245.5 75.5q-206 0 -355 -76zM143 309q0 -133 96 -211t259 -78q134 0 230 49t175 124v421q-105 33 -256 33q-110 0 -199 -18.5t-158.5 -57.5t-108 -105.5t-38.5 -156.5zM768 1518l-170 -261h-51l170 261h51z" />
    <glyph glyph-name="acircumflex.alt" horiz-adv-x="1183" 
d="M225 973l-12 41q68 34 174 55t195 21q183 0 272.5 -86.5t89.5 -266.5v-565q0 -75 27 -113.5t88 -38.5q52 0 127 52l18 -35q-71 -57 -145 -57q-143 0 -156 159q-163 -159 -405 -159q-181 0 -288.5 88.5t-107.5 240.5q0 80 27.5 144t76.5 107.5t118 72.5t149 42t174 13
q141 0 256 -35v84q0 161 -77.5 236.5t-245.5 75.5q-206 0 -355 -76zM143 309q0 -133 96 -211t259 -78q134 0 230 49t175 124v421q-105 33 -256 33q-110 0 -199 -18.5t-158.5 -57.5t-108 -105.5t-38.5 -156.5zM786 1257l-196 222l-195 -222h-61l231 261h51l232 -261h-62z" />
    <glyph glyph-name="atilde.alt" horiz-adv-x="1183" 
d="M225 973l-12 41q68 34 174 55t195 21q183 0 272.5 -86.5t89.5 -266.5v-565q0 -75 27 -113.5t88 -38.5q52 0 127 52l18 -35q-71 -57 -145 -57q-143 0 -156 159q-163 -159 -405 -159q-181 0 -288.5 88.5t-107.5 240.5q0 80 27.5 144t76.5 107.5t118 72.5t149 42t174 13
q141 0 256 -35v84q0 161 -77.5 236.5t-245.5 75.5q-206 0 -355 -76zM143 309q0 -133 96 -211t259 -78q134 0 230 49t175 124v421q-105 33 -256 33q-110 0 -199 -18.5t-158.5 -57.5t-108 -105.5t-38.5 -156.5zM326 1319l-29 27q28 50 72.5 86t101.5 36q32 0 73.5 -23.5
t74.5 -52t70.5 -52t62.5 -23.5q90 0 145 108l29 -26q-27 -50 -72 -86.5t-100 -36.5q-33 0 -74.5 23.5t-74 52t-70.5 52t-64 23.5q-86 0 -145 -108z" />
    <glyph glyph-name="adieresis.alt" horiz-adv-x="1183" 
d="M225 973l-12 41q68 34 174 55t195 21q183 0 272.5 -86.5t89.5 -266.5v-565q0 -75 27 -113.5t88 -38.5q52 0 127 52l18 -35q-71 -57 -145 -57q-143 0 -156 159q-163 -159 -405 -159q-181 0 -288.5 88.5t-107.5 240.5q0 80 27.5 144t76.5 107.5t118 72.5t149 42t174 13
q141 0 256 -35v84q0 161 -77.5 236.5t-245.5 75.5q-206 0 -355 -76zM143 309q0 -133 96 -211t259 -78q134 0 230 49t175 124v421q-105 33 -256 33q-110 0 -199 -18.5t-158.5 -57.5t-108 -105.5t-38.5 -156.5zM840 1378q0 54 45 54q41 0 41 -54q0 -53 -41 -53q-45 0 -45 53z
M336 1378q0 54 45 54q41 0 41 -54q0 -53 -41 -53q-45 0 -45 53z" />
    <glyph glyph-name="amacron.alt" horiz-adv-x="1183" 
d="M225 973l-12 41q68 34 174 55t195 21q183 0 272.5 -86.5t89.5 -266.5v-565q0 -75 27 -113.5t88 -38.5q52 0 127 52l18 -35q-71 -57 -145 -57q-143 0 -156 159q-163 -159 -405 -159q-181 0 -288.5 88.5t-107.5 240.5q0 80 27.5 144t76.5 107.5t118 72.5t149 42t174 13
q141 0 256 -35v84q0 161 -77.5 236.5t-245.5 75.5q-206 0 -355 -76zM143 309q0 -133 96 -211t259 -78q134 0 230 49t175 124v421q-105 33 -256 33q-110 0 -199 -18.5t-158.5 -57.5t-108 -105.5t-38.5 -156.5zM817 1337h-469v41h469v-41z" />
    <glyph glyph-name="abreve.alt" horiz-adv-x="1183" 
d="M225 973l-12 41q68 34 174 55t195 21q183 0 272.5 -86.5t89.5 -266.5v-565q0 -75 27 -113.5t88 -38.5q52 0 127 52l18 -35q-71 -57 -145 -57q-143 0 -156 159q-163 -159 -405 -159q-181 0 -288.5 88.5t-107.5 240.5q0 80 27.5 144t76.5 107.5t118 72.5t149 42t174 13
q141 0 256 -35v84q0 161 -77.5 236.5t-245.5 75.5q-206 0 -355 -76zM143 309q0 -133 96 -211t259 -78q134 0 230 49t175 124v421q-105 33 -256 33q-110 0 -199 -18.5t-158.5 -57.5t-108 -105.5t-38.5 -156.5zM354 1430l33 26q18 -26 33.5 -43.5t42.5 -40t62.5 -34
t78.5 -11.5q136 0 213 129l35 -26q-85 -144 -248 -144q-90 0 -152.5 43t-97.5 101z" />
    <glyph glyph-name="aring.alt" horiz-adv-x="1183" 
d="M225 973l-12 41q68 34 174 55t195 21q183 0 272.5 -86.5t89.5 -266.5v-565q0 -75 27 -113.5t88 -38.5q52 0 127 52l18 -35q-71 -57 -145 -57q-143 0 -156 159q-163 -159 -405 -159q-181 0 -288.5 88.5t-107.5 240.5q0 80 27.5 144t76.5 107.5t118 72.5t149 42t174 13
q141 0 256 -35v84q0 161 -77.5 236.5t-245.5 75.5q-206 0 -355 -76zM143 309q0 -133 96 -211t259 -78q134 0 230 49t175 124v421q-105 33 -256 33q-110 0 -199 -18.5t-158.5 -57.5t-108 -105.5t-38.5 -156.5zM391 1372q0 83 59 142t142 59t142 -59t59 -142t-59 -142
t-142 -59t-142 59t-59 142zM432 1372q0 -66 47 -113t113 -47t113 47t47 113t-47 113t-113 47t-113 -47t-47 -113z" />
    <glyph glyph-name="aringacute.alt" horiz-adv-x="1183" 
d="M225 973l-12 41q68 34 174 55t195 21q183 0 272.5 -86.5t89.5 -266.5v-565q0 -75 27 -113.5t88 -38.5q52 0 127 52l18 -35q-71 -57 -145 -57q-143 0 -156 159q-163 -159 -405 -159q-181 0 -288.5 88.5t-107.5 240.5q0 80 27.5 144t76.5 107.5t118 72.5t149 42t174 13
q141 0 256 -35v84q0 161 -77.5 236.5t-245.5 75.5q-206 0 -355 -76zM143 309q0 -133 96 -211t259 -78q134 0 230 49t175 124v421q-105 33 -256 33q-110 0 -199 -18.5t-158.5 -57.5t-108 -105.5t-38.5 -156.5zM395 1350q0 79 56 119t145 40t145 -40t56 -119t-56 -119.5
t-145 -40.5t-145 40.5t-56 119.5zM436 1350q0 -62 44 -90.5t116 -28.5t116 28.5t44 90.5q0 118 -160 118t-160 -118zM700 1694l-86 -138h-51l86 138h51z" />
    <glyph glyph-name="aogonek.alt" horiz-adv-x="1181" 
d="M225 973l-12 41q68 34 174 55t195 21q183 0 272.5 -86.5t89.5 -266.5v-565q0 -75 27 -113.5t88 -38.5q52 0 127 52l18 -35q-67 -54 -141 -57q-125 -48 -125 -148q0 -62 38 -95.5t99 -33.5q70 0 123 31l8 -43q-72 -29 -131 -29q-78 0 -128 44t-50 126q0 98 107 156
q-91 23 -101 151q-163 -159 -405 -159q-181 0 -288.5 88.5t-107.5 240.5q0 80 27.5 144t76.5 107.5t118 72.5t149 42t174 13q141 0 256 -35v84q0 161 -77.5 236.5t-245.5 75.5q-206 0 -355 -76zM143 309q0 -133 96 -211t259 -78q134 0 230 49t175 124v421q-105 33 -256 33
q-110 0 -199 -18.5t-158.5 -57.5t-108 -105.5t-38.5 -156.5z" />
    <glyph glyph-name="g.alt" horiz-adv-x="1294" 
d="M1042 1071h41v-973q0 -144 -64 -260.5t-171 -180t-234 -63.5q-158 0 -252 77t-94 210q0 116 82 205.5t246 108.5q-78 3 -145.5 19t-129.5 50t-106 83.5t-70 126t-26 171.5q0 92 33.5 172t96.5 141t163 96.5t225 35.5q114 0 224.5 -45t180.5 -109v135zM1042 225v664
q-64 64 -175 112t-228 48q-228 0 -353.5 -116.5t-125.5 -287.5q0 -94 29 -168.5t76 -120.5t111.5 -76.5t129.5 -42.5t135 -12h401zM1042 186h-219q-147 0 -259.5 -30.5t-183.5 -100.5t-71 -174q0 -112 85.5 -179t219.5 -67q179 0 303.5 134.5t124.5 330.5v86z" />
    <glyph glyph-name="y.alt" horiz-adv-x="1144" 
d="M39 1071h45l500 -1024l465 1024h45l-506 -1122q-44 -98 -75 -155.5t-71 -107.5t-85 -71t-103 -21q-92 0 -149.5 54.5t-57.5 148.5q0 69 31 116t96 74.5t152.5 39.5t212.5 14zM549 -39l16 39q-256 0 -367.5 -43.5t-111.5 -159.5q0 -73 45.5 -117.5t122.5 -44.5
q93 0 156.5 73.5t138.5 252.5z" />
    <glyph glyph-name="asterisk.alt" horiz-adv-x="913" 
d="M254 772l166 293l-318 82l13 41l319 -84v330h43v-330l322 84l12 -41l-326 -84l172 -291l-36 -20l-168 284l-162 -284z" />
    <glyph glyph-name="gcircumflex.alt" horiz-adv-x="1294" 
d="M1042 1071h41v-973q0 -144 -64 -260.5t-171 -180t-234 -63.5q-158 0 -252 77t-94 210q0 116 82 205.5t246 108.5q-78 3 -145.5 19t-129.5 50t-106 83.5t-70 126t-26 171.5q0 92 33.5 172t96.5 141t163 96.5t225 35.5q114 0 224.5 -45t180.5 -109v135zM1042 225v664
q-64 64 -175 112t-228 48q-228 0 -353.5 -116.5t-125.5 -287.5q0 -94 29 -168.5t76 -120.5t111.5 -76.5t129.5 -42.5t135 -12h401zM1042 186h-219q-147 0 -259.5 -30.5t-183.5 -100.5t-71 -174q0 -112 85.5 -179t219.5 -67q179 0 303.5 134.5t124.5 330.5v86zM846 1257
l-197 222l-194 -222h-62l232 261h51l231 -261h-61z" />
    <glyph glyph-name="gbreve.alt" horiz-adv-x="1294" 
d="M414 1430l32 26q18 -25 34 -43t42.5 -40t62.5 -34t79 -12q136 0 213 129l34 -26q-85 -144 -247 -144q-90 0 -152.5 43t-97.5 101zM1042 1071h41v-973q0 -144 -64 -260.5t-171 -180t-234 -63.5q-158 0 -252 77t-94 210q0 116 82 205.5t246 108.5q-78 3 -145.5 19
t-129.5 50t-106 83.5t-70 126t-26 171.5q0 92 33.5 172t96.5 141t163 96.5t225 35.5q114 0 224.5 -45t180.5 -109v135zM1042 225v664q-64 64 -175 112t-228 48q-228 0 -353.5 -116.5t-125.5 -287.5q0 -94 29 -168.5t76 -120.5t111.5 -76.5t129.5 -42.5t135 -12h401z
M1042 186h-219q-147 0 -259.5 -30.5t-183.5 -100.5t-71 -174q0 -112 85.5 -179t219.5 -67q179 0 303.5 134.5t124.5 330.5v86z" />
    <glyph glyph-name="gdotaccent.alt" horiz-adv-x="1294" 
d="M1042 1071h41v-973q0 -144 -64 -260.5t-171 -180t-234 -63.5q-158 0 -252 77t-94 210q0 116 82 205.5t246 108.5q-78 3 -145.5 19t-129.5 50t-106 83.5t-70 126t-26 171.5q0 92 33.5 172t96.5 141t163 96.5t225 35.5q114 0 224.5 -45t180.5 -109v135zM1042 225v664
q-64 64 -175 112t-228 48q-228 0 -353.5 -116.5t-125.5 -287.5q0 -94 29 -168.5t76 -120.5t111.5 -76.5t129.5 -42.5t135 -12h401zM1042 186h-219q-147 0 -259.5 -30.5t-183.5 -100.5t-71 -174q0 -112 85.5 -179t219.5 -67q179 0 303.5 134.5t124.5 330.5v86zM627 1378
q0 54 45 54q41 0 41 -54q0 -53 -41 -53q-45 0 -45 53z" />
    <glyph glyph-name="gcommaaccent.alt" horiz-adv-x="1294" 
d="M1042 1071h41v-973q0 -144 -64 -260.5t-171 -180t-234 -63.5q-158 0 -252 77t-94 210q0 116 82 205.5t246 108.5q-78 3 -145.5 19t-129.5 50t-106 83.5t-70 126t-26 171.5q0 92 33.5 172t96.5 141t163 96.5t225 35.5q114 0 224.5 -45t180.5 -109v135zM1042 225v664
q-64 64 -175 112t-228 48q-228 0 -353.5 -116.5t-125.5 -287.5q0 -94 29 -168.5t76 -120.5t111.5 -76.5t129.5 -42.5t135 -12h401zM1042 186h-219q-147 0 -259.5 -30.5t-183.5 -100.5t-71 -174q0 -112 85.5 -179t219.5 -67q179 0 303.5 134.5t124.5 330.5v86zM690 1552
l-45 -149q44 0 68 -19t24 -47q0 -75 -69 -75q-34 0 -53 22t-19 53q0 57 17.5 123t41.5 107z" />
    <glyph glyph-name="yacute.alt" horiz-adv-x="1144" 
d="M768 1518l-170 -261h-51l170 261h51zM39 1071h45l500 -1024l465 1024h45l-506 -1122q-44 -98 -75 -155.5t-71 -107.5t-85 -71t-103 -21q-92 0 -149.5 54.5t-57.5 148.5q0 69 31 116t96 74.5t152.5 39.5t212.5 14zM549 -39l16 39q-256 0 -367.5 -43.5t-111.5 -159.5
q0 -73 45.5 -117.5t122.5 -44.5q93 0 156.5 73.5t138.5 252.5z" />
    <glyph glyph-name="ycircumflex.alt" horiz-adv-x="1144" 
d="M39 1071h45l500 -1024l465 1024h45l-506 -1122q-44 -98 -75 -155.5t-71 -107.5t-85 -71t-103 -21q-92 0 -149.5 54.5t-57.5 148.5q0 69 31 116t96 74.5t152.5 39.5t212.5 14zM549 -39l16 39q-256 0 -367.5 -43.5t-111.5 -159.5q0 -73 45.5 -117.5t122.5 -44.5
q93 0 156.5 73.5t138.5 252.5zM776 1257l-196 222l-195 -222h-61l231 261h51l232 -261h-62z" />
    <glyph glyph-name="ydieresis.alt" horiz-adv-x="1144" 
d="M39 1071h45l500 -1024l465 1024h45l-506 -1122q-44 -98 -75 -155.5t-71 -107.5t-85 -71t-103 -21q-92 0 -149.5 54.5t-57.5 148.5q0 69 31 116t96 74.5t152.5 39.5t212.5 14zM549 -39l16 39q-256 0 -367.5 -43.5t-111.5 -159.5q0 -73 45.5 -117.5t122.5 -44.5
q93 0 156.5 73.5t138.5 252.5zM289 1358q0 53 45 53q41 0 41 -53t-41 -53q-45 0 -45 53zM793 1358q0 53 45 53q41 0 41 -53t-41 -53q-45 0 -45 53z" />
    <glyph glyph-name="ygrave.alt" horiz-adv-x="1144" 
d="M584 1257l-170 261h51l170 -261h-51zM39 1071h45l500 -1024l465 1024h45l-506 -1122q-44 -98 -75 -155.5t-71 -107.5t-85 -71t-103 -21q-92 0 -149.5 54.5t-57.5 148.5q0 69 31 116t96 74.5t152.5 39.5t212.5 14zM549 -39l16 39q-256 0 -367.5 -43.5t-111.5 -159.5
q0 -73 45.5 -117.5t122.5 -44.5q93 0 156.5 73.5t138.5 252.5z" />
    </font>
</defs>
</svg>
